SplineFontDB: 3.2
FontName: UbuntuMono-Italic
FullName: Ubuntu Mono Italic
FamilyName: Ubuntu Mono
Weight: Book
Copyright: Copyright 2011 Canonical Ltd.  Licensed under the Ubuntu Font Licence 1.0
Version: 0.80
ItalicAngle: -13
UnderlinePosition: -133
UnderlineWidth: 20
Ascent: 800
Descent: 200
InvalidEm: 0
sfntRevision: 0x0000cccc
LayerCount: 2
Layer: 0 1 "Back" 1
Layer: 1 1 "Fore" 0
XUID: [1021 235 -1216451338 7191890]
StyleMap: 0x0001
FSType: 0
OS2Version: 3
OS2_WeightWidthSlopeOnly: 0
OS2_UseTypoMetrics: 0
CreationTime: 1304432203
ModificationTime: 1640508842
PfmFamily: 17
TTFWeight: 400
TTFWidth: 5
LineGap: 0
VLineGap: 0
Panose: 2 11 5 9 3 6 2 10 2 4
OS2TypoAscent: 693
OS2TypoAOffset: 0
OS2TypoDescent: -165
OS2TypoDOffset: 0
OS2TypoLinegap: 49
OS2WinAscent: 830
OS2WinAOffset: 0
OS2WinDescent: 170
OS2WinDOffset: 0
HheadAscent: 830
HheadAOffset: 0
HheadDescent: -170
HheadDOffset: 0
OS2SubXSize: 700
OS2SubYSize: 650
OS2SubXOff: 0
OS2SubYOff: 140
OS2SupXSize: 700
OS2SupYSize: 650
OS2SupXOff: 0
OS2SupYOff: 477
OS2StrikeYSize: 50
OS2StrikeYPos: 250
OS2CapHeight: 693
OS2XHeight: 520
OS2Vendor: 'DAMA'
OS2CodePages: 2000009f.56010000
OS2UnicodeRanges: e00002ff.5000205b.00000000.00000000
Lookup: 1 0 0 "'locl' Localized Forms in Latin lookup 0" { "'locl' Localized Forms in Latin lookup 0 subtable"  } ['locl' ('latn' <'AZE ' > ) ]
Lookup: 1 0 0 "'locl' Localized Forms in Latin lookup 1" { "'locl' Localized Forms in Latin lookup 1 subtable"  } ['locl' ('latn' <'TRK ' > ) ]
Lookup: 1 0 0 "'locl' Localized Forms in Latin lookup 2" { "'locl' Localized Forms in Latin lookup 2 subtable"  } ['locl' ('latn' <'CRT ' > ) ]
Lookup: 1 0 0 "'locl' Localized Forms in Cyrillic lookup 3" { "'locl' Localized Forms in Cyrillic lookup 3 subtable"  } ['locl' ('cyrl' <'SRB ' > ) ]
Lookup: 1 0 0 "'locl' Localized Forms in Cyrillic lookup 4" { "'locl' Localized Forms in Cyrillic lookup 4 subtable"  } ['locl' ('cyrl' <'BGR ' > ) ]

StartChar: .notdef
Encoding: 65536 -1 0
Width: 500
Flags: W
LayerCount: 2
Fore
SplineSet
50 0 m 1,0,-1
 50 750 l 1,1,-1
 450 750 l 1,2,-1
 450 0 l 1,3,-1
 50 0 l 1,0,-1
400 50 m 1,4,-1
 400 700 l 1,5,-1
 100 700 l 1,6,-1
 100 50 l 1,7,-1
 400 50 l 1,4,-1
EndSplineSet
EndChar

StartChar: exclam
Encoding: 33 33 4
Width: 500
Flags: W
LayerCount: 2
Fore
SplineSet
374 451 m 2,0,1
 365 414 365 414 356.5 383 c 128,-1,2
 348 352 348 352 339 324 c 128,-1,3
 330 296 330 296 320.5 268.5 c 128,-1,4
 311 241 311 241 301 211 c 1,5,-1
 244 211 l 1,6,7
 248 241 248 241 251.5 268.5 c 128,-1,8
 255 296 255 296 259.5 324 c 128,-1,9
 264 352 264 352 270 383 c 128,-1,10
 276 414 276 414 285 451 c 2,11,-1
 325 619 l 1,12,-1
 414 619 l 1,13,-1
 374 451 l 2,0,1
232 -12 m 0,14,15
 206 -12 206 -12 189.5 3 c 128,-1,16
 173 18 173 18 173 48 c 0,17,18
 173 84 173 84 193.5 104 c 128,-1,19
 214 124 214 124 243 124 c 0,20,21
 269 124 269 124 286.5 108.5 c 128,-1,22
 304 93 304 93 304 63 c 0,23,24
 304 28 304 28 281.5 8 c 128,-1,25
 259 -12 259 -12 232 -12 c 0,14,15
EndSplineSet
EndChar

StartChar: quotedbl
Encoding: 34 34 5
Width: 500
Flags: W
LayerCount: 2
Fore
SplineSet
341 679 m 1,0,-1
 330 634 l 2,1,2
 319 590 319 590 301 533.5 c 128,-1,3
 283 477 283 477 263 430 c 1,4,-1
 221 430 l 1,5,6
 226 477 226 477 234.5 533.5 c 128,-1,7
 243 590 243 590 254 635 c 2,8,-1
 264 679 l 1,9,-1
 341 679 l 1,0,-1
505 679 m 1,10,-1
 495 634 l 2,11,12
 484 590 484 590 466 533.5 c 128,-1,13
 448 477 448 477 429 430 c 1,14,-1
 387 430 l 1,15,16
 391 477 391 477 399 533.5 c 128,-1,17
 407 590 407 590 418 635 c 2,18,-1
 429 679 l 1,19,-1
 505 679 l 1,10,-1
EndSplineSet
EndChar

StartChar: numbersign
Encoding: 35 35 6
Width: 500
Flags: W
LayerCount: 2
Fore
SplineSet
300 0 m 1,0,-1
 225 0 l 1,1,-1
 296 163 l 1,2,-1
 185 163 l 1,3,-1
 114 0 l 1,4,-1
 40 0 l 1,5,-1
 110 163 l 1,6,-1
 46 163 l 1,7,-1
 62 230 l 1,8,-1
 138 230 l 1,9,-1
 207 389 l 1,10,-1
 100 389 l 1,11,-1
 116 455 l 1,12,-1
 238 455 l 1,13,-1
 307 619 l 1,14,-1
 382 619 l 1,15,-1
 313 455 l 1,16,-1
 423 455 l 1,17,-1
 493 619 l 1,18,-1
 568 619 l 1,19,-1
 498 455 l 1,20,-1
 563 455 l 1,21,-1
 547 389 l 1,22,-1
 469 389 l 1,23,-1
 400 230 l 1,24,-1
 508 230 l 1,25,-1
 492 163 l 1,26,-1
 371 163 l 1,27,-1
 300 0 l 1,0,-1
393 389 m 1,28,-1
 283 389 l 1,29,-1
 214 230 l 1,30,-1
 324 230 l 1,31,-1
 393 389 l 1,28,-1
EndSplineSet
EndChar

StartChar: dollar
Encoding: 36 36 7
Width: 500
Flags: W
LayerCount: 2
Fore
SplineSet
244 88 m 0,0,1
 270 88 270 88 295.5 92.5 c 128,-1,2
 321 97 321 97 341 108.5 c 128,-1,3
 361 120 361 120 373.5 138.5 c 128,-1,4
 386 157 386 157 386 186 c 0,5,6
 386 206 386 206 378 220 c 128,-1,7
 370 234 370 234 356.5 245.5 c 128,-1,8
 343 257 343 257 323.5 266.5 c 128,-1,9
 304 276 304 276 282 287 c 0,10,11
 262 296 262 296 243 307.5 c 128,-1,12
 224 319 224 319 209 335.5 c 128,-1,13
 194 352 194 352 184.5 375 c 128,-1,14
 175 398 175 398 175 430 c 0,15,16
 175 494 175 494 218.5 537 c 128,-1,17
 262 580 262 580 347 591 c 1,18,-1
 371 693 l 1,19,-1
 444 693 l 1,20,-1
 420 593 l 1,21,22
 458 589 458 589 488.5 577.5 c 128,-1,23
 519 566 519 566 536 555 c 1,24,-1
 498 493 l 1,25,26
 483 504 483 504 454 513.5 c 128,-1,27
 425 523 425 523 382 523 c 0,28,29
 356 523 356 523 333 518 c 128,-1,30
 310 513 310 513 293 502.5 c 128,-1,31
 276 492 276 492 266 475.5 c 128,-1,32
 256 459 256 459 256 437 c 0,33,34
 256 400 256 400 278.5 380.5 c 128,-1,35
 301 361 301 361 346 339 c 0,36,37
 371 328 371 328 393 316 c 128,-1,38
 415 304 415 304 431.5 287 c 128,-1,39
 448 270 448 270 458 247 c 128,-1,40
 468 224 468 224 468 193 c 0,41,42
 468 154 468 154 454.5 123.5 c 128,-1,43
 441 93 441 93 416 71 c 128,-1,44
 391 49 391 49 357 35.5 c 128,-1,45
 323 22 323 22 281 18 c 1,46,-1
 255 -97 l 1,47,-1
 182 -97 l 1,48,-1
 210 19 l 1,49,50
 164 21 164 21 125 35 c 128,-1,51
 86 49 86 49 70 60 c 1,52,-1
 110 126 l 1,53,54
 126 116 126 116 159 102 c 128,-1,55
 192 88 192 88 244 88 c 0,0,1
EndSplineSet
EndChar

StartChar: percent
Encoding: 37 37 8
Width: 500
Flags: W
LayerCount: 2
Fore
SplineSet
77 0 m 1,0,-1
 5 0 l 1,1,-1
 532 619 l 1,2,-1
 604 619 l 1,3,-1
 77 0 l 1,0,-1
99 427 m 0,4,5
 99 457 99 457 106.5 493 c 128,-1,6
 114 529 114 529 131 559.5 c 128,-1,7
 148 590 148 590 174.5 611 c 128,-1,8
 201 632 201 632 240 632 c 0,9,10
 326 632 326 632 326 529 c 0,11,12
 326 479 326 479 314.5 440.5 c 128,-1,13
 303 402 303 402 283.5 375.5 c 128,-1,14
 264 349 264 349 239 335 c 128,-1,15
 214 321 214 321 186 321 c 0,16,17
 144 321 144 321 121.5 348 c 128,-1,18
 99 375 99 375 99 427 c 0,4,5
195 374 m 0,19,20
 214 374 214 374 227 391.5 c 128,-1,21
 240 409 240 409 248.5 432.5 c 128,-1,22
 257 456 257 456 260.5 481 c 128,-1,23
 264 506 264 506 264 521 c 0,24,25
 264 547 264 547 256 563.5 c 128,-1,26
 248 580 248 580 231 580 c 0,27,28
 218 580 218 580 205.5 568.5 c 128,-1,29
 193 557 193 557 183 537 c 128,-1,30
 173 517 173 517 167 490.5 c 128,-1,31
 161 464 161 464 161 435 c 0,32,33
 161 407 161 407 169 390.5 c 128,-1,34
 177 374 177 374 195 374 c 0,19,20
283 92 m 0,35,36
 283 122 283 122 290.5 158 c 128,-1,37
 298 194 298 194 315 224.5 c 128,-1,38
 332 255 332 255 358.5 276 c 128,-1,39
 385 297 385 297 424 297 c 0,40,41
 510 297 510 297 510 194 c 0,42,43
 510 144 510 144 498.5 105.5 c 128,-1,44
 487 67 487 67 467.5 40.5 c 128,-1,45
 448 14 448 14 423 0.5 c 128,-1,46
 398 -13 398 -13 370 -13 c 0,47,48
 328 -13 328 -13 305.5 13.5 c 128,-1,49
 283 40 283 40 283 92 c 0,35,36
379 39 m 0,50,51
 398 39 398 39 411 56.5 c 128,-1,52
 424 74 424 74 432.5 97.5 c 128,-1,53
 441 121 441 121 444.5 146 c 128,-1,54
 448 171 448 171 448 186 c 0,55,56
 448 212 448 212 440 228.5 c 128,-1,57
 432 245 432 245 415 245 c 0,58,59
 402 245 402 245 389.5 233.5 c 128,-1,60
 377 222 377 222 367 202 c 128,-1,61
 357 182 357 182 351 155.5 c 128,-1,62
 345 129 345 129 345 100 c 0,63,64
 345 72 345 72 353 55.5 c 128,-1,65
 361 39 361 39 379 39 c 0,50,51
EndSplineSet
EndChar

StartChar: ampersand
Encoding: 38 38 9
Width: 500
Flags: W
LayerCount: 2
Fore
SplineSet
322 282 m 2,0,1
 334 262 334 262 346.5 242.5 c 128,-1,2
 359 223 359 223 372 201 c 1,3,4
 400 256 400 256 421 333 c 1,5,-1
 491 324 l 1,6,7
 474 265 474 265 453 218 c 128,-1,8
 432 171 432 171 409 134 c 1,9,10
 423 105 423 105 435 73 c 128,-1,11
 447 41 447 41 458 0 c 1,12,-1
 372 0 l 1,13,14
 364 34 364 34 354 66 c 1,15,16
 314 27 314 27 271.5 9.5 c 128,-1,17
 229 -8 229 -8 186 -8 c 0,18,19
 157 -8 157 -8 133.5 2 c 128,-1,20
 110 12 110 12 93 30 c 128,-1,21
 76 48 76 48 66.5 72 c 128,-1,22
 57 96 57 96 57 123 c 0,23,24
 57 147 57 147 63.5 173.5 c 128,-1,25
 70 200 70 200 84.5 226 c 128,-1,26
 99 252 99 252 123.5 277 c 128,-1,27
 148 302 148 302 184 325 c 2,28,-1
 204 338 l 1,29,30
 189 366 189 366 180 393 c 128,-1,31
 171 420 171 420 171 447 c 0,32,33
 171 491 171 491 186 525.5 c 128,-1,34
 201 560 201 560 226.5 584 c 128,-1,35
 252 608 252 608 285.5 620.5 c 128,-1,36
 319 633 319 633 355 633 c 0,37,38
 377 633 377 633 397 626.5 c 128,-1,39
 417 620 417 620 432 607.5 c 128,-1,40
 447 595 447 595 455.5 575.5 c 128,-1,41
 464 556 464 556 464 530 c 0,42,43
 464 506 464 506 456 479.5 c 128,-1,44
 448 453 448 453 430 426.5 c 128,-1,45
 412 400 412 400 382 374 c 128,-1,46
 352 348 352 348 309 326 c 2,47,-1
 298 321 l 1,48,-1
 322 282 l 2,0,1
142 135 m 0,49,50
 142 103 142 103 159 82 c 128,-1,51
 176 61 176 61 212 61 c 0,52,53
 240 61 240 61 269 77.5 c 128,-1,54
 298 94 298 94 327 129 c 1,55,56
 305 174 305 174 280.5 212.5 c 128,-1,57
 256 251 256 251 234 287 c 1,58,-1
 225 281 l 2,59,60
 199 265 199 265 183 248 c 128,-1,61
 167 231 167 231 158 213 c 128,-1,62
 149 195 149 195 145.5 175.5 c 128,-1,63
 142 156 142 156 142 135 c 0,49,50
285 379 m 2,64,65
 310 392 310 392 329.5 409.5 c 128,-1,66
 349 427 349 427 362 446.5 c 128,-1,67
 375 466 375 466 381.5 485.5 c 128,-1,68
 388 505 388 505 388 522 c 0,69,70
 388 545 388 545 372.5 556.5 c 128,-1,71
 357 568 357 568 337 568 c 0,72,73
 321 568 321 568 305 561 c 128,-1,74
 289 554 289 554 276.5 539 c 128,-1,75
 264 524 264 524 256.5 501.5 c 128,-1,76
 249 479 249 479 249 448 c 0,77,78
 249 428 249 428 253.5 410.5 c 128,-1,79
 258 393 258 393 269 371 c 1,80,-1
 285 379 l 2,64,65
EndSplineSet
EndChar

StartChar: quotesingle
Encoding: 39 39 10
Width: 500
Flags: W
LayerCount: 2
Fore
SplineSet
432 679 m 1,0,-1
 421 634 l 2,1,2
 416 612 416 612 408 583.5 c 128,-1,3
 400 555 400 555 390 524.5 c 128,-1,4
 380 494 380 494 370 464.5 c 128,-1,5
 360 435 360 435 351 412 c 1,6,-1
 300 412 l 1,7,8
 302 435 302 435 305.5 464.5 c 128,-1,9
 309 494 309 494 314 524.5 c 128,-1,10
 319 555 319 555 324.5 584 c 128,-1,11
 330 613 330 613 336 635 c 2,12,-1
 346 679 l 1,13,-1
 432 679 l 1,0,-1
EndSplineSet
EndChar

StartChar: parenleft
Encoding: 40 40 11
Width: 500
Flags: W
LayerCount: 2
Fore
SplineSet
523 637 m 1,0,1
 458 596 458 596 403.5 542 c 128,-1,2
 349 488 349 488 309 426.5 c 128,-1,3
 269 365 269 365 247 298 c 128,-1,4
 225 231 225 231 225 162 c 0,5,6
 225 90 225 90 251 20 c 128,-1,7
 277 -50 277 -50 337 -113 c 1,8,-1
 283 -167 l 1,9,10
 211 -95 211 -95 178.5 -12 c 128,-1,11
 146 71 146 71 146 157 c 0,12,13
 146 236 146 236 171 313.5 c 128,-1,14
 196 391 196 391 241.5 462 c 128,-1,15
 287 533 287 533 350.5 594.5 c 128,-1,16
 414 656 414 656 491 701 c 1,17,-1
 523 637 l 1,0,1
EndSplineSet
Substitution2: "'case' Case-Sensitive Forms lookup 17 subtable" Parenleft
EndChar

StartChar: parenright
Encoding: 41 41 12
Width: 500
Flags: W
LayerCount: 2
Fore
SplineSet
56 -103 m 1,0,1
 121 -62 121 -62 176 -8 c 128,-1,2
 231 46 231 46 270.5 107.5 c 128,-1,3
 310 169 310 169 332.5 236 c 128,-1,4
 355 303 355 303 355 372 c 0,5,6
 355 444 355 444 328.5 514 c 128,-1,7
 302 584 302 584 243 647 c 1,8,-1
 296 701 l 1,9,10
 368 629 368 629 401 546 c 128,-1,11
 434 463 434 463 434 377 c 0,12,13
 434 298 434 298 409 220.5 c 128,-1,14
 384 143 384 143 338.5 72 c 128,-1,15
 293 1 293 1 229.5 -60.5 c 128,-1,16
 166 -122 166 -122 88 -167 c 1,17,-1
 56 -103 l 1,0,1
EndSplineSet
Substitution2: "'case' Case-Sensitive Forms lookup 17 subtable" Parenright
EndChar

StartChar: asterisk
Encoding: 42 42 13
Width: 500
Flags: W
LayerCount: 2
Fore
SplineSet
367 417 m 1,0,1
 395 392 395 392 423.5 364.5 c 128,-1,2
 452 337 452 337 472 306 c 2,3,-1
 476 301 l 1,4,-1
 406 250 l 1,5,-1
 402 256 l 2,6,7
 380 286 380 286 363 321.5 c 128,-1,8
 346 357 346 357 331 390 c 1,9,10
 316 357 316 357 298.5 321.5 c 128,-1,11
 281 286 281 286 258 256 c 2,12,-1
 254 251 l 1,13,-1
 185 301 l 1,14,-1
 189 307 l 2,15,16
 212 338 212 338 239.5 365 c 128,-1,17
 267 392 267 392 295 417 c 1,18,19
 258 422 258 422 219 427.5 c 128,-1,20
 180 433 180 433 145 445 c 2,21,-1
 138 447 l 1,22,-1
 164 529 l 1,23,-1
 171 526 l 2,24,25
 206 512 206 512 241.5 495 c 128,-1,26
 277 478 277 478 309 460 c 1,27,28
 301 496 301 496 294.5 535 c 128,-1,29
 288 574 288 574 288 612 c 2,30,-1
 288 619 l 1,31,-1
 374 619 l 1,32,-1
 374 612 l 2,33,34
 374 574 374 574 367.5 535 c 128,-1,35
 361 496 361 496 354 460 c 1,36,37
 386 479 386 479 421 495.5 c 128,-1,38
 456 512 456 512 490 525 c 2,39,-1
 497 528 l 1,40,-1
 523 446 l 1,41,-1
 517 444 l 2,42,43
 482 433 482 433 443 427 c 128,-1,44
 404 421 404 421 367 417 c 1,0,1
EndSplineSet
EndChar

StartChar: plus
Encoding: 43 43 14
Width: 500
Flags: W
LayerCount: 2
Fore
SplineSet
388 482 m 1,0,-1
 343 298 l 1,1,-1
 504 298 l 1,2,-1
 487 228 l 1,3,-1
 326 228 l 1,4,-1
 281 43 l 1,5,-1
 206 43 l 1,6,-1
 250 228 l 1,7,-1
 86 228 l 1,8,-1
 103 298 l 1,9,-1
 267 298 l 1,10,-1
 312 482 l 1,11,-1
 388 482 l 1,0,-1
EndSplineSet
EndChar

StartChar: comma
Encoding: 44 44 15
Width: 500
Flags: W
LayerCount: 2
Fore
SplineSet
230 -8 m 1,0,1
 202 -4 202 -4 188 15.5 c 128,-1,2
 174 35 174 35 174 59 c 0,3,4
 174 93 174 93 195.5 116 c 128,-1,5
 217 139 217 139 255 139 c 0,6,7
 288 139 288 139 305.5 115.5 c 128,-1,8
 323 92 323 92 323 57 c 0,9,10
 323 28 323 28 311 -4 c 128,-1,11
 299 -36 299 -36 273.5 -65 c 128,-1,12
 248 -94 248 -94 208 -115.5 c 128,-1,13
 168 -137 168 -137 113 -144 c 1,14,-1
 105 -79 l 1,15,16
 122 -78 122 -78 141.5 -73 c 128,-1,17
 161 -68 161 -68 178.5 -59.5 c 128,-1,18
 196 -51 196 -51 210 -38.5 c 128,-1,19
 224 -26 224 -26 230 -8 c 1,0,1
EndSplineSet
EndChar

StartChar: hyphen
Encoding: 45 45 16
Width: 500
Flags: W
LayerCount: 2
Fore
SplineSet
195 293 m 1,0,-1
 414 293 l 1,1,-1
 396 215 l 1,2,-1
 176 215 l 1,3,-1
 195 293 l 1,0,-1
EndSplineSet
Substitution2: "'case' Case-Sensitive Forms lookup 17 subtable" Hyphen
EndChar

StartChar: period
Encoding: 46 46 17
Width: 500
Flags: W
LayerCount: 2
Fore
SplineSet
240 -12 m 0,0,1
 212 -12 212 -12 193 5 c 128,-1,2
 174 22 174 22 174 55 c 0,3,4
 174 97 174 97 197.5 119 c 128,-1,5
 221 141 221 141 253 141 c 0,6,7
 281 141 281 141 301 123.5 c 128,-1,8
 321 106 321 106 321 71 c 0,9,10
 321 52 321 52 314 37 c 128,-1,11
 307 22 307 22 295.5 11 c 128,-1,12
 284 0 284 0 269.5 -6 c 128,-1,13
 255 -12 255 -12 240 -12 c 0,0,1
EndSplineSet
EndChar

StartChar: slash
Encoding: 47 47 18
Width: 500
Flags: W
LayerCount: 2
Fore
SplineSet
67 -165 m 1,0,-1
 -17 -165 l 1,1,-1
 470 699 l 1,2,-1
 553 699 l 1,3,-1
 67 -165 l 1,0,-1
EndSplineSet
Substitution2: "'case' Case-Sensitive Forms lookup 17 subtable" Slash
Substitution2: "'ss02' Style Set 2 lookup 14 subtable" fraction
Substitution2: "'frac' Diagonal Fractions lookup 12 subtable" fraction
EndChar

StartChar: zero
Encoding: 48 48 19
Width: 500
Flags: W
LayerCount: 2
Fore
SplineSet
524 447 m 0,0,1
 524 403 524 403 516 352 c 128,-1,2
 508 301 508 301 492 249.5 c 128,-1,3
 476 198 476 198 452 151 c 128,-1,4
 428 104 428 104 395.5 67.5 c 128,-1,5
 363 31 363 31 322 9 c 128,-1,6
 281 -13 281 -13 232 -13 c 0,7,8
 156 -13 156 -13 120 33.5 c 128,-1,9
 84 80 84 80 84 172 c 0,10,11
 84 216 84 216 92 267.5 c 128,-1,12
 100 319 100 319 116 370 c 128,-1,13
 132 421 132 421 156 468.5 c 128,-1,14
 180 516 180 516 212.5 552.5 c 128,-1,15
 245 589 245 589 285.5 611 c 128,-1,16
 326 633 326 633 376 633 c 0,17,18
 452 633 452 633 488 586.5 c 128,-1,19
 524 540 524 540 524 447 c 0,0,1
440 437 m 0,20,21
 440 504 440 504 424 532 c 128,-1,22
 408 560 408 560 366 560 c 256,23,24
 324 560 324 560 288 523.5 c 128,-1,25
 252 487 252 487 225 431 c 128,-1,26
 198 375 198 375 183 309 c 128,-1,27
 168 243 168 243 168 183 c 0,28,29
 168 116 168 116 184.5 88 c 128,-1,30
 201 60 201 60 242 60 c 0,31,32
 284 60 284 60 320.5 96.5 c 128,-1,33
 357 133 357 133 383.5 188.5 c 128,-1,34
 410 244 410 244 425 310.5 c 128,-1,35
 440 377 440 377 440 437 c 0,20,21
300 256 m 0,36,37
 277 256 277 256 261.5 270 c 128,-1,38
 246 284 246 284 246 313 c 0,39,40
 246 348 246 348 265.5 367.5 c 128,-1,41
 285 387 285 387 311 387 c 0,42,43
 334 387 334 387 350.5 371.5 c 128,-1,44
 367 356 367 356 367 327 c 0,45,46
 367 295 367 295 346.5 275.5 c 128,-1,47
 326 256 326 256 300 256 c 0,36,37
EndSplineSet
Substitution2: "'ss02' Style Set 2 lookup 15 subtable" zerosuperior
Substitution2: "'sinf' Scientific Inferiors lookup 11 subtable" zero.sinf
Substitution2: "'subs' Subscript lookup 10 subtable" zero.sinf
Substitution2: "'sups' Superscript lookup 9 subtable" zero.sups
Substitution2: "'dnom' Denominators lookup 8 subtable" zeroinferior
Substitution2: "'numr' Numerators lookup 6 subtable" zerosuperior
EndChar

StartChar: one
Encoding: 49 49 20
Width: 500
Flags: W
LayerCount: 2
Fore
SplineSet
181 491 m 1,0,1
 237 511 237 511 292 541.5 c 128,-1,2
 347 572 347 572 398 619 c 1,3,-1
 457 619 l 1,4,-1
 325 70 l 1,5,-1
 441 70 l 1,6,-1
 424 0 l 1,7,-1
 92 0 l 1,8,-1
 109 70 l 1,9,-1
 243 70 l 1,10,-1
 345 496 l 1,11,12
 333 487 333 487 315.5 476.5 c 128,-1,13
 298 466 298 466 278 456 c 128,-1,14
 258 446 258 446 236.5 437 c 128,-1,15
 215 428 215 428 195 422 c 1,16,-1
 181 491 l 1,0,1
EndSplineSet
Substitution2: "'ss02' Style Set 2 lookup 15 subtable" onesuperior
Substitution2: "'sinf' Scientific Inferiors lookup 11 subtable" one.sinf
Substitution2: "'subs' Subscript lookup 10 subtable" one.sinf
Substitution2: "'sups' Superscript lookup 9 subtable" one.sups
Substitution2: "'dnom' Denominators lookup 8 subtable" oneinferior
Substitution2: "'numr' Numerators lookup 6 subtable" onesuperior
EndChar

StartChar: two
Encoding: 50 50 21
Width: 500
Flags: W
LayerCount: 2
Fore
SplineSet
524 493 m 0,0,1
 524 446 524 446 509 410 c 128,-1,2
 494 374 494 374 468.5 344 c 128,-1,3
 443 314 443 314 408.5 287.5 c 128,-1,4
 374 261 374 261 336 233 c 0,5,6
 313 216 313 216 288.5 196.5 c 128,-1,7
 264 177 264 177 241.5 156 c 128,-1,8
 219 135 219 135 202 113 c 128,-1,9
 185 91 185 91 178 70 c 1,10,-1
 447 70 l 1,11,-1
 430 0 l 1,12,-1
 69 0 l 1,13,14
 76 48 76 48 94 86 c 128,-1,15
 112 124 112 124 137.5 156 c 128,-1,16
 163 188 163 188 194 215 c 128,-1,17
 225 242 225 242 258 267 c 0,18,19
 293 293 293 293 325.5 317.5 c 128,-1,20
 358 342 358 342 383 367.5 c 128,-1,21
 408 393 408 393 423 420.5 c 128,-1,22
 438 448 438 448 438 481 c 0,23,24
 438 518 438 518 418 539.5 c 128,-1,25
 398 561 398 561 353 561 c 0,26,27
 328 561 328 561 305.5 554.5 c 128,-1,28
 283 548 283 548 265 539 c 128,-1,29
 247 530 247 530 233.5 520 c 128,-1,30
 220 510 220 510 212 502 c 1,31,-1
 183 566 l 1,32,33
 195 578 195 578 214 589.5 c 128,-1,34
 233 601 233 601 256.5 611 c 128,-1,35
 280 621 280 621 307 627 c 128,-1,36
 334 633 334 633 363 633 c 0,37,38
 406 633 406 633 437 621 c 128,-1,39
 468 609 468 609 487 589.5 c 128,-1,40
 506 570 506 570 515 544.5 c 128,-1,41
 524 519 524 519 524 493 c 0,0,1
EndSplineSet
Substitution2: "'ss02' Style Set 2 lookup 15 subtable" twosuperior
Substitution2: "'sinf' Scientific Inferiors lookup 11 subtable" two.sinf
Substitution2: "'subs' Subscript lookup 10 subtable" two.sinf
Substitution2: "'sups' Superscript lookup 9 subtable" two.sups
Substitution2: "'dnom' Denominators lookup 8 subtable" twoinferior
Substitution2: "'numr' Numerators lookup 6 subtable" twosuperior
EndChar

StartChar: three
Encoding: 51 51 22
Width: 500
Flags: W
LayerCount: 2
Fore
SplineSet
221 60 m 0,0,1
 257 60 257 60 287.5 68.5 c 128,-1,2
 318 77 318 77 340.5 94 c 128,-1,3
 363 111 363 111 375.5 136.5 c 128,-1,4
 388 162 388 162 388 196 c 0,5,6
 388 249 388 249 349.5 272.5 c 128,-1,7
 311 296 311 296 246 296 c 2,8,-1
 228 296 l 1,9,-1
 244 363 l 1,10,-1
 271 363 l 2,11,12
 300 363 300 363 328.5 371 c 128,-1,13
 357 379 357 379 379.5 394.5 c 128,-1,14
 402 410 402 410 416 433 c 128,-1,15
 430 456 430 456 430 486 c 0,16,17
 430 524 430 524 407 543 c 128,-1,18
 384 562 384 562 342 562 c 0,19,20
 304 562 304 562 273 549.5 c 128,-1,21
 242 537 242 537 220 523 c 1,22,-1
 200 588 l 1,23,24
 212 596 212 596 229 604 c 128,-1,25
 246 612 246 612 266.5 618.5 c 128,-1,26
 287 625 287 625 309.5 629 c 128,-1,27
 332 633 332 633 355 633 c 0,28,29
 397 633 397 633 427 622.5 c 128,-1,30
 457 612 457 612 476.5 593 c 128,-1,31
 496 574 496 574 505 549 c 128,-1,32
 514 524 514 524 514 495 c 0,33,34
 514 435 514 435 480 394 c 128,-1,35
 446 353 446 353 387 330 c 1,36,37
 402 324 402 324 417.5 312.5 c 128,-1,38
 433 301 433 301 445 284.5 c 128,-1,39
 457 268 457 268 464.5 246 c 128,-1,40
 472 224 472 224 472 197 c 0,41,42
 472 150 472 150 455.5 111 c 128,-1,43
 439 72 439 72 407 44.5 c 128,-1,44
 375 17 375 17 327.5 2 c 128,-1,45
 280 -13 280 -13 218 -13 c 0,46,47
 187 -13 187 -13 160.5 -9 c 128,-1,48
 134 -5 134 -5 113.5 1 c 128,-1,49
 93 7 93 7 79 13 c 128,-1,50
 65 19 65 19 60 23 c 1,51,-1
 91 94 l 1,52,53
 104 86 104 86 136 73 c 128,-1,54
 168 60 168 60 221 60 c 0,0,1
EndSplineSet
Substitution2: "'ss02' Style Set 2 lookup 15 subtable" threesuperior
Substitution2: "'sinf' Scientific Inferiors lookup 11 subtable" three.sinf
Substitution2: "'subs' Subscript lookup 10 subtable" three.sinf
Substitution2: "'sups' Superscript lookup 9 subtable" three.sups
Substitution2: "'dnom' Denominators lookup 8 subtable" threeinferior
Substitution2: "'numr' Numerators lookup 6 subtable" threesuperior
EndChar

StartChar: four
Encoding: 52 52 23
Width: 500
Flags: W
LayerCount: 2
Fore
SplineSet
400 158 m 1,0,-1
 363 0 l 1,1,-1
 282 0 l 1,2,-1
 320 158 l 1,3,-1
 48 158 l 1,4,-1
 62 214 l 1,5,6
 87 256 87 256 127.5 310 c 128,-1,7
 168 364 168 364 217.5 419.5 c 128,-1,8
 267 475 267 475 322 527 c 128,-1,9
 377 579 377 579 430 619 c 1,10,-1
 511 619 l 1,11,-1
 416 226 l 1,12,-1
 488 226 l 1,13,-1
 472 158 l 1,14,-1
 400 158 l 1,0,-1
406 515 m 1,15,16
 374 488 374 488 339.5 454.5 c 128,-1,17
 305 421 305 421 271 383.5 c 128,-1,18
 237 346 237 346 205.5 306 c 128,-1,19
 174 266 174 266 149 226 c 1,20,-1
 337 226 l 1,21,-1
 406 515 l 1,15,16
EndSplineSet
Substitution2: "'ss02' Style Set 2 lookup 15 subtable" foursuperior
Substitution2: "'sinf' Scientific Inferiors lookup 11 subtable" four.sinf
Substitution2: "'subs' Subscript lookup 10 subtable" four.sinf
Substitution2: "'sups' Superscript lookup 9 subtable" four.sups
Substitution2: "'dnom' Denominators lookup 8 subtable" fourinferior
Substitution2: "'numr' Numerators lookup 6 subtable" foursuperior
EndChar

StartChar: five
Encoding: 53 53 24
Width: 500
Flags: W
LayerCount: 2
Fore
SplineSet
320 549 m 1,0,1
 314 531 314 531 306.5 508 c 128,-1,2
 299 485 299 485 291 461.5 c 128,-1,3
 283 438 283 438 275.5 416.5 c 128,-1,4
 268 395 268 395 264 380 c 1,5,6
 366 367 366 367 417.5 325 c 128,-1,7
 469 283 469 283 469 205 c 0,8,9
 469 159 469 159 453.5 119.5 c 128,-1,10
 438 80 438 80 406 50.5 c 128,-1,11
 374 21 374 21 324.5 4 c 128,-1,12
 275 -13 275 -13 207 -13 c 0,13,14
 178 -13 178 -13 153 -8.5 c 128,-1,15
 128 -4 128 -4 107.5 1.5 c 128,-1,16
 87 7 87 7 73.5 12.5 c 128,-1,17
 60 18 60 18 56 21 c 1,18,-1
 88 91 l 1,19,20
 101 83 101 83 131.5 71.5 c 128,-1,21
 162 60 162 60 212 60 c 0,22,23
 248 60 248 60 280 69.5 c 128,-1,24
 312 79 312 79 335 96.5 c 128,-1,25
 358 114 358 114 371.5 139.5 c 128,-1,26
 385 165 385 165 385 197 c 0,27,28
 385 239 385 239 362.5 262.5 c 128,-1,29
 340 286 340 286 307 298 c 128,-1,30
 274 310 274 310 235.5 313.5 c 128,-1,31
 197 317 197 317 165 319 c 1,32,33
 180 360 180 360 193 397.5 c 128,-1,34
 206 435 206 435 218 471 c 128,-1,35
 230 507 230 507 241 543.5 c 128,-1,36
 252 580 252 580 262 619 c 1,37,-1
 551 619 l 1,38,-1
 535 549 l 1,39,-1
 320 549 l 1,0,1
EndSplineSet
Substitution2: "'ss02' Style Set 2 lookup 15 subtable" fivesuperior
Substitution2: "'sinf' Scientific Inferiors lookup 11 subtable" five.sinf
Substitution2: "'subs' Subscript lookup 10 subtable" five.sinf
Substitution2: "'sups' Superscript lookup 9 subtable" five.sups
Substitution2: "'dnom' Denominators lookup 8 subtable" fiveinferior
Substitution2: "'numr' Numerators lookup 6 subtable" fivesuperior
EndChar

StartChar: six
Encoding: 54 54 25
Width: 500
Flags: W
LayerCount: 2
Fore
SplineSet
196 284 m 1,0,1
 187 255 187 255 182.5 225.5 c 128,-1,2
 178 196 178 196 178 172 c 0,3,4
 178 116 178 116 198 85 c 128,-1,5
 218 54 218 54 269 54 c 0,6,7
 304 54 304 54 331 69 c 128,-1,8
 358 84 358 84 376 108 c 128,-1,9
 394 132 394 132 403.5 162 c 128,-1,10
 413 192 413 192 413 223 c 0,11,12
 413 266 413 266 392 288.5 c 128,-1,13
 371 311 371 311 322 311 c 0,14,15
 290 311 290 311 259 305.5 c 128,-1,16
 228 300 228 300 196 284 c 1,0,1
96 165 m 0,17,18
 96 259 96 259 127.5 342 c 128,-1,19
 159 425 159 425 217 487 c 128,-1,20
 275 549 275 549 356.5 585.5 c 128,-1,21
 438 622 438 622 538 622 c 2,22,-1
 550 622 l 1,23,-1
 540 551 l 1,24,-1
 536 551 l 2,25,26
 473 551 473 551 421.5 534.5 c 128,-1,27
 370 518 370 518 330 490.5 c 128,-1,28
 290 463 290 463 261.5 426.5 c 128,-1,29
 233 390 233 390 217 350 c 1,30,31
 246 364 246 364 279 372 c 128,-1,32
 312 380 312 380 342 380 c 0,33,34
 382 380 382 380 411 368 c 128,-1,35
 440 356 440 356 459 335.5 c 128,-1,36
 478 315 478 315 486.5 288.5 c 128,-1,37
 495 262 495 262 495 232 c 0,38,39
 495 187 495 187 481.5 143.5 c 128,-1,40
 468 100 468 100 439 65 c 128,-1,41
 410 30 410 30 365 8.5 c 128,-1,42
 320 -13 320 -13 257 -13 c 0,43,44
 179 -13 179 -13 137.5 34.5 c 128,-1,45
 96 82 96 82 96 165 c 0,17,18
EndSplineSet
Substitution2: "'ss02' Style Set 2 lookup 15 subtable" sixsuperior
Substitution2: "'sinf' Scientific Inferiors lookup 11 subtable" six.sinf
Substitution2: "'subs' Subscript lookup 10 subtable" six.sinf
Substitution2: "'sups' Superscript lookup 9 subtable" six.sups
Substitution2: "'dnom' Denominators lookup 8 subtable" sixinferior
Substitution2: "'numr' Numerators lookup 6 subtable" sixsuperior
EndChar

StartChar: seven
Encoding: 55 55 26
Width: 500
Flags: W
LayerCount: 2
Fore
SplineSet
139 0 m 1,0,1
 159 71 159 71 197.5 150 c 128,-1,2
 236 229 236 229 283.5 304 c 128,-1,3
 331 379 331 379 382.5 443.5 c 128,-1,4
 434 508 434 508 480 549 c 1,5,-1
 186 549 l 1,6,-1
 202 619 l 1,7,-1
 590 619 l 1,8,-1
 573 547 l 1,9,10
 535 514 535 514 485 455.5 c 128,-1,11
 435 397 435 397 385.5 323.5 c 128,-1,12
 336 250 336 250 293.5 166.5 c 128,-1,13
 251 83 251 83 227 0 c 1,14,-1
 139 0 l 1,0,1
EndSplineSet
Substitution2: "'ss02' Style Set 2 lookup 15 subtable" sevensuperior
Substitution2: "'sinf' Scientific Inferiors lookup 11 subtable" seven.sinf
Substitution2: "'subs' Subscript lookup 10 subtable" seven.sinf
Substitution2: "'sups' Superscript lookup 9 subtable" seven.sups
Substitution2: "'dnom' Denominators lookup 8 subtable" seveninferior
Substitution2: "'numr' Numerators lookup 6 subtable" sevensuperior
EndChar

StartChar: eight
Encoding: 56 56 27
Width: 500
Flags: W
LayerCount: 2
Fore
SplineSet
407 312 m 1,0,1
 437 291 437 291 458.5 261.5 c 128,-1,2
 480 232 480 232 480 184 c 0,3,4
 480 145 480 145 465 109 c 128,-1,5
 450 73 450 73 420.5 46 c 128,-1,6
 391 19 391 19 346.5 3 c 128,-1,7
 302 -13 302 -13 243 -13 c 0,8,9
 198 -13 198 -13 167 -0.5 c 128,-1,10
 136 12 136 12 116.5 31.5 c 128,-1,11
 97 51 97 51 88 76 c 128,-1,12
 79 101 79 101 79 126 c 0,13,14
 79 191 79 191 116.5 241 c 128,-1,15
 154 291 154 291 221 323 c 1,16,17
 167 366 167 366 167 434 c 0,18,19
 167 474 167 474 181.5 510 c 128,-1,20
 196 546 196 546 224 573.5 c 128,-1,21
 252 601 252 601 291.5 617 c 128,-1,22
 331 633 331 633 381 633 c 0,23,24
 423 633 423 633 452.5 621 c 128,-1,25
 482 609 482 609 501 590 c 128,-1,26
 520 571 520 571 529 546 c 128,-1,27
 538 521 538 521 538 496 c 0,28,29
 538 434 538 434 503 388 c 128,-1,30
 468 342 468 342 407 312 c 1,0,1
283 292 m 1,31,32
 259 281 259 281 236.5 265 c 128,-1,33
 214 249 214 249 197.5 229.5 c 128,-1,34
 181 210 181 210 171 187 c 128,-1,35
 161 164 161 164 161 140 c 0,36,37
 161 123 161 123 165.5 107.5 c 128,-1,38
 170 92 170 92 180.5 80 c 128,-1,39
 191 68 191 68 209 61 c 128,-1,40
 227 54 227 54 254 54 c 0,41,42
 284 54 284 54 310 63 c 128,-1,43
 336 72 336 72 355.5 88 c 128,-1,44
 375 104 375 104 386 126.5 c 128,-1,45
 397 149 397 149 397 176 c 0,46,47
 397 220 397 220 367 246.5 c 128,-1,48
 337 273 337 273 283 292 c 1,31,32
342 340 m 1,49,50
 364 351 364 351 384.5 365.5 c 128,-1,51
 405 380 405 380 421 398 c 128,-1,52
 437 416 437 416 446 438 c 128,-1,53
 455 460 455 460 455 487 c 0,54,55
 455 500 455 500 451.5 514 c 128,-1,56
 448 528 448 528 438.5 539.5 c 128,-1,57
 429 551 429 551 412.5 558 c 128,-1,58
 396 565 396 565 371 565 c 0,59,60
 345 565 345 565 322.5 556 c 128,-1,61
 300 547 300 547 283.5 530.5 c 128,-1,62
 267 514 267 514 257.5 491.5 c 128,-1,63
 248 469 248 469 248 442 c 0,64,65
 248 405 248 405 270.5 381 c 128,-1,66
 293 357 293 357 342 340 c 1,49,50
EndSplineSet
Substitution2: "'ss02' Style Set 2 lookup 15 subtable" eightsuperior
Substitution2: "'sinf' Scientific Inferiors lookup 11 subtable" eight.sinf
Substitution2: "'subs' Subscript lookup 10 subtable" eight.sinf
Substitution2: "'sups' Superscript lookup 9 subtable" eight.sups
Substitution2: "'dnom' Denominators lookup 8 subtable" eightinferior
Substitution2: "'numr' Numerators lookup 6 subtable" eightsuperior
EndChar

StartChar: nine
Encoding: 57 57 28
Width: 500
Flags: W
LayerCount: 2
Fore
SplineSet
289 243 m 0,0,1
 249 243 249 243 220 254.5 c 128,-1,2
 191 266 191 266 172.5 286 c 128,-1,3
 154 306 154 306 145 332.5 c 128,-1,4
 136 359 136 359 136 389 c 0,5,6
 136 434 136 434 150 477.5 c 128,-1,7
 164 521 164 521 192.5 555.5 c 128,-1,8
 221 590 221 590 265 611 c 128,-1,9
 309 632 309 632 368 632 c 0,10,11
 451 632 451 632 493 584 c 128,-1,12
 535 536 535 536 535 454 c 0,13,14
 535 358 535 358 505 275 c 128,-1,15
 475 192 475 192 418.5 130.5 c 128,-1,16
 362 69 362 69 281 33.5 c 128,-1,17
 200 -2 200 -2 97 -2 c 0,18,19
 92 -2 92 -2 87.5 -2 c 128,-1,20
 83 -2 83 -2 74 -1 c 1,21,-1
 89 70 l 1,22,23
 92 69 92 69 97.5 69 c 128,-1,24
 103 69 103 69 105 69 c 0,25,26
 168 69 168 69 217.5 84.5 c 128,-1,27
 267 100 267 100 304.5 127.5 c 128,-1,28
 342 155 342 155 369 192 c 128,-1,29
 396 229 396 229 414 271 c 1,30,31
 385 257 385 257 352.5 250 c 128,-1,32
 320 243 320 243 289 243 c 0,0,1
309 312 m 0,33,34
 341 312 341 312 372.5 317.5 c 128,-1,35
 404 323 404 323 436 338 c 1,36,37
 453 394 453 394 453 455 c 0,38,39
 453 504 453 504 431.5 534 c 128,-1,40
 410 564 410 564 362 564 c 0,41,42
 327 564 327 564 300 549.5 c 128,-1,43
 273 535 273 535 255 511.5 c 128,-1,44
 237 488 237 488 227.5 458.5 c 128,-1,45
 218 429 218 429 218 398 c 0,46,47
 218 355 218 355 239.5 333.5 c 128,-1,48
 261 312 261 312 309 312 c 0,33,34
EndSplineSet
Substitution2: "'ss02' Style Set 2 lookup 15 subtable" ninesuperior
Substitution2: "'sinf' Scientific Inferiors lookup 11 subtable" nine.sinf
Substitution2: "'subs' Subscript lookup 10 subtable" nine.sinf
Substitution2: "'sups' Superscript lookup 9 subtable" nine.sups
Substitution2: "'dnom' Denominators lookup 8 subtable" nineinferior
Substitution2: "'numr' Numerators lookup 6 subtable" ninesuperior
EndChar

StartChar: less
Encoding: 60 60 31
Width: 500
Flags: W
LayerCount: 2
Fore
SplineSet
417 55 m 1,0,-1
 78 219 l 1,1,-1
 95 290 l 1,2,-1
 513 454 l 1,3,-1
 518 380 l 1,4,-1
 177 250 l 1,5,-1
 455 121 l 1,6,-1
 417 55 l 1,0,-1
EndSplineSet
EndChar

StartChar: equal
Encoding: 61 61 32
Width: 500
Flags: W
LayerCount: 2
Fore
SplineSet
126 393 m 1,0,-1
 527 393 l 1,1,-1
 510 322 l 1,2,-1
 109 322 l 1,3,-1
 126 393 l 1,0,-1
80 203 m 1,4,-1
 481 203 l 1,5,-1
 464 132 l 1,6,-1
 63 132 l 1,7,-1
 80 203 l 1,4,-1
EndSplineSet
EndChar

StartChar: greater
Encoding: 62 62 33
Width: 500
Flags: W
LayerCount: 2
Fore
SplineSet
161 454 m 1,0,-1
 500 290 l 1,1,-1
 483 219 l 1,2,-1
 65 55 l 1,3,-1
 60 129 l 1,4,-1
 401 259 l 1,5,-1
 123 388 l 1,6,-1
 161 454 l 1,0,-1
EndSplineSet
EndChar

StartChar: question
Encoding: 63 63 34
Width: 500
Flags: W
LayerCount: 2
Fore
SplineSet
226 211 m 1,0,-1
 229 230 l 2,1,2
 234 259 234 259 251.5 283 c 128,-1,3
 269 307 269 307 292 328.5 c 128,-1,4
 315 350 315 350 340.5 369.5 c 128,-1,5
 366 389 366 389 387 409.5 c 128,-1,6
 408 430 408 430 422 452 c 128,-1,7
 436 474 436 474 436 501 c 0,8,9
 436 529 436 529 417.5 547 c 128,-1,10
 399 565 399 565 357 565 c 0,11,12
 328 565 328 565 300.5 559 c 128,-1,13
 273 553 273 553 241 538 c 1,14,-1
 232 602 l 1,15,16
 256 615 256 615 293 624 c 128,-1,17
 330 633 330 633 369 633 c 0,18,19
 397 633 397 633 424 627 c 128,-1,20
 451 621 451 621 472 607 c 128,-1,21
 493 593 493 593 505.5 569.5 c 128,-1,22
 518 546 518 546 518 512 c 0,23,24
 518 475 518 475 503.5 446.5 c 128,-1,25
 489 418 489 418 466.5 394.5 c 128,-1,26
 444 371 444 371 417 351 c 128,-1,27
 390 331 390 331 365.5 310 c 128,-1,28
 341 289 341 289 322.5 265 c 128,-1,29
 304 241 304 241 299 211 c 1,30,-1
 226 211 l 1,0,-1
222 -12 m 0,31,32
 196 -12 196 -12 179.5 3 c 128,-1,33
 163 18 163 18 163 48 c 0,34,35
 163 84 163 84 184 104 c 128,-1,36
 205 124 205 124 233 124 c 0,37,38
 259 124 259 124 276.5 108.5 c 128,-1,39
 294 93 294 93 294 63 c 0,40,41
 294 28 294 28 271.5 8 c 128,-1,42
 249 -12 249 -12 222 -12 c 0,31,32
EndSplineSet
EndChar

StartChar: at
Encoding: 64 64 35
Width: 500
Flags: W
LayerCount: 2
Fore
SplineSet
467 63 m 1,0,1
 443 53 443 53 417 48 c 128,-1,2
 391 43 391 43 367 43 c 0,3,4
 337 43 337 43 310.5 51.5 c 128,-1,5
 284 60 284 60 263.5 78 c 128,-1,6
 243 96 243 96 231 124.5 c 128,-1,7
 219 153 219 153 219 194 c 0,8,9
 219 240 219 240 232.5 282.5 c 128,-1,10
 246 325 246 325 273.5 358 c 128,-1,11
 301 391 301 391 344 410.5 c 128,-1,12
 387 430 387 430 447 430 c 0,13,14
 454 430 454 430 461.5 429.5 c 128,-1,15
 469 429 469 429 477 428 c 1,16,17
 483 453 483 453 483 477 c 0,18,19
 483 515 483 515 463.5 539.5 c 128,-1,20
 444 564 444 564 396 564 c 0,21,22
 342 564 342 564 296 525.5 c 128,-1,23
 250 487 250 487 216.5 427 c 128,-1,24
 183 367 183 367 164.5 294.5 c 128,-1,25
 146 222 146 222 146 154 c 0,26,27
 146 109 146 109 155 69 c 128,-1,28
 164 29 164 29 182.5 -0.5 c 128,-1,29
 201 -30 201 -30 230 -47.5 c 128,-1,30
 259 -65 259 -65 300 -65 c 0,31,32
 317 -65 317 -65 335.5 -62.5 c 128,-1,33
 354 -60 354 -60 375 -54 c 1,34,-1
 368 -121 l 1,35,36
 323 -133 323 -133 285 -133 c 0,37,38
 229 -133 229 -133 188 -111 c 128,-1,39
 147 -89 147 -89 120.5 -50 c 128,-1,40
 94 -11 94 -11 81.5 41.5 c 128,-1,41
 69 94 69 94 69 154 c 0,42,43
 69 208 69 208 79.5 265 c 128,-1,44
 90 322 90 322 110 375 c 128,-1,45
 130 428 130 428 159 475.5 c 128,-1,46
 188 523 188 523 225 558 c 128,-1,47
 262 593 262 593 306.5 613.5 c 128,-1,48
 351 634 351 634 402 634 c 0,49,50
 482 634 482 634 520.5 591 c 128,-1,51
 559 548 559 548 559 480 c 0,52,53
 559 445 559 445 550 408 c 2,54,-1
 467 63 l 1,0,1
460 358 m 1,55,56
 442 364 442 364 426 364 c 0,57,58
 394 364 394 364 369.5 350 c 128,-1,59
 345 336 345 336 328.5 313 c 128,-1,60
 312 290 312 290 304 259.5 c 128,-1,61
 296 229 296 229 296 195 c 0,62,63
 296 153 296 153 314.5 130.5 c 128,-1,64
 333 108 333 108 368 108 c 0,65,66
 376 108 376 108 383.5 109 c 128,-1,67
 391 110 391 110 401 113 c 1,68,-1
 460 358 l 1,55,56
EndSplineSet
Substitution2: "'case' Case-Sensitive Forms lookup 17 subtable" At
EndChar

StartChar: A
Encoding: 65 65 36
Width: 500
Flags: W
LayerCount: 2
Fore
SplineSet
383 0 m 1,0,-1
 384 162 l 1,1,-1
 146 162 l 1,2,-1
 70 0 l 1,3,-1
 -13 0 l 1,4,5
 20 66 20 66 60 143 c 128,-1,6
 100 220 100 220 143.5 301 c 128,-1,7
 187 382 187 382 233.5 463.5 c 128,-1,8
 280 545 280 545 327 619 c 1,9,-1
 425 619 l 1,10,11
 436 545 436 545 443.5 463.5 c 128,-1,12
 451 382 451 382 456 301 c 128,-1,13
 461 220 461 220 464 143 c 128,-1,14
 467 66 467 66 469 0 c 1,15,-1
 383 0 l 1,0,-1
357 547 m 1,16,17
 319 484 319 484 273 401 c 128,-1,18
 227 318 227 318 181 230 c 1,19,-1
 381 230 l 1,20,21
 379 320 379 320 372 403.5 c 128,-1,22
 365 487 365 487 357 547 c 1,16,17
EndSplineSet
EndChar

StartChar: B
Encoding: 66 66 37
Width: 500
Flags: W
LayerCount: 2
Fore
SplineSet
191 -5 m 0,0,1
 175 -5 175 -5 155.5 -4 c 128,-1,2
 136 -3 136 -3 116 -1.5 c 128,-1,3
 96 0 96 0 77.5 3 c 128,-1,4
 59 6 59 6 45 10 c 1,5,-1
 188 610 l 1,6,7
 204 614 204 614 224 617 c 128,-1,8
 244 620 244 620 265 621.5 c 128,-1,9
 286 623 286 623 305.5 624 c 128,-1,10
 325 625 325 625 341 625 c 0,11,12
 422 625 422 625 472.5 595.5 c 128,-1,13
 523 566 523 566 523 499 c 0,14,15
 523 440 523 440 494.5 396 c 128,-1,16
 466 352 466 352 400 326 c 1,17,18
 435 316 435 316 461 285 c 128,-1,19
 487 254 487 254 487 212 c 0,20,21
 487 108 487 108 410.5 51.5 c 128,-1,22
 334 -5 334 -5 191 -5 c 0,0,1
193 289 m 1,23,-1
 139 68 l 2,24,25
 141 67 141 67 161 65.5 c 128,-1,26
 181 64 181 64 213 64 c 0,27,28
 246 64 246 64 280 70 c 128,-1,29
 314 76 314 76 341.5 92.5 c 128,-1,30
 369 109 369 109 386.5 136.5 c 128,-1,31
 404 164 404 164 404 208 c 0,32,33
 404 254 404 254 368 271.5 c 128,-1,34
 332 289 332 289 277 289 c 2,35,-1
 193 289 l 1,23,-1
209 357 m 1,36,-1
 274 357 l 2,37,38
 304 357 304 357 334 362.5 c 128,-1,39
 364 368 364 368 388 382.5 c 128,-1,40
 412 397 412 397 426.5 421 c 128,-1,41
 441 445 441 445 441 481 c 0,42,43
 441 501 441 501 432 515 c 128,-1,44
 423 529 423 529 408 538 c 128,-1,45
 393 547 393 547 372.5 551 c 128,-1,46
 352 555 352 555 330 555 c 0,47,48
 304 555 304 555 284.5 554.5 c 128,-1,49
 265 554 265 554 256 552 c 1,50,-1
 209 357 l 1,36,-1
EndSplineSet
EndChar

StartChar: C
Encoding: 67 67 38
Width: 500
Flags: W
LayerCount: 2
Fore
SplineSet
279 -13 m 0,0,1
 191 -13 191 -13 140 45 c 128,-1,2
 89 103 89 103 89 202 c 0,3,4
 89 281 89 281 112 358.5 c 128,-1,5
 135 436 135 436 178.5 497 c 128,-1,6
 222 558 222 558 284 595.5 c 128,-1,7
 346 633 346 633 424 633 c 0,8,9
 484 633 484 633 520.5 617 c 128,-1,10
 557 601 557 601 574 587 c 1,11,-1
 535 521 l 1,12,13
 518 536 518 536 485.5 548 c 128,-1,14
 453 560 453 560 418 560 c 0,15,16
 360 560 360 560 314.5 530 c 128,-1,17
 269 500 269 500 237.5 451 c 128,-1,18
 206 402 206 402 189 340.5 c 128,-1,19
 172 279 172 279 172 215 c 0,20,21
 172 143 172 143 204 101.5 c 128,-1,22
 236 60 236 60 297 60 c 0,23,24
 345 60 345 60 382 72.5 c 128,-1,25
 419 85 419 85 437 96 c 1,26,-1
 446 26 l 1,27,28
 440 21 440 21 424.5 14.5 c 128,-1,29
 409 8 409 8 387.5 2 c 128,-1,30
 366 -4 366 -4 338 -8.5 c 128,-1,31
 310 -13 310 -13 279 -13 c 0,0,1
EndSplineSet
EndChar

StartChar: D
Encoding: 68 68 39
Width: 500
Flags: W
LayerCount: 2
Fore
SplineSet
523 405 m 0,0,1
 523 326 523 326 502 252 c 128,-1,2
 481 178 481 178 437 121 c 128,-1,3
 393 64 393 64 325 29.5 c 128,-1,4
 257 -5 257 -5 163 -5 c 0,5,6
 131 -5 131 -5 98 -2 c 128,-1,7
 65 1 65 1 36 9 c 1,8,-1
 179 610 l 1,9,10
 245 625 245 625 306 625 c 0,11,12
 408 625 408 625 465.5 567.5 c 128,-1,13
 523 510 523 510 523 405 c 0,0,1
132 71 m 1,14,15
 140 69 140 69 154 67.5 c 128,-1,16
 168 66 168 66 180 66 c 0,17,18
 236 66 236 66 283.5 90 c 128,-1,19
 331 114 331 114 366 157.5 c 128,-1,20
 401 201 401 201 420.5 262 c 128,-1,21
 440 323 440 323 440 396 c 0,22,23
 440 472 440 472 405 513 c 128,-1,24
 370 554 370 554 295 554 c 0,25,26
 268 554 268 554 246 551 c 1,27,-1
 132 71 l 1,14,15
EndSplineSet
EndChar

StartChar: E
Encoding: 69 69 40
Width: 500
Flags: W
LayerCount: 2
Fore
SplineSet
71 0 m 1,0,-1
 221 619 l 1,1,-1
 567 619 l 1,2,-1
 550 549 l 1,3,-1
 286 549 l 1,4,-1
 240 359 l 1,5,-1
 472 359 l 1,6,-1
 455 289 l 1,7,-1
 223 289 l 1,8,-1
 171 70 l 1,9,-1
 457 70 l 1,10,-1
 440 0 l 1,11,-1
 71 0 l 1,0,-1
EndSplineSet
EndChar

StartChar: F
Encoding: 70 70 41
Width: 500
Flags: W
LayerCount: 2
Fore
SplineSet
71 0 m 1,0,-1
 221 619 l 1,1,-1
 572 619 l 1,2,-1
 555 549 l 1,3,-1
 286 549 l 1,4,-1
 239 356 l 1,5,-1
 476 356 l 1,6,-1
 459 287 l 1,7,-1
 222 287 l 1,8,-1
 154 0 l 1,9,-1
 71 0 l 1,0,-1
EndSplineSet
EndChar

StartChar: G
Encoding: 71 71 42
Width: 500
Flags: W
LayerCount: 2
Fore
SplineSet
265 -13 m 0,0,1
 223 -13 223 -13 188.5 2 c 128,-1,2
 154 17 154 17 130 45 c 128,-1,3
 106 73 106 73 93 113 c 128,-1,4
 80 153 80 153 80 202 c 0,5,6
 80 281 80 281 103 358.5 c 128,-1,7
 126 436 126 436 169.5 497 c 128,-1,8
 213 558 213 558 275 595.5 c 128,-1,9
 337 633 337 633 415 633 c 0,10,11
 446 633 446 633 469 628.5 c 128,-1,12
 492 624 492 624 509 617 c 128,-1,13
 526 610 526 610 538 602 c 128,-1,14
 550 594 550 594 558 587 c 1,15,-1
 519 521 l 1,16,17
 502 536 502 536 474 548.5 c 128,-1,18
 446 561 446 561 409 561 c 0,19,20
 351 561 351 561 305.5 531 c 128,-1,21
 260 501 260 501 228.5 452 c 128,-1,22
 197 403 197 403 180 341 c 128,-1,23
 163 279 163 279 163 215 c 0,24,25
 163 143 163 143 195 101 c 128,-1,26
 227 59 227 59 288 59 c 0,27,28
 313 59 313 59 331.5 62.5 c 128,-1,29
 350 66 350 66 361 70 c 1,30,-1
 417 304 l 1,31,-1
 499 304 l 1,32,-1
 430 14 l 1,33,34
 422 11 422 11 405.5 6.5 c 128,-1,35
 389 2 389 2 367 -2.5 c 128,-1,36
 345 -7 345 -7 318.5 -10 c 128,-1,37
 292 -13 292 -13 265 -13 c 0,0,1
EndSplineSet
EndChar

StartChar: H
Encoding: 72 72 43
Width: 500
Flags: W
LayerCount: 2
Fore
SplineSet
495 619 m 1,0,-1
 577 619 l 1,1,-1
 428 0 l 1,2,-1
 346 0 l 1,3,-1
 415 288 l 1,4,-1
 187 288 l 1,5,-1
 117 0 l 1,6,-1
 36 0 l 1,7,-1
 184 619 l 1,8,-1
 266 619 l 1,9,-1
 204 358 l 1,10,-1
 432 358 l 1,11,-1
 495 619 l 1,0,-1
EndSplineSet
EndChar

StartChar: I
Encoding: 73 73 44
Width: 500
Flags: W
LayerCount: 2
Fore
SplineSet
405 549 m 1,0,-1
 289 70 l 1,1,-1
 409 70 l 1,2,-1
 392 0 l 1,3,-1
 71 0 l 1,4,-1
 88 70 l 1,5,-1
 207 70 l 1,6,-1
 322 549 l 1,7,-1
 203 549 l 1,8,-1
 220 619 l 1,9,-1
 541 619 l 1,10,-1
 524 549 l 1,11,-1
 405 549 l 1,0,-1
EndSplineSet
EndChar

StartChar: J
Encoding: 74 74 45
Width: 500
Flags: W
LayerCount: 2
Fore
SplineSet
554 619 m 1,0,-1
 454 199 l 2,1,2
 443 156 443 156 429 117.5 c 128,-1,3
 415 79 415 79 389.5 50 c 128,-1,4
 364 21 364 21 324.5 4 c 128,-1,5
 285 -13 285 -13 225 -13 c 0,6,7
 194 -13 194 -13 168.5 -7 c 128,-1,8
 143 -1 143 -1 122.5 7.5 c 128,-1,9
 102 16 102 16 88 26 c 128,-1,10
 74 36 74 36 67 44 c 1,11,-1
 110 109 l 1,12,13
 117 102 117 102 128 93 c 128,-1,14
 139 84 139 84 154 76.5 c 128,-1,15
 169 69 169 69 187 63.5 c 128,-1,16
 205 58 205 58 227 58 c 0,17,18
 287 58 287 58 320.5 93.5 c 128,-1,19
 354 129 354 129 373 207 c 2,20,-1
 455 549 l 1,21,-1
 245 549 l 1,22,-1
 261 619 l 1,23,-1
 554 619 l 1,0,-1
EndSplineSet
EndChar

StartChar: K
Encoding: 75 75 46
Width: 500
Flags: W
LayerCount: 2
Fore
SplineSet
588 619 m 1,0,1
 552 581 552 581 516.5 545 c 128,-1,2
 481 509 481 509 444 473 c 128,-1,3
 407 437 407 437 368 399.5 c 128,-1,4
 329 362 329 362 284 322 c 1,5,6
 305 298 305 298 329.5 264.5 c 128,-1,7
 354 231 354 231 378 189.5 c 128,-1,8
 402 148 402 148 425 100 c 128,-1,9
 448 52 448 52 467 0 c 1,10,-1
 378 0 l 1,11,12
 340 106 340 106 295 178.5 c 128,-1,13
 250 251 250 251 198 298 c 1,14,-1
 127 0 l 1,15,-1
 45 0 l 1,16,-1
 193 619 l 1,17,-1
 275 619 l 1,18,-1
 210 348 l 1,19,20
 294 423 294 423 361.5 489.5 c 128,-1,21
 429 556 429 556 486 619 c 1,22,-1
 588 619 l 1,0,1
EndSplineSet
EndChar

StartChar: L
Encoding: 76 76 47
Width: 500
Flags: W
LayerCount: 2
Fore
SplineSet
421 70 m 1,0,-1
 405 0 l 1,1,-1
 54 0 l 1,2,-1
 203 619 l 1,3,-1
 285 619 l 1,4,-1
 153 70 l 1,5,-1
 421 70 l 1,0,-1
EndSplineSet
EndChar

StartChar: M
Encoding: 77 77 48
Width: 500
Flags: W
LayerCount: 2
Fore
SplineSet
481 619 m 1,0,-1
 558 619 l 1,1,2
 552 556 552 556 541 483 c 128,-1,3
 530 410 530 410 516.5 330.5 c 128,-1,4
 503 251 503 251 486.5 167.5 c 128,-1,5
 470 84 470 84 453 0 c 1,6,-1
 373 0 l 1,7,8
 385 54 385 54 399.5 118 c 128,-1,9
 414 182 414 182 429 249.5 c 128,-1,10
 444 317 444 317 459 385.5 c 128,-1,11
 474 454 474 454 486 517 c 1,12,-1
 328 235 l 1,13,-1
 256 235 l 1,14,15
 254 272 254 272 251.5 310.5 c 128,-1,16
 249 349 249 349 245.5 386 c 128,-1,17
 242 423 242 423 238.5 456.5 c 128,-1,18
 235 490 235 490 232 517 c 1,19,20
 215 449 215 449 197 379.5 c 128,-1,21
 179 310 179 310 161 243 c 128,-1,22
 143 176 143 176 126.5 114.5 c 128,-1,23
 110 53 110 53 96 0 c 1,24,-1
 18 0 l 1,25,26
 61 160 61 160 108 311.5 c 128,-1,27
 155 463 155 463 212 619 c 1,28,-1
 288 619 l 1,29,30
 295 538 295 538 300 464 c 128,-1,31
 305 390 305 390 311 311 c 1,32,-1
 481 619 l 1,0,-1
EndSplineSet
EndChar

StartChar: N
Encoding: 78 78 49
Width: 500
Flags: W
LayerCount: 2
Fore
SplineSet
349 0 m 1,0,1
 335 83 335 83 322 151 c 128,-1,2
 309 219 309 219 294.5 279 c 128,-1,3
 280 339 280 339 265 393 c 128,-1,4
 250 447 250 447 234 503 c 1,5,-1
 115 0 l 1,6,-1
 40 0 l 1,7,-1
 189 619 l 1,8,-1
 270 619 l 1,9,10
 293 544 293 544 309.5 487 c 128,-1,11
 326 430 326 430 339.5 376.5 c 128,-1,12
 353 323 353 323 364.5 266 c 128,-1,13
 376 209 376 209 389 134 c 1,14,-1
 504 619 l 1,15,-1
 579 619 l 1,16,-1
 430 0 l 1,17,-1
 349 0 l 1,0,1
EndSplineSet
EndChar

StartChar: O
Encoding: 79 79 50
Width: 500
Flags: W
LayerCount: 2
Fore
SplineSet
369 562 m 0,0,1
 320 562 320 562 281.5 525.5 c 128,-1,2
 243 489 243 489 217 433.5 c 128,-1,3
 191 378 191 378 177 312.5 c 128,-1,4
 163 247 163 247 163 190 c 0,5,6
 163 119 163 119 187 88.5 c 128,-1,7
 211 58 211 58 254 58 c 0,8,9
 303 58 303 58 341 94.5 c 128,-1,10
 379 131 379 131 405 186.5 c 128,-1,11
 431 242 431 242 444.5 307.5 c 128,-1,12
 458 373 458 373 458 430 c 0,13,14
 458 500 458 500 434.5 531 c 128,-1,15
 411 562 411 562 369 562 c 0,0,1
379 633 m 0,16,17
 451 633 451 633 496 585.5 c 128,-1,18
 541 538 541 538 541 436 c 0,19,20
 541 399 541 399 534 351.5 c 128,-1,21
 527 304 527 304 512 254 c 128,-1,22
 497 204 497 204 473.5 156 c 128,-1,23
 450 108 450 108 417 70.5 c 128,-1,24
 384 33 384 33 341 10 c 128,-1,25
 298 -13 298 -13 244 -13 c 0,26,27
 171 -13 171 -13 125.5 34.5 c 128,-1,28
 80 82 80 82 80 184 c 0,29,30
 80 221 80 221 87 268.5 c 128,-1,31
 94 316 94 316 109 366 c 128,-1,32
 124 416 124 416 148 464 c 128,-1,33
 172 512 172 512 205 549.5 c 128,-1,34
 238 587 238 587 281.5 610 c 128,-1,35
 325 633 325 633 379 633 c 0,16,17
EndSplineSet
EndChar

StartChar: P
Encoding: 80 80 51
Width: 500
Flags: W
LayerCount: 2
Fore
SplineSet
357 625 m 0,0,1
 439 625 439 625 490 586.5 c 128,-1,2
 541 548 541 548 541 472 c 0,3,4
 541 418 541 418 521 373.5 c 128,-1,5
 501 329 501 329 464 297.5 c 128,-1,6
 427 266 427 266 376 248.5 c 128,-1,7
 325 231 325 231 263 231 c 2,8,-1
 191 231 l 1,9,-1
 135 0 l 1,10,-1
 54 0 l 1,11,-1
 199 610 l 1,12,13
 212 613 212 613 232 615.5 c 128,-1,14
 252 618 252 618 274 620.5 c 128,-1,15
 296 623 296 623 317.5 624 c 128,-1,16
 339 625 339 625 357 625 c 0,0,1
344 555 m 0,17,18
 321 555 321 555 300 554 c 128,-1,19
 279 553 279 553 268 551 c 1,20,-1
 207 301 l 1,21,-1
 274 301 l 2,22,23
 363 301 363 301 411 344 c 128,-1,24
 459 387 459 387 459 464 c 0,25,26
 459 489 459 489 449 506.5 c 128,-1,27
 439 524 439 524 422.5 535 c 128,-1,28
 406 546 406 546 385.5 550.5 c 128,-1,29
 365 555 365 555 344 555 c 0,17,18
EndSplineSet
EndChar

StartChar: Q
Encoding: 81 81 52
Width: 500
Flags: W
LayerCount: 2
Fore
SplineSet
379 633 m 0,0,1
 451 633 451 633 496 585.5 c 128,-1,2
 541 538 541 538 541 436 c 0,3,4
 541 401 541 401 535 356 c 128,-1,5
 529 311 529 311 515.5 263.5 c 128,-1,6
 502 216 502 216 481 169.5 c 128,-1,7
 460 123 460 123 430.5 85.5 c 128,-1,8
 401 48 401 48 362 22 c 128,-1,9
 323 -4 323 -4 275 -11 c 1,10,-1
 275 -18 l 2,11,12
 275 -50 275 -50 313 -70.5 c 128,-1,13
 351 -91 351 -91 413 -99 c 1,14,-1
 377 -165 l 1,15,16
 341 -158 341 -158 306.5 -148.5 c 128,-1,17
 272 -139 272 -139 246 -122 c 128,-1,18
 220 -105 220 -105 204.5 -78.5 c 128,-1,19
 189 -52 189 -52 189 -10 c 2,20,-1
 189 -5 l 1,21,22
 139 9 139 9 109.5 55.5 c 128,-1,23
 80 102 80 102 80 184 c 0,24,25
 80 221 80 221 87 268.5 c 128,-1,26
 94 316 94 316 109 366 c 128,-1,27
 124 416 124 416 148 464 c 128,-1,28
 172 512 172 512 205 549.5 c 128,-1,29
 238 587 238 587 281.5 610 c 128,-1,30
 325 633 325 633 379 633 c 0,0,1
369 562 m 0,31,32
 320 562 320 562 281.5 525.5 c 128,-1,33
 243 489 243 489 217 433.5 c 128,-1,34
 191 378 191 378 177 312.5 c 128,-1,35
 163 247 163 247 163 190 c 0,36,37
 163 119 163 119 187 88.5 c 128,-1,38
 211 58 211 58 254 58 c 0,39,40
 303 58 303 58 341 94.5 c 128,-1,41
 379 131 379 131 405 186.5 c 128,-1,42
 431 242 431 242 444.5 307.5 c 128,-1,43
 458 373 458 373 458 430 c 0,44,45
 458 500 458 500 434.5 531 c 128,-1,46
 411 562 411 562 369 562 c 0,31,32
EndSplineSet
EndChar

StartChar: R
Encoding: 82 82 53
Width: 500
Flags: W
LayerCount: 2
Fore
SplineSet
528 477 m 0,0,1
 528 392 528 392 483 337 c 128,-1,2
 438 282 438 282 364 259 c 1,3,4
 377 232 377 232 388.5 207 c 128,-1,5
 400 182 400 182 410 152.5 c 128,-1,6
 420 123 420 123 430 86 c 128,-1,7
 440 49 440 49 451 0 c 1,8,-1
 367 0 l 1,9,10
 356 53 356 53 345.5 90.5 c 128,-1,11
 335 128 335 128 325 155.5 c 128,-1,12
 315 183 315 183 305 203.5 c 128,-1,13
 295 224 295 224 285 244 c 1,14,-1
 185 244 l 1,15,-1
 126 0 l 1,16,-1
 45 0 l 1,17,-1
 190 610 l 1,18,19
 206 614 206 614 225.5 617 c 128,-1,20
 245 620 245 620 265 621.5 c 128,-1,21
 285 623 285 623 304.5 624 c 128,-1,22
 324 625 324 625 340 625 c 0,23,24
 438 625 438 625 483 584.5 c 128,-1,25
 528 544 528 544 528 477 c 0,0,1
334 555 m 0,26,27
 311 555 311 555 289.5 554 c 128,-1,28
 268 553 268 553 258 551 c 1,29,-1
 201 312 l 1,30,-1
 251 312 l 2,31,32
 291 312 291 312 326.5 318.5 c 128,-1,33
 362 325 362 325 388.5 342.5 c 128,-1,34
 415 360 415 360 430.5 389.5 c 128,-1,35
 446 419 446 419 446 464 c 0,36,37
 446 512 446 512 415 533.5 c 128,-1,38
 384 555 384 555 334 555 c 0,26,27
EndSplineSet
EndChar

StartChar: S
Encoding: 83 83 54
Width: 500
Flags: W
LayerCount: 2
Fore
SplineSet
238 59 m 0,0,1
 265 59 265 59 291.5 65 c 128,-1,2
 318 71 318 71 339 84.5 c 128,-1,3
 360 98 360 98 372.5 120.5 c 128,-1,4
 385 143 385 143 385 176 c 0,5,6
 385 198 385 198 376.5 214.5 c 128,-1,7
 368 231 368 231 353.5 244.5 c 128,-1,8
 339 258 339 258 319.5 269.5 c 128,-1,9
 300 281 300 281 277 293 c 0,10,11
 256 304 256 304 236 317 c 128,-1,12
 216 330 216 330 201 347.5 c 128,-1,13
 186 365 186 365 176.5 389.5 c 128,-1,14
 167 414 167 414 167 449 c 0,15,16
 167 530 167 530 223.5 581.5 c 128,-1,17
 280 633 280 633 395 633 c 0,18,19
 420 633 420 633 444 629 c 128,-1,20
 468 625 468 625 487.5 619 c 128,-1,21
 507 613 507 613 522 606.5 c 128,-1,22
 537 600 537 600 545 595 c 1,23,-1
 506 529 l 1,24,25
 491 542 491 542 458 551.5 c 128,-1,26
 425 561 425 561 380 561 c 0,27,28
 352 561 352 561 328.5 555 c 128,-1,29
 305 549 305 549 287.5 536.5 c 128,-1,30
 270 524 270 524 260 504 c 128,-1,31
 250 484 250 484 250 457 c 0,32,33
 250 434 250 434 257 418 c 128,-1,34
 264 402 264 402 276 390 c 128,-1,35
 288 378 288 378 305.5 368 c 128,-1,36
 323 358 323 358 344 347 c 0,37,38
 370 333 370 333 393 319.5 c 128,-1,39
 416 306 416 306 432.5 287.5 c 128,-1,40
 449 269 449 269 458.5 244 c 128,-1,41
 468 219 468 219 468 184 c 0,42,43
 468 135 468 135 450.5 98 c 128,-1,44
 433 61 433 61 401.5 36.5 c 128,-1,45
 370 12 370 12 326 -0.5 c 128,-1,46
 282 -13 282 -13 228 -13 c 0,47,48
 159 -13 159 -13 115 3 c 128,-1,49
 71 19 71 19 54 31 c 1,50,-1
 92 99 l 1,51,52
 109 88 109 88 145 73.5 c 128,-1,53
 181 59 181 59 238 59 c 0,0,1
EndSplineSet
EndChar

StartChar: T
Encoding: 84 84 55
Width: 500
Flags: W
LayerCount: 2
Fore
SplineSet
589 619 m 1,0,-1
 572 549 l 1,1,-1
 403 549 l 1,2,-1
 271 0 l 1,3,-1
 188 0 l 1,4,-1
 321 549 l 1,5,-1
 152 549 l 1,6,-1
 169 619 l 1,7,-1
 589 619 l 1,0,-1
EndSplineSet
EndChar

StartChar: U
Encoding: 85 85 56
Width: 500
Flags: W
LayerCount: 2
Fore
SplineSet
237 -13 m 0,0,1
 196 -13 196 -13 167 1 c 128,-1,2
 138 15 138 15 118.5 38.5 c 128,-1,3
 99 62 99 62 90 93 c 128,-1,4
 81 124 81 124 81 158 c 0,5,6
 81 188 81 188 89 222 c 2,7,-1
 184 619 l 1,8,-1
 266 619 l 1,9,-1
 171 223 l 2,10,11
 163 189 163 189 163 160 c 0,12,13
 163 139 163 139 167.5 120.5 c 128,-1,14
 172 102 172 102 182 88 c 128,-1,15
 192 74 192 74 208.5 66 c 128,-1,16
 225 58 225 58 249 58 c 0,17,18
 276 58 276 58 298 64.5 c 128,-1,19
 320 71 320 71 338 88 c 128,-1,20
 356 105 356 105 370 135 c 128,-1,21
 384 165 384 165 396 212 c 2,22,-1
 494 619 l 1,23,-1
 576 619 l 1,24,-1
 476 202 l 2,25,26
 464 151 464 151 446.5 111 c 128,-1,27
 429 71 429 71 401.5 43.5 c 128,-1,28
 374 16 374 16 334 1.5 c 128,-1,29
 294 -13 294 -13 237 -13 c 0,0,1
EndSplineSet
EndChar

StartChar: V
Encoding: 86 86 57
Width: 500
Flags: W
LayerCount: 2
Fore
SplineSet
222 619 m 1,0,1
 223 441 223 441 230 305 c 128,-1,2
 237 169 237 169 244 72 c 1,3,4
 314 201 314 201 384.5 334.5 c 128,-1,5
 455 468 455 468 524 619 c 1,6,-1
 612 619 l 1,7,8
 597 587 597 587 563.5 520 c 128,-1,9
 530 453 530 453 484.5 367.5 c 128,-1,10
 439 282 439 282 385.5 186 c 128,-1,11
 332 90 332 90 278 0 c 1,12,-1
 176 0 l 1,13,14
 166 90 166 90 158.5 186 c 128,-1,15
 151 282 151 282 146 367.5 c 128,-1,16
 141 453 141 453 138.5 520 c 128,-1,17
 136 587 136 587 136 619 c 1,18,-1
 222 619 l 1,0,1
EndSplineSet
EndChar

StartChar: W
Encoding: 87 87 58
Width: 500
Flags: W
LayerCount: 2
Fore
SplineSet
306 309 m 1,0,-1
 136 0 l 1,1,-1
 59 0 l 1,2,3
 65 64 65 64 76 137.5 c 128,-1,4
 87 211 87 211 101 290.5 c 128,-1,5
 115 370 115 370 131 453 c 128,-1,6
 147 536 147 536 163 619 c 1,7,-1
 244 619 l 1,8,9
 232 567 232 567 217.5 503 c 128,-1,10
 203 439 203 439 187.5 370 c 128,-1,11
 172 301 172 301 156.5 231.5 c 128,-1,12
 141 162 141 162 128 100 c 1,13,14
 143 128 143 128 162.5 162.5 c 128,-1,15
 182 197 182 197 203 234.5 c 128,-1,16
 224 272 224 272 245 310 c 128,-1,17
 266 348 266 348 286 384 c 1,18,-1
 357 384 l 1,19,20
 359 350 359 350 362 311.5 c 128,-1,21
 365 273 365 273 368.5 235 c 128,-1,22
 372 197 372 197 375 162 c 128,-1,23
 378 127 378 127 381 100 c 1,24,25
 399 164 399 164 418 232.5 c 128,-1,26
 437 301 437 301 455.5 369 c 128,-1,27
 474 437 474 437 490.5 501 c 128,-1,28
 507 565 507 565 521 619 c 1,29,-1
 600 619 l 1,30,31
 556 463 556 463 510 312.5 c 128,-1,32
 464 162 464 162 405 0 c 1,33,-1
 329 0 l 1,34,-1
 306 309 l 1,0,-1
EndSplineSet
EndChar

StartChar: X
Encoding: 88 88 59
Width: 500
Flags: W
LayerCount: 2
Fore
SplineSet
388 0 m 1,0,1
 375 64 375 64 356.5 128.5 c 128,-1,2
 338 193 338 193 315 257 c 1,3,-1
 107 0 l 1,4,-1
 9 0 l 1,5,-1
 281 330 l 1,6,-1
 176 619 l 1,7,-1
 266 619 l 1,8,-1
 344 394 l 1,9,10
 390 450 390 450 433 506.5 c 128,-1,11
 476 563 476 563 514 619 c 1,12,-1
 608 619 l 1,13,14
 557 545 557 545 495.5 469.5 c 128,-1,15
 434 394 434 394 375 325 c 1,16,17
 389 289 389 289 403.5 247.5 c 128,-1,18
 418 206 418 206 431 163.5 c 128,-1,19
 444 121 444 121 455 79 c 128,-1,20
 466 37 466 37 474 0 c 1,21,-1
 388 0 l 1,0,1
EndSplineSet
EndChar

StartChar: Y
Encoding: 89 89 60
Width: 500
Flags: W
LayerCount: 2
Fore
SplineSet
622 619 m 1,0,1
 562 521 562 521 488.5 424.5 c 128,-1,2
 415 328 415 328 334 232 c 1,3,-1
 278 0 l 1,4,-1
 196 0 l 1,5,-1
 251 230 l 1,6,7
 214 330 214 330 187.5 425.5 c 128,-1,8
 161 521 161 521 147 619 c 1,9,-1
 229 619 l 1,10,11
 238 538 238 538 260 451.5 c 128,-1,12
 282 365 282 365 305 293 c 1,13,14
 335 332 335 332 366 374 c 128,-1,15
 397 416 397 416 426.5 458.5 c 128,-1,16
 456 501 456 501 483 542 c 128,-1,17
 510 583 510 583 533 619 c 1,18,-1
 622 619 l 1,0,1
EndSplineSet
EndChar

StartChar: Z
Encoding: 90 90 61
Width: 500
Flags: W
LayerCount: 2
Fore
SplineSet
556 550 m 1,0,1
 514 506 514 506 459.5 445.5 c 128,-1,2
 405 385 405 385 348 319.5 c 128,-1,3
 291 254 291 254 238 189 c 128,-1,4
 185 124 185 124 146 70 c 1,5,-1
 450 70 l 1,6,-1
 434 0 l 1,7,-1
 36 0 l 1,8,-1
 52 68 l 1,9,10
 99 129 99 129 150.5 192.5 c 128,-1,11
 202 256 202 256 254.5 318 c 128,-1,12
 307 380 307 380 359.5 439 c 128,-1,13
 412 498 412 498 460 549 c 1,14,-1
 179 549 l 1,15,-1
 196 619 l 1,16,-1
 572 619 l 1,17,-1
 556 550 l 1,0,1
EndSplineSet
EndChar

StartChar: bracketleft
Encoding: 91 91 62
Width: 500
Flags: W
LayerCount: 2
Fore
SplineSet
306 699 m 1,0,-1
 547 699 l 1,1,-1
 531 634 l 1,2,-1
 369 634 l 1,3,-1
 192 -100 l 1,4,-1
 355 -100 l 1,5,-1
 338 -165 l 1,6,-1
 98 -165 l 1,7,-1
 306 699 l 1,0,-1
EndSplineSet
Substitution2: "'case' Case-Sensitive Forms lookup 17 subtable" Bracketleft
EndChar

StartChar: backslash
Encoding: 92 92 63
Width: 500
Flags: W
LayerCount: 2
Fore
SplineSet
219 699 m 1,0,-1
 302 699 l 1,1,-1
 371 -165 l 1,2,-1
 287 -165 l 1,3,-1
 219 699 l 1,0,-1
EndSplineSet
Substitution2: "'case' Case-Sensitive Forms lookup 17 subtable" Backslash
EndChar

StartChar: bracketright
Encoding: 93 93 64
Width: 500
Flags: W
LayerCount: 2
Fore
SplineSet
265 -165 m 1,0,-1
 25 -165 l 1,1,-1
 40 -100 l 1,2,-1
 203 -100 l 1,3,-1
 380 634 l 1,4,-1
 217 634 l 1,5,-1
 233 699 l 1,6,-1
 473 699 l 1,7,-1
 265 -165 l 1,0,-1
EndSplineSet
Substitution2: "'case' Case-Sensitive Forms lookup 17 subtable" Bracketright
EndChar

StartChar: asciicircum
Encoding: 94 94 65
Width: 500
Flags: W
LayerCount: 2
Fore
SplineSet
369 533 m 1,0,-1
 170 284 l 1,1,-1
 109 321 l 1,2,-1
 348 619 l 1,3,-1
 419 619 l 1,4,-1
 516 313 l 1,5,-1
 448 283 l 1,6,-1
 369 533 l 1,0,-1
EndSplineSet
EndChar

StartChar: underscore
Encoding: 95 95 66
Width: 500
Flags: W
LayerCount: 2
Fore
SplineSet
-10 -95 m 1,0,-1
 437 -95 l 1,1,-1
 420 -165 l 1,2,-1
 -27 -165 l 1,3,-1
 -10 -95 l 1,0,-1
EndSplineSet
EndChar

StartChar: grave
Encoding: 96 96 67
Width: 500
Flags: W
LayerCount: 2
Fore
SplineSet
321 691 m 1,0,-1
 435 548 l 1,1,-1
 391 509 l 1,2,-1
 261 640 l 1,3,-1
 321 691 l 1,0,-1
EndSplineSet
EndChar

StartChar: a
Encoding: 97 97 68
Width: 500
Flags: W
LayerCount: 2
Fore
SplineSet
376 -5 m 1,0,1
 371 5 371 5 367 16.5 c 128,-1,2
 363 28 363 28 361 42 c 1,3,4
 341 24 341 24 305.5 6.5 c 128,-1,5
 270 -11 270 -11 222 -11 c 0,6,7
 144 -11 144 -11 107.5 36 c 128,-1,8
 71 83 71 83 71 155 c 0,9,10
 71 215 71 215 91 272 c 128,-1,11
 111 329 111 329 151.5 374 c 128,-1,12
 192 419 192 419 253 446.5 c 128,-1,13
 314 474 314 474 395 474 c 0,14,15
 407 474 407 474 422.5 473 c 128,-1,16
 438 472 438 472 454 469 c 128,-1,17
 470 466 470 466 485.5 461.5 c 128,-1,18
 501 457 501 457 513 451 c 1,19,-1
 445 171 l 2,20,21
 440 150 440 150 436.5 131.5 c 128,-1,22
 433 113 433 113 433 92 c 256,23,24
 433 71 433 71 437 50.5 c 128,-1,25
 441 30 441 30 449 5 c 1,26,-1
 376 -5 l 1,0,1
239 57 m 0,27,28
 277 57 277 57 306.5 73 c 128,-1,29
 336 89 336 89 356 111 c 1,30,31
 357 126 357 126 359.5 145 c 128,-1,32
 362 164 362 164 366 181 c 2,33,-1
 421 400 l 1,34,35
 416 402 416 402 402 403.5 c 128,-1,36
 388 405 388 405 380 405 c 0,37,38
 329 405 329 405 287.5 385 c 128,-1,39
 246 365 246 365 216 331.5 c 128,-1,40
 186 298 186 298 170 254.5 c 128,-1,41
 154 211 154 211 154 164 c 0,42,43
 154 141 154 141 158 121.5 c 128,-1,44
 162 102 162 102 171.5 88 c 128,-1,45
 181 74 181 74 197.5 65.5 c 128,-1,46
 214 57 214 57 239 57 c 0,27,28
EndSplineSet
Substitution2: "'case' Case-Sensitive Forms lookup 18 subtable" A
Substitution2: "'ordn' Ordinals in Latin lookup 7 subtable" ordfeminine
EndChar

StartChar: b
Encoding: 98 98 69
Width: 500
Flags: W
LayerCount: 2
Fore
SplineSet
248 446 m 1,0,1
 269 459 269 459 296 467 c 128,-1,2
 323 475 323 475 353 475 c 0,3,4
 392 475 392 475 420.5 462.5 c 128,-1,5
 449 450 449 450 467.5 428.5 c 128,-1,6
 486 407 486 407 495.5 377 c 128,-1,7
 505 347 505 347 505 312 c 0,8,9
 505 250 505 250 485.5 192 c 128,-1,10
 466 134 466 134 426 89 c 128,-1,11
 386 44 386 44 325.5 17 c 128,-1,12
 265 -10 265 -10 184 -10 c 0,13,14
 157 -10 157 -10 122 -3.5 c 128,-1,15
 87 3 87 3 63 18 c 1,16,-1
 221 679 l 1,17,-1
 307 693 l 1,18,-1
 248 446 l 1,0,1
332 405 m 256,19,20
 305 405 305 405 278 396 c 128,-1,21
 251 387 251 387 228 370 c 1,22,-1
 155 67 l 1,23,24
 175 62 175 62 199 62 c 0,25,26
 250 62 250 62 291.5 82 c 128,-1,27
 333 102 333 102 362 135.5 c 128,-1,28
 391 169 391 169 407 212.5 c 128,-1,29
 423 256 423 256 423 303 c 0,30,31
 423 323 423 323 419 341.5 c 128,-1,32
 415 360 415 360 404.5 374 c 128,-1,33
 394 388 394 388 376.5 396.5 c 128,-1,34
 359 405 359 405 332 405 c 256,19,20
EndSplineSet
Substitution2: "'case' Case-Sensitive Forms lookup 18 subtable" B
EndChar

StartChar: c
Encoding: 99 99 70
Width: 500
Flags: W
LayerCount: 2
Fore
SplineSet
71 166 m 0,0,1
 71 227 71 227 91.5 283 c 128,-1,2
 112 339 112 339 151.5 382 c 128,-1,3
 191 425 191 425 248.5 450.5 c 128,-1,4
 306 476 306 476 381 476 c 0,5,6
 422 476 422 476 453 470.5 c 128,-1,7
 484 465 484 465 511 454 c 1,8,-1
 480 384 l 1,9,10
 463 392 463 392 439.5 399 c 128,-1,11
 416 406 416 406 374 406 c 0,12,13
 323 406 323 406 282 386.5 c 128,-1,14
 241 367 241 367 212.5 334.5 c 128,-1,15
 184 302 184 302 169 260.5 c 128,-1,16
 154 219 154 219 154 174 c 0,17,18
 154 151 154 151 160 130.5 c 128,-1,19
 166 110 166 110 182 94 c 128,-1,20
 198 78 198 78 225.5 69 c 128,-1,21
 253 60 253 60 295 60 c 0,22,23
 317 60 317 60 338 63 c 128,-1,24
 359 66 359 66 377 71 c 128,-1,25
 395 76 395 76 408.5 81 c 128,-1,26
 422 86 422 86 429 91 c 1,27,-1
 436 21 l 1,28,29
 418 10 418 10 377.5 -1 c 128,-1,30
 337 -12 337 -12 280 -12 c 0,31,32
 176 -12 176 -12 123.5 38 c 128,-1,33
 71 88 71 88 71 166 c 0,0,1
EndSplineSet
Substitution2: "'case' Case-Sensitive Forms lookup 18 subtable" C
EndChar

StartChar: d
Encoding: 100 100 71
Width: 500
Flags: W
LayerCount: 2
Fore
SplineSet
442 92 m 256,0,1
 442 71 442 71 446 50.5 c 128,-1,2
 450 30 450 30 458 5 c 1,3,-1
 385 -5 l 1,4,5
 380 4 380 4 376 16 c 128,-1,6
 372 28 372 28 370 42 c 1,7,8
 350 24 350 24 316.5 6.5 c 128,-1,9
 283 -11 283 -11 232 -11 c 0,10,11
 154 -11 154 -11 117 35 c 128,-1,12
 80 81 80 81 80 155 c 0,13,14
 80 215 80 215 100 272.5 c 128,-1,15
 120 330 120 330 160 374.5 c 128,-1,16
 200 419 200 419 260 446.5 c 128,-1,17
 320 474 320 474 399 474 c 0,18,19
 422 474 422 474 445 471 c 1,20,-1
 495 679 l 1,21,-1
 580 693 l 1,22,-1
 454 171 l 2,23,24
 449 150 449 150 445.5 131.5 c 128,-1,25
 442 113 442 113 442 92 c 256,0,1
248 57 m 0,26,27
 286 57 286 57 315.5 73 c 128,-1,28
 345 89 345 89 365 111 c 1,29,30
 366 126 366 126 368.5 145 c 128,-1,31
 371 164 371 164 375 181 c 2,32,-1
 430 400 l 1,33,34
 425 402 425 402 410.5 403.5 c 128,-1,35
 396 405 396 405 388 405 c 0,36,37
 337 405 337 405 295.5 385 c 128,-1,38
 254 365 254 365 224.5 331.5 c 128,-1,39
 195 298 195 298 179 254.5 c 128,-1,40
 163 211 163 211 163 164 c 0,41,42
 163 141 163 141 167 121.5 c 128,-1,43
 171 102 171 102 180.5 88 c 128,-1,44
 190 74 190 74 206.5 65.5 c 128,-1,45
 223 57 223 57 248 57 c 0,26,27
EndSplineSet
Substitution2: "'case' Case-Sensitive Forms lookup 18 subtable" D
EndChar

StartChar: e
Encoding: 101 101 72
Width: 500
Flags: W
LayerCount: 2
Fore
SplineSet
162 244 m 1,0,1
 222 245 222 245 270 249.5 c 128,-1,2
 318 254 318 254 351.5 266 c 128,-1,3
 385 278 385 278 403 299.5 c 128,-1,4
 421 321 421 321 421 354 c 0,5,6
 421 362 421 362 417.5 371 c 128,-1,7
 414 380 414 380 405.5 388 c 128,-1,8
 397 396 397 396 382 401 c 128,-1,9
 367 406 367 406 345 406 c 0,10,11
 311 406 311 406 281.5 392.5 c 128,-1,12
 252 379 252 379 228 356.5 c 128,-1,13
 204 334 204 334 187.5 305 c 128,-1,14
 171 276 171 276 162 244 c 1,0,1
263 -12 m 0,15,16
 214 -12 214 -12 178 2.5 c 128,-1,17
 142 17 142 17 118 41 c 128,-1,18
 94 65 94 65 82.5 96.5 c 128,-1,19
 71 128 71 128 71 162 c 0,20,21
 71 225 71 225 90.5 282 c 128,-1,22
 110 339 110 339 147 381.5 c 128,-1,23
 184 424 184 424 236.5 449.5 c 128,-1,24
 289 475 289 475 355 475 c 0,25,26
 394 475 394 475 422 465.5 c 128,-1,27
 450 456 450 456 468 440.5 c 128,-1,28
 486 425 486 425 494.5 404 c 128,-1,29
 503 383 503 383 503 360 c 0,30,31
 503 297 503 297 471 262 c 128,-1,32
 439 227 439 227 388 209.5 c 128,-1,33
 337 192 337 192 274.5 187 c 128,-1,34
 212 182 212 182 152 180 c 1,35,36
 146 117 146 117 185 88.5 c 128,-1,37
 224 60 224 60 288 60 c 0,38,39
 309 60 309 60 331.5 63.5 c 128,-1,40
 354 67 354 67 373.5 71.5 c 128,-1,41
 393 76 393 76 408 81.5 c 128,-1,42
 423 87 423 87 429 91 c 1,43,-1
 436 21 l 1,44,45
 417 11 417 11 374 -0.5 c 128,-1,46
 331 -12 331 -12 263 -12 c 0,15,16
EndSplineSet
Substitution2: "'case' Case-Sensitive Forms lookup 18 subtable" E
EndChar

StartChar: f
Encoding: 102 102 73
Width: 500
Flags: W
LayerCount: 2
Fore
SplineSet
344 395 m 1,0,-1
 263 18 l 2,1,2
 252 -32 252 -32 237.5 -67.5 c 128,-1,3
 223 -103 223 -103 201 -125.5 c 128,-1,4
 179 -148 179 -148 147.5 -158 c 128,-1,5
 116 -168 116 -168 73 -168 c 0,6,7
 58 -168 58 -168 39 -164 c 128,-1,8
 20 -160 20 -160 9 -152 c 1,9,-1
 28 -83 l 1,10,11
 49 -96 49 -96 86 -96 c 0,12,13
 126 -96 126 -96 148 -65 c 128,-1,14
 170 -34 170 -34 181 17 c 2,15,-1
 261 395 l 1,16,-1
 161 395 l 1,17,-1
 178 464 l 1,18,-1
 276 464 l 1,19,-1
 285 506 l 2,20,21
 304 596 304 596 352.5 644.5 c 128,-1,22
 401 693 401 693 497 693 c 0,23,24
 528 693 528 693 556 687 c 128,-1,25
 584 681 584 681 598 673 c 1,26,-1
 565 607 l 1,27,28
 557 611 557 611 540.5 616.5 c 128,-1,29
 524 622 524 622 489 622 c 0,30,31
 460 622 460 622 439.5 613.5 c 128,-1,32
 419 605 419 605 404.5 589.5 c 128,-1,33
 390 574 390 574 381.5 552.5 c 128,-1,34
 373 531 373 531 367 505 c 2,35,-1
 358 464 l 1,36,-1
 546 464 l 1,37,-1
 529 395 l 1,38,-1
 344 395 l 1,0,-1
EndSplineSet
Substitution2: "'case' Case-Sensitive Forms lookup 18 subtable" F
EndChar

StartChar: g
Encoding: 103 103 74
Width: 500
Flags: W
LayerCount: 2
Fore
SplineSet
179 -98 m 0,0,1
 253 -98 253 -98 293.5 -65.5 c 128,-1,2
 334 -33 334 -33 347 31 c 2,3,-1
 351 48 l 1,4,5
 333 38 333 38 300.5 28.5 c 128,-1,6
 268 19 268 19 236 19 c 0,7,8
 163 19 163 19 124.5 55 c 128,-1,9
 86 91 86 91 86 156 c 0,10,11
 86 216 86 216 105.5 273 c 128,-1,12
 125 330 125 330 165 375 c 128,-1,13
 205 420 205 420 265 447 c 128,-1,14
 325 474 325 474 405 474 c 0,15,16
 417 474 417 474 434 473 c 128,-1,17
 451 472 451 472 468.5 469.5 c 128,-1,18
 486 467 486 467 502.5 462.5 c 128,-1,19
 519 458 519 458 531 451 c 1,20,-1
 428 40 l 2,21,22
 416 -8 416 -8 399 -46.5 c 128,-1,23
 382 -85 382 -85 352.5 -112 c 128,-1,24
 323 -139 323 -139 277 -153.5 c 128,-1,25
 231 -168 231 -168 161 -168 c 0,26,27
 123 -168 123 -168 85 -158 c 128,-1,28
 47 -148 47 -148 21 -132 c 1,29,-1
 53 -63 l 1,30,31
 73 -78 73 -78 107 -88 c 128,-1,32
 141 -98 141 -98 179 -98 c 0,0,1
254 87 m 0,33,34
 272 87 272 87 289 91 c 128,-1,35
 306 95 306 95 321.5 101 c 128,-1,36
 337 107 337 107 349.5 113.5 c 128,-1,37
 362 120 362 120 370 126 c 1,38,-1
 435 400 l 1,39,40
 426 402 426 402 412.5 403.5 c 128,-1,41
 399 405 399 405 388 405 c 0,42,43
 340 405 340 405 299.5 385 c 128,-1,44
 259 365 259 365 229.5 332 c 128,-1,45
 200 299 200 299 184 257 c 128,-1,46
 168 215 168 215 168 172 c 0,47,48
 168 124 168 124 189 105.5 c 128,-1,49
 210 87 210 87 254 87 c 0,33,34
EndSplineSet
Substitution2: "'case' Case-Sensitive Forms lookup 18 subtable" G
EndChar

StartChar: h
Encoding: 104 104 75
Width: 500
Flags: W
LayerCount: 2
Fore
SplineSet
45 0 m 1,0,-1
 207 679 l 1,1,-1
 293 693 l 1,2,-1
 236 457 l 1,3,4
 256 465 256 465 279 469.5 c 128,-1,5
 302 474 302 474 325 474 c 0,6,7
 365 474 365 474 394 463 c 128,-1,8
 423 452 423 452 441 432.5 c 128,-1,9
 459 413 459 413 467.5 386 c 128,-1,10
 476 359 476 359 476 327 c 0,11,12
 476 306 476 306 472 283 c 128,-1,13
 468 260 468 260 462 236 c 2,14,-1
 405 0 l 1,15,-1
 323 0 l 1,16,-1
 375 218 l 2,17,18
 381 243 381 243 387.5 269.5 c 128,-1,19
 394 296 394 296 394 320 c 0,20,21
 394 355 394 355 374 378.5 c 128,-1,22
 354 402 354 402 301 402 c 0,23,24
 256 402 256 402 221 388 c 1,25,-1
 126 0 l 1,26,-1
 45 0 l 1,0,-1
EndSplineSet
Substitution2: "'case' Case-Sensitive Forms lookup 18 subtable" H
EndChar

StartChar: i
Encoding: 105 105 76
Width: 500
Flags: W
LayerCount: 2
Fore
SplineSet
305 205 m 2,0,1
 300 185 300 185 296.5 167 c 128,-1,2
 293 149 293 149 293 132 c 0,3,4
 293 104 293 104 307.5 85.5 c 128,-1,5
 322 67 322 67 363 67 c 0,6,7
 380 67 380 67 396 69.5 c 128,-1,8
 412 72 412 72 426 76 c 1,9,-1
 421 6 l 1,10,11
 414 4 414 4 395.5 0.5 c 128,-1,12
 377 -3 377 -3 343 -3 c 0,13,14
 306 -3 306 -3 280.5 7 c 128,-1,15
 255 17 255 17 239.5 34 c 128,-1,16
 224 51 224 51 217.5 74 c 128,-1,17
 211 97 211 97 211 124 c 0,18,19
 211 145 211 145 214.5 167 c 128,-1,20
 218 189 218 189 223 212 c 2,21,-1
 268 395 l 1,22,-1
 134 395 l 1,23,-1
 150 464 l 1,24,-1
 366 464 l 1,25,-1
 305 205 l 2,0,1
330 536 m 0,26,27
 304 536 304 536 287 551 c 128,-1,28
 270 566 270 566 270 595 c 0,29,30
 270 630 270 630 292 650 c 128,-1,31
 314 670 314 670 341 670 c 0,32,33
 367 670 367 670 384.5 654 c 128,-1,34
 402 638 402 638 402 609 c 0,35,36
 402 592 402 592 395.5 579 c 128,-1,37
 389 566 389 566 378.5 556 c 128,-1,38
 368 546 368 546 355.5 541 c 128,-1,39
 343 536 343 536 330 536 c 0,26,27
EndSplineSet
Substitution2: "'case' Case-Sensitive Forms lookup 18 subtable" I
Substitution2: "'locl' Localized Forms in Latin lookup 2 subtable" i.locl
Substitution2: "'locl' Localized Forms in Latin lookup 1 subtable" i.locl
Substitution2: "'locl' Localized Forms in Latin lookup 0 subtable" i.locl
EndChar

StartChar: j
Encoding: 106 106 77
Width: 500
Flags: W
LayerCount: 2
Fore
SplineSet
191 395 m 1,0,-1
 207 464 l 1,1,-1
 477 464 l 1,2,-1
 367 6 l 2,3,4
 344 -90 344 -90 290 -129 c 128,-1,5
 236 -168 236 -168 154 -168 c 0,6,7
 79 -168 79 -168 21 -132 c 1,8,-1
 53 -63 l 1,9,10
 63 -71 63 -71 76.5 -77 c 128,-1,11
 90 -83 90 -83 105 -87.5 c 128,-1,12
 120 -92 120 -92 135 -94.5 c 128,-1,13
 150 -97 150 -97 163 -97 c 0,14,15
 215 -97 215 -97 243 -74 c 128,-1,16
 271 -51 271 -51 285 8 c 2,17,-1
 379 395 l 1,18,-1
 191 395 l 1,0,-1
428 536 m 0,19,20
 402 536 402 536 385 551 c 128,-1,21
 368 566 368 566 368 595 c 0,22,23
 368 630 368 630 390 650 c 128,-1,24
 412 670 412 670 439 670 c 0,25,26
 465 670 465 670 482.5 654 c 128,-1,27
 500 638 500 638 500 609 c 0,28,29
 500 592 500 592 493.5 579 c 128,-1,30
 487 566 487 566 477 556 c 128,-1,31
 467 546 467 546 454 541 c 128,-1,32
 441 536 441 536 428 536 c 0,19,20
EndSplineSet
Substitution2: "'case' Case-Sensitive Forms lookup 18 subtable" J
EndChar

StartChar: k
Encoding: 107 107 78
Width: 500
Flags: W
LayerCount: 2
Fore
SplineSet
63 0 m 1,0,-1
 226 679 l 1,1,-1
 312 693 l 1,2,-1
 211 277 l 1,3,4
 271 321 271 321 333.5 369.5 c 128,-1,5
 396 418 396 418 447 464 c 1,6,-1
 545 464 l 1,7,8
 520 438 520 438 486.5 409 c 128,-1,9
 453 380 453 380 417.5 351.5 c 128,-1,10
 382 323 382 323 348 297 c 128,-1,11
 314 271 314 271 288 252 c 1,12,13
 311 232 311 232 335.5 203 c 128,-1,14
 360 174 360 174 382.5 140 c 128,-1,15
 405 106 405 106 424.5 70 c 128,-1,16
 444 34 444 34 456 0 c 1,17,-1
 367 0 l 1,18,19
 335 72 335 72 292 133 c 128,-1,20
 249 194 249 194 201 232 c 1,21,-1
 145 0 l 1,22,-1
 63 0 l 1,0,-1
EndSplineSet
Substitution2: "'case' Case-Sensitive Forms lookup 18 subtable" K
EndChar

StartChar: l
Encoding: 108 108 79
Width: 500
Flags: W
LayerCount: 2
Fore
SplineSet
313 618 m 1,0,-1
 179 618 l 1,1,-1
 196 688 l 1,2,-1
 412 688 l 1,3,-1
 292 189 l 2,4,5
 287 169 287 169 284 150.5 c 128,-1,6
 281 132 281 132 281 116 c 0,7,8
 281 87 281 87 295 73 c 128,-1,9
 309 59 309 59 347 59 c 0,10,11
 373 59 373 59 398 68 c 128,-1,12
 423 77 423 77 437 85 c 1,13,-1
 443 15 l 1,14,15
 429 7 429 7 397.5 -2 c 128,-1,16
 366 -11 366 -11 324 -11 c 0,17,18
 258 -11 258 -11 228.5 17.5 c 128,-1,19
 199 46 199 46 199 103 c 0,20,21
 199 144 199 144 212 196 c 2,22,-1
 313 618 l 1,0,-1
EndSplineSet
Substitution2: "'case' Case-Sensitive Forms lookup 18 subtable" L
EndChar

StartChar: m
Encoding: 109 109 80
Width: 500
Flags: W
LayerCount: 2
Fore
SplineSet
139 451 m 1,0,1
 202 474 202 474 254 474 c 0,2,3
 282 474 282 474 303.5 465.5 c 128,-1,4
 325 457 325 457 338 440 c 1,5,6
 387 474 387 474 434 474 c 0,7,8
 457 474 457 474 475.5 465 c 128,-1,9
 494 456 494 456 505.5 438 c 128,-1,10
 517 420 517 420 520 393 c 128,-1,11
 523 366 523 366 514 330 c 2,12,-1
 436 0 l 1,13,-1
 361 0 l 1,14,-1
 440 332 l 2,15,16
 449 368 449 368 439 387 c 128,-1,17
 429 406 429 406 406 406 c 0,18,19
 381 406 381 406 355 381 c 1,20,21
 355 370 355 370 354 357 c 128,-1,22
 353 344 353 344 349 330 c 2,23,-1
 313 179 l 1,24,-1
 238 179 l 1,25,-1
 275 331 l 2,26,27
 284 366 284 366 278 386 c 128,-1,28
 272 406 272 406 243 406 c 0,29,30
 225 406 225 406 201 397 c 1,31,-1
 105 0 l 1,32,-1
 31 0 l 1,33,-1
 139 451 l 1,0,1
EndSplineSet
Substitution2: "'case' Case-Sensitive Forms lookup 18 subtable" M
EndChar

StartChar: n
Encoding: 110 110 81
Width: 500
Flags: W
LayerCount: 2
Fore
SplineSet
145 0 m 1,0,-1
 63 0 l 1,1,-1
 170 447 l 1,2,3
 211 459 211 459 258 466.5 c 128,-1,4
 305 474 305 474 343 474 c 0,5,6
 383 474 383 474 412 463 c 128,-1,7
 441 452 441 452 459 432.5 c 128,-1,8
 477 413 477 413 485.5 386 c 128,-1,9
 494 359 494 359 494 327 c 0,10,11
 494 306 494 306 490 283.5 c 128,-1,12
 486 261 486 261 480 238 c 2,13,-1
 423 0 l 1,14,-1
 341 0 l 1,15,-1
 394 220 l 2,16,17
 400 245 400 245 406 270.5 c 128,-1,18
 412 296 412 296 412 320 c 0,19,20
 412 355 412 355 392 378.5 c 128,-1,21
 372 402 372 402 319 402 c 0,22,23
 296 402 296 402 274.5 399.5 c 128,-1,24
 253 397 253 397 239 392 c 1,25,-1
 145 0 l 1,0,-1
EndSplineSet
Substitution2: "'case' Case-Sensitive Forms lookup 18 subtable" N
EndChar

StartChar: o
Encoding: 111 111 82
Width: 500
Flags: W
LayerCount: 2
Fore
SplineSet
237 -11 m 0,0,1
 163 -11 163 -11 121.5 32 c 128,-1,2
 80 75 80 75 80 151 c 0,3,4
 80 203 80 203 94.5 260 c 128,-1,5
 109 317 109 317 141.5 365 c 128,-1,6
 174 413 174 413 225 444 c 128,-1,7
 276 475 276 475 348 475 c 0,8,9
 422 475 422 475 463.5 432 c 128,-1,10
 505 389 505 389 505 313 c 0,11,12
 505 261 505 261 490.5 204 c 128,-1,13
 476 147 476 147 443.5 99 c 128,-1,14
 411 51 411 51 360 20 c 128,-1,15
 309 -11 309 -11 237 -11 c 0,0,1
251 63 m 0,16,17
 291 63 291 63 323 85.5 c 128,-1,18
 355 108 355 108 377 143 c 128,-1,19
 399 178 399 178 410.5 221.5 c 128,-1,20
 422 265 422 265 422 306 c 0,21,22
 422 351 422 351 402 376.5 c 128,-1,23
 382 402 382 402 334 402 c 0,24,25
 294 402 294 402 262 379.5 c 128,-1,26
 230 357 230 357 208 321.5 c 128,-1,27
 186 286 186 286 174.5 242.5 c 128,-1,28
 163 199 163 199 163 158 c 0,29,30
 163 113 163 113 183 88 c 128,-1,31
 203 63 203 63 251 63 c 0,16,17
EndSplineSet
Substitution2: "'case' Case-Sensitive Forms lookup 18 subtable" O
Substitution2: "'ordn' Ordinals in Latin lookup 7 subtable" ordmasculine
EndChar

StartChar: p
Encoding: 112 112 83
Width: 500
Flags: W
LayerCount: 2
Fore
SplineSet
337 475 m 0,0,1
 380 475 380 475 412 462.5 c 128,-1,2
 444 450 444 450 464.5 428.5 c 128,-1,3
 485 407 485 407 495 377 c 128,-1,4
 505 347 505 347 505 312 c 0,5,6
 505 250 505 250 486.5 192 c 128,-1,7
 468 134 468 134 429 89 c 128,-1,8
 390 44 390 44 330.5 16.5 c 128,-1,9
 271 -11 271 -11 190 -11 c 0,10,11
 180 -11 180 -11 163.5 -8.5 c 128,-1,12
 147 -6 147 -6 138 -4 c 1,13,-1
 100 -165 l 1,14,-1
 18 -165 l 1,15,-1
 164 445 l 1,16,17
 182 452 182 452 204.5 458 c 128,-1,18
 227 464 227 464 250 467.5 c 128,-1,19
 273 471 273 471 295.5 473 c 128,-1,20
 318 475 318 475 337 475 c 0,0,1
156 68 m 1,21,22
 165 66 165 66 179.5 64.5 c 128,-1,23
 194 63 194 63 204 63 c 0,24,25
 255 63 255 63 295.5 82.5 c 128,-1,26
 336 102 336 102 364.5 135 c 128,-1,27
 393 168 393 168 408 211.5 c 128,-1,28
 423 255 423 255 423 302 c 0,29,30
 423 322 423 322 418.5 340.5 c 128,-1,31
 414 359 414 359 402 373.5 c 128,-1,32
 390 388 390 388 369 396.5 c 128,-1,33
 348 405 348 405 316 405 c 0,34,35
 294 405 294 405 271 401 c 128,-1,36
 248 397 248 397 235 394 c 1,37,-1
 156 68 l 1,21,22
EndSplineSet
Substitution2: "'case' Case-Sensitive Forms lookup 18 subtable" P
EndChar

StartChar: q
Encoding: 113 113 84
Width: 500
Flags: W
LayerCount: 2
Fore
SplineSet
291 -165 m 1,0,-1
 334 15 l 1,1,2
 313 4 313 4 287 -3.5 c 128,-1,3
 261 -11 261 -11 232 -11 c 0,4,5
 154 -11 154 -11 117 35 c 128,-1,6
 80 81 80 81 80 155 c 0,7,8
 80 215 80 215 100 272 c 128,-1,9
 120 329 120 329 160.5 374 c 128,-1,10
 201 419 201 419 262 446.5 c 128,-1,11
 323 474 323 474 404 474 c 0,12,13
 416 474 416 474 432.5 472.5 c 128,-1,14
 449 471 449 471 466.5 468 c 128,-1,15
 484 465 484 465 499.5 461 c 128,-1,16
 515 457 515 457 526 451 c 1,17,-1
 373 -165 l 1,18,-1
 291 -165 l 1,0,-1
254 57 m 0,19,20
 280 57 280 57 306.5 68 c 128,-1,21
 333 79 333 79 355 96 c 1,22,-1
 429 400 l 1,23,24
 417 402 417 402 406 403.5 c 128,-1,25
 395 405 395 405 387 405 c 0,26,27
 336 405 336 405 294.5 385 c 128,-1,28
 253 365 253 365 224 331.5 c 128,-1,29
 195 298 195 298 179 254.5 c 128,-1,30
 163 211 163 211 163 164 c 0,31,32
 163 144 163 144 166.5 125 c 128,-1,33
 170 106 170 106 179.5 91 c 128,-1,34
 189 76 189 76 207 66.5 c 128,-1,35
 225 57 225 57 254 57 c 0,19,20
EndSplineSet
Substitution2: "'case' Case-Sensitive Forms lookup 18 subtable" Q
EndChar

StartChar: r
Encoding: 114 114 85
Width: 500
Flags: W
LayerCount: 2
Fore
SplineSet
89 0 m 1,0,-1
 195 440 l 1,1,2
 301 474 301 474 408 474 c 0,3,4
 439 474 439 474 463 471.5 c 128,-1,5
 487 469 487 469 522 462 c 1,6,-1
 491 389 l 1,7,8
 476 393 476 393 463.5 395.5 c 128,-1,9
 451 398 451 398 440 399.5 c 128,-1,10
 429 401 429 401 417.5 401.5 c 128,-1,11
 406 402 406 402 391 402 c 0,12,13
 360 402 360 402 327.5 398 c 128,-1,14
 295 394 295 394 263 386 c 1,15,-1
 171 0 l 1,16,-1
 89 0 l 1,0,-1
EndSplineSet
Substitution2: "'case' Case-Sensitive Forms lookup 18 subtable" R
EndChar

StartChar: s
Encoding: 115 115 86
Width: 500
Flags: W
LayerCount: 2
Fore
SplineSet
242 58 m 0,0,1
 264 58 264 58 285.5 61.5 c 128,-1,2
 307 65 307 65 324 73 c 128,-1,3
 341 81 341 81 351.5 95 c 128,-1,4
 362 109 362 109 362 129 c 0,5,6
 362 157 362 157 338.5 173 c 128,-1,7
 315 189 315 189 273 209 c 0,8,9
 253 219 253 219 234 229 c 128,-1,10
 215 239 215 239 200.5 252 c 128,-1,11
 186 265 186 265 177 283.5 c 128,-1,12
 168 302 168 302 168 328 c 0,13,14
 168 395 168 395 220 435 c 128,-1,15
 272 475 272 475 367 475 c 0,16,17
 414 475 414 475 448.5 467 c 128,-1,18
 483 459 483 459 500 450 c 1,19,-1
 469 380 l 1,20,21
 454 389 454 389 423.5 397 c 128,-1,22
 393 405 393 405 355 405 c 0,23,24
 335 405 335 405 315.5 401.5 c 128,-1,25
 296 398 296 398 281 390 c 128,-1,26
 266 382 266 382 257 369 c 128,-1,27
 248 356 248 356 248 336 c 0,28,29
 248 312 248 312 272.5 295.5 c 128,-1,30
 297 279 297 279 334 263 c 0,31,32
 357 254 357 254 377 243 c 128,-1,33
 397 232 397 232 411.5 217.5 c 128,-1,34
 426 203 426 203 434 184 c 128,-1,35
 442 165 442 165 442 139 c 0,36,37
 442 101 442 101 427 72.5 c 128,-1,38
 412 44 412 44 385 25.5 c 128,-1,39
 358 7 358 7 320.5 -2.5 c 128,-1,40
 283 -12 283 -12 238 -12 c 0,41,42
 181 -12 181 -12 139.5 1 c 128,-1,43
 98 14 98 14 79 25 c 1,44,-1
 112 95 l 1,45,46
 128 84 128 84 162 71 c 128,-1,47
 196 58 196 58 242 58 c 0,0,1
EndSplineSet
Substitution2: "'case' Case-Sensitive Forms lookup 18 subtable" S
EndChar

StartChar: t
Encoding: 116 116 87
Width: 500
Flags: W
LayerCount: 2
Fore
SplineSet
439 13 m 1,0,1
 410 3 410 3 378.5 -4 c 128,-1,2
 347 -11 347 -11 312 -11 c 0,3,4
 283 -11 283 -11 258.5 -5 c 128,-1,5
 234 1 234 1 215.5 14.5 c 128,-1,6
 197 28 197 28 186.5 51 c 128,-1,7
 176 74 176 74 176 109 c 0,8,9
 176 131 176 131 179.5 155 c 128,-1,10
 183 179 183 179 189 204 c 2,11,-1
 236 395 l 1,12,-1
 138 395 l 1,13,-1
 154 464 l 1,14,-1
 253 464 l 1,15,-1
 284 594 l 1,16,-1
 370 608 l 1,17,-1
 335 464 l 1,18,-1
 513 464 l 1,19,-1
 497 395 l 1,20,-1
 318 395 l 1,21,-1
 271 196 l 2,22,23
 266 177 266 177 262 159 c 128,-1,24
 258 141 258 141 258 124 c 0,25,26
 258 86 258 86 275.5 73.5 c 128,-1,27
 293 61 293 61 325 61 c 0,28,29
 356 61 356 61 385.5 67.5 c 128,-1,30
 415 74 415 74 441 84 c 1,31,-1
 439 13 l 1,0,1
EndSplineSet
Substitution2: "'case' Case-Sensitive Forms lookup 18 subtable" T
EndChar

StartChar: u
Encoding: 117 117 88
Width: 500
Flags: W
LayerCount: 2
Fore
SplineSet
222 -10 m 0,0,1
 183 -10 183 -10 157 1.5 c 128,-1,2
 131 13 131 13 114.5 32.5 c 128,-1,3
 98 52 98 52 91 78.5 c 128,-1,4
 84 105 84 105 84 135 c 0,5,6
 84 158 84 158 88 181 c 128,-1,7
 92 204 92 204 97 227 c 2,8,-1
 154 464 l 1,9,-1
 237 464 l 1,10,-1
 184 245 l 2,11,12
 179 224 179 224 172.5 196.5 c 128,-1,13
 166 169 166 169 166 141 c 0,14,15
 166 125 166 125 169 110.5 c 128,-1,16
 172 96 172 96 180 84.5 c 128,-1,17
 188 73 188 73 202 66.5 c 128,-1,18
 216 60 216 60 238 60 c 0,19,20
 276 60 276 60 306 76.5 c 128,-1,21
 336 93 336 93 355 115 c 1,22,23
 356 129 356 129 357.5 144.5 c 128,-1,24
 359 160 359 160 364 178 c 2,25,-1
 433 464 l 1,26,-1
 515 464 l 1,27,-1
 445 171 l 2,28,29
 440 150 440 150 437 131 c 128,-1,30
 434 112 434 112 434 91 c 256,31,32
 434 70 434 70 437.5 50 c 128,-1,33
 441 30 441 30 450 5 c 1,34,-1
 377 -5 l 1,35,36
 372 5 372 5 367.5 17.5 c 128,-1,37
 363 30 363 30 361 44 c 1,38,39
 341 26 341 26 307 8 c 128,-1,40
 273 -10 273 -10 222 -10 c 0,0,1
EndSplineSet
Substitution2: "'case' Case-Sensitive Forms lookup 18 subtable" U
EndChar

StartChar: v
Encoding: 118 118 89
Width: 500
Flags: W
LayerCount: 2
Fore
SplineSet
193 0 m 1,0,1
 171 92 171 92 154 213.5 c 128,-1,2
 137 335 137 335 134 464 c 1,3,-1
 218 464 l 1,4,5
 219 420 219 420 222 370.5 c 128,-1,6
 225 321 225 321 230 271.5 c 128,-1,7
 235 222 235 222 241 176 c 128,-1,8
 247 130 247 130 254 93 c 1,9,10
 281 127 281 127 309.5 173 c 128,-1,11
 338 219 338 219 365 269 c 128,-1,12
 392 319 392 319 414 370 c 128,-1,13
 436 421 436 421 450 464 c 1,14,-1
 534 464 l 1,15,16
 514 405 514 405 484 342 c 128,-1,17
 454 279 454 279 418.5 217.5 c 128,-1,18
 383 156 383 156 344.5 100 c 128,-1,19
 306 44 306 44 269 0 c 1,20,-1
 193 0 l 1,0,1
EndSplineSet
Substitution2: "'case' Case-Sensitive Forms lookup 18 subtable" V
EndChar

StartChar: w
Encoding: 119 119 90
Width: 500
Flags: W
LayerCount: 2
Fore
SplineSet
372 107 m 1,0,1
 414 204 414 204 445 293.5 c 128,-1,2
 476 383 476 383 501 464 c 1,3,-1
 578 464 l 1,4,5
 561 414 561 414 540.5 356.5 c 128,-1,6
 520 299 520 299 496.5 239 c 128,-1,7
 473 179 473 179 447 118 c 128,-1,8
 421 57 421 57 394 0 c 1,9,-1
 326 0 l 1,10,11
 321 30 321 30 317.5 57.5 c 128,-1,12
 314 85 314 85 310.5 113.5 c 128,-1,13
 307 142 307 142 304 173 c 128,-1,14
 301 204 301 204 298 242 c 1,15,16
 274 201 274 201 255.5 170 c 128,-1,17
 237 139 237 139 220 111.5 c 128,-1,18
 203 84 203 84 186 57.5 c 128,-1,19
 169 31 169 31 148 0 c 1,20,-1
 80 0 l 1,21,22
 82 123 82 123 92 243.5 c 128,-1,23
 102 364 102 364 116 464 c 1,24,-1
 194 464 l 1,25,26
 187 425 187 425 181.5 387 c 128,-1,27
 176 349 176 349 171 306.5 c 128,-1,28
 166 264 166 264 161 214 c 128,-1,29
 156 164 156 164 151 101 c 1,30,31
 176 143 176 143 194.5 174.5 c 128,-1,32
 213 206 213 206 229 233.5 c 128,-1,33
 245 261 245 261 260 288.5 c 128,-1,34
 275 316 275 316 294 351 c 1,35,-1
 352 351 l 1,36,37
 353 315 353 315 355 288 c 128,-1,38
 357 261 357 261 359.5 234.5 c 128,-1,39
 362 208 362 208 365.5 178.5 c 128,-1,40
 369 149 369 149 372 107 c 1,0,1
EndSplineSet
Substitution2: "'case' Case-Sensitive Forms lookup 18 subtable" W
EndChar

StartChar: x
Encoding: 120 120 91
Width: 500
Flags: W
LayerCount: 2
Fore
SplineSet
308 298 m 1,0,1
 329 321 329 321 350.5 345 c 128,-1,2
 372 369 372 369 392 391.5 c 128,-1,3
 412 414 412 414 428 432.5 c 128,-1,4
 444 451 444 451 453 464 c 1,5,-1
 542 464 l 1,6,7
 536 456 536 456 521.5 438.5 c 128,-1,8
 507 421 507 421 488 399 c 128,-1,9
 469 377 469 377 447.5 352.5 c 128,-1,10
 426 328 426 328 406 306 c 128,-1,11
 386 284 386 284 369.5 265.5 c 128,-1,12
 353 247 353 247 344 237 c 1,13,14
 373 180 373 180 400 123 c 128,-1,15
 427 66 427 66 450 0 c 1,16,-1
 363 0 l 1,17,18
 345 49 345 49 327.5 90 c 128,-1,19
 310 131 310 131 288 176 c 1,20,-1
 114 0 l 1,21,-1
 18 0 l 1,22,-1
 251 239 l 1,23,-1
 136 464 l 1,24,-1
 228 464 l 1,25,-1
 308 298 l 1,0,1
EndSplineSet
Substitution2: "'case' Case-Sensitive Forms lookup 18 subtable" X
EndChar

StartChar: y
Encoding: 121 121 92
Width: 500
Flags: W
LayerCount: 2
Fore
SplineSet
283 75 m 1,0,1
 317 129 317 129 344.5 186.5 c 128,-1,2
 372 244 372 244 393 296.5 c 128,-1,3
 414 349 414 349 428.5 393 c 128,-1,4
 443 437 443 437 449 464 c 1,5,-1
 536 464 l 1,6,7
 526 430 526 430 508 379.5 c 128,-1,8
 490 329 490 329 464.5 270.5 c 128,-1,9
 439 212 439 212 407 150.5 c 128,-1,10
 375 89 375 89 338 34 c 0,11,12
 310 -8 310 -8 281.5 -45 c 128,-1,13
 253 -82 253 -82 220.5 -109.5 c 128,-1,14
 188 -137 188 -137 148.5 -152.5 c 128,-1,15
 109 -168 109 -168 60 -168 c 0,16,17
 35 -168 35 -168 14 -162 c 128,-1,18
 -7 -156 -7 -156 -18 -148 c 1,19,-1
 11 -80 l 1,20,21
 19 -88 19 -88 34.5 -92.5 c 128,-1,22
 50 -97 50 -97 69 -97 c 0,23,24
 121 -97 121 -97 156 -76 c 128,-1,25
 191 -55 191 -55 225 -6 c 1,26,27
 192 103 192 103 167 222 c 128,-1,28
 142 341 142 341 137 464 c 1,29,-1
 221 464 l 1,30,31
 222 424 222 424 227 376 c 128,-1,32
 232 328 232 328 240.5 277 c 128,-1,33
 249 226 249 226 260 174 c 128,-1,34
 271 122 271 122 283 75 c 1,0,1
EndSplineSet
Substitution2: "'case' Case-Sensitive Forms lookup 18 subtable" Y
EndChar

StartChar: z
Encoding: 122 122 93
Width: 500
Flags: W
LayerCount: 2
Fore
SplineSet
494 405 m 1,0,1
 468 382 468 382 424 339.5 c 128,-1,2
 380 297 380 297 332.5 248 c 128,-1,3
 285 199 285 199 241 151.5 c 128,-1,4
 197 104 197 104 171 70 c 1,5,-1
 421 70 l 1,6,-1
 405 0 l 1,7,-1
 58 0 l 1,8,-1
 71 54 l 1,9,10
 98 93 98 93 138.5 140.5 c 128,-1,11
 179 188 179 188 223.5 235.5 c 128,-1,12
 268 283 268 283 311 325 c 128,-1,13
 354 367 354 367 386 395 c 1,14,-1
 165 395 l 1,15,-1
 183 464 l 1,16,-1
 509 464 l 1,17,-1
 494 405 l 1,0,1
EndSplineSet
Substitution2: "'case' Case-Sensitive Forms lookup 18 subtable" Z
EndChar

StartChar: braceleft
Encoding: 123 123 94
Width: 500
Flags: W
LayerCount: 2
Fore
SplineSet
89 235 m 1,0,-1
 105 299 l 1,1,-1
 146 299 l 2,2,3
 166 299 166 299 182.5 306.5 c 128,-1,4
 199 314 199 314 212 326.5 c 128,-1,5
 225 339 225 339 233.5 354.5 c 128,-1,6
 242 370 242 370 246 386 c 2,7,-1
 284 547 l 2,8,9
 294 588 294 588 308.5 617 c 128,-1,10
 323 646 323 646 347 664 c 128,-1,11
 371 682 371 682 405 690.5 c 128,-1,12
 439 699 439 699 488 699 c 2,13,-1
 572 699 l 1,14,-1
 555 634 l 1,15,-1
 475 634 l 2,16,17
 451 634 451 634 432 631 c 128,-1,18
 413 628 413 628 399.5 618.5 c 128,-1,19
 386 609 386 609 376 591.5 c 128,-1,20
 366 574 366 574 360 546 c 2,21,-1
 327 408 l 2,22,23
 313 349 313 349 291.5 316 c 128,-1,24
 270 283 270 283 233 267 c 1,25,26
 252 251 252 251 260.5 230.5 c 128,-1,27
 269 210 269 210 269 187 c 0,28,29
 269 171 269 171 266 156 c 128,-1,30
 263 141 263 141 260 126 c 2,31,-1
 227 -12 l 2,32,33
 221 -38 221 -38 221 -52 c 0,34,35
 221 -81 221 -81 239.5 -90.5 c 128,-1,36
 258 -100 258 -100 298 -100 c 2,37,-1
 382 -100 l 1,38,-1
 365 -165 l 1,39,-1
 278 -165 l 2,40,41
 213 -165 213 -165 178.5 -142.5 c 128,-1,42
 144 -120 144 -120 144 -66 c 0,43,44
 144 -41 144 -41 151 -13 c 2,45,-1
 189 148 l 2,46,47
 193 161 193 161 193 174 c 0,48,49
 193 199 193 199 178.5 217 c 128,-1,50
 164 235 164 235 129 235 c 2,51,-1
 89 235 l 1,0,-1
EndSplineSet
Substitution2: "'case' Case-Sensitive Forms lookup 17 subtable" Braceleft
EndChar

StartChar: bar
Encoding: 124 124 95
Width: 500
Flags: W
LayerCount: 2
Fore
SplineSet
361 699 m 1,0,-1
 439 699 l 1,1,-1
 231 -165 l 1,2,-1
 153 -165 l 1,3,-1
 361 699 l 1,0,-1
EndSplineSet
EndChar

StartChar: braceright
Encoding: 125 125 96
Width: 500
Flags: W
LayerCount: 2
Fore
SplineSet
482 299 m 1,0,-1
 466 235 l 1,1,-1
 426 235 l 2,2,3
 406 235 406 235 389 227.5 c 128,-1,4
 372 220 372 220 359.5 207.5 c 128,-1,5
 347 195 347 195 338.5 179.5 c 128,-1,6
 330 164 330 164 326 148 c 2,7,-1
 288 -13 l 2,8,9
 278 -54 278 -54 263 -83 c 128,-1,10
 248 -112 248 -112 224.5 -130 c 128,-1,11
 201 -148 201 -148 166.5 -156.5 c 128,-1,12
 132 -165 132 -165 84 -165 c 2,13,-1
 0 -165 l 1,14,-1
 16 -100 l 1,15,-1
 96 -100 l 2,16,17
 121 -100 121 -100 139.5 -97 c 128,-1,18
 158 -94 158 -94 172 -84.5 c 128,-1,19
 186 -75 186 -75 196 -57.5 c 128,-1,20
 206 -40 206 -40 212 -12 c 2,21,-1
 245 126 l 2,22,23
 259 185 259 185 280 218 c 128,-1,24
 301 251 301 251 338 267 c 1,25,26
 319 283 319 283 311 303.5 c 128,-1,27
 303 324 303 324 303 347 c 0,28,29
 303 363 303 363 305.5 378 c 128,-1,30
 308 393 308 393 312 408 c 2,31,-1
 345 546 l 2,32,33
 347 559 347 559 349 568.5 c 128,-1,34
 351 578 351 578 351 586 c 0,35,36
 351 615 351 615 332.5 624.5 c 128,-1,37
 314 634 314 634 273 634 c 2,38,-1
 189 634 l 1,39,-1
 206 699 l 1,40,-1
 294 699 l 2,41,42
 359 699 359 699 393.5 676.5 c 128,-1,43
 428 654 428 654 428 600 c 0,44,45
 428 589 428 589 426 575.5 c 128,-1,46
 424 562 424 562 421 547 c 2,47,-1
 382 386 l 2,48,49
 379 371 379 371 379 360 c 0,50,51
 379 335 379 335 393 317 c 128,-1,52
 407 299 407 299 442 299 c 2,53,-1
 482 299 l 1,0,-1
EndSplineSet
Substitution2: "'case' Case-Sensitive Forms lookup 17 subtable" Braceright
EndChar

StartChar: asciitilde
Encoding: 126 126 97
Width: 500
Flags: W
LayerCount: 2
Fore
SplineSet
308 300 m 0,0,1
 329 286 329 286 345 274 c 128,-1,2
 361 262 361 262 385 262 c 0,3,4
 400 262 400 262 411.5 269 c 128,-1,5
 423 276 423 276 432.5 286.5 c 128,-1,6
 442 297 442 297 449 309 c 128,-1,7
 456 321 456 321 461 332 c 1,8,-1
 518 314 l 1,9,10
 511 294 511 294 499 272.5 c 128,-1,11
 487 251 487 251 469 232 c 128,-1,12
 451 213 451 213 427.5 201 c 128,-1,13
 404 189 404 189 373 189 c 0,14,15
 341 189 341 189 321.5 201.5 c 128,-1,16
 302 214 302 214 285 226 c 0,17,18
 265 241 265 241 248.5 252.5 c 128,-1,19
 232 264 232 264 208 264 c 0,20,21
 193 264 193 264 181 257 c 128,-1,22
 169 250 169 250 160 239.5 c 128,-1,23
 151 229 151 229 144 216.5 c 128,-1,24
 137 204 137 204 132 194 c 1,25,-1
 75 212 l 1,26,27
 82 231 82 231 94 253 c 128,-1,28
 106 275 106 275 124 294 c 128,-1,29
 142 313 142 313 165.5 325 c 128,-1,30
 189 337 189 337 220 337 c 0,31,32
 252 337 252 337 271.5 325 c 128,-1,33
 291 313 291 313 308 300 c 0,0,1
EndSplineSet
EndChar

StartChar: Euro
Encoding: 8364 8364 98
Width: 500
Flags: W
LayerCount: 2
Fore
SplineSet
221 203 m 1,0,-1
 221 187 l 2,1,2
 221 149 221 149 230.5 124.5 c 128,-1,3
 240 100 240 100 256 86 c 128,-1,4
 272 72 272 72 294 66 c 128,-1,5
 316 60 316 60 341 60 c 0,6,7
 382 60 382 60 410 67 c 128,-1,8
 438 74 438 74 460 85 c 1,9,-1
 463 14 l 1,10,11
 457 11 457 11 443.5 6.5 c 128,-1,12
 430 2 430 2 412 -2 c 128,-1,13
 394 -6 394 -6 373 -9 c 128,-1,14
 352 -12 352 -12 331 -12 c 0,15,16
 237 -12 237 -12 188 36.5 c 128,-1,17
 139 85 139 85 139 182 c 2,18,-1
 139 203 l 1,19,-1
 57 203 l 1,20,-1
 72 267 l 1,21,-1
 144 267 l 1,22,23
 146 289 146 289 151 311.5 c 128,-1,24
 156 334 156 334 162 357 c 1,25,-1
 93 357 l 1,26,-1
 108 421 l 1,27,-1
 183 421 l 1,28,29
 201 465 201 465 227 503 c 128,-1,30
 253 541 253 541 288.5 569.5 c 128,-1,31
 324 598 324 598 369 614 c 128,-1,32
 414 630 414 630 470 630 c 0,33,34
 505 630 505 630 529.5 625 c 128,-1,35
 554 620 554 620 577 610 c 1,36,-1
 544 543 l 1,37,38
 530 551 530 551 512 555.5 c 128,-1,39
 494 560 494 560 459 560 c 256,40,41
 424 560 424 560 395.5 549.5 c 128,-1,42
 367 539 367 539 343.5 520 c 128,-1,43
 320 501 320 501 301.5 476 c 128,-1,44
 283 451 283 451 270 421 c 1,45,-1
 481 421 l 1,46,-1
 455 357 l 1,47,-1
 246 357 l 1,48,49
 238 335 238 335 233.5 312 c 128,-1,50
 229 289 229 289 227 267 c 1,51,-1
 419 267 l 1,52,-1
 394 203 l 1,53,-1
 221 203 l 1,0,-1
EndSplineSet
EndChar

StartChar: florin
Encoding: 402 402 100
Width: 500
Flags: W
LayerCount: 2
Fore
SplineSet
344 395 m 1,0,-1
 263 18 l 2,1,2
 252 -32 252 -32 237.5 -67.5 c 128,-1,3
 223 -103 223 -103 201 -125.5 c 128,-1,4
 179 -148 179 -148 147.5 -158 c 128,-1,5
 116 -168 116 -168 73 -168 c 0,6,7
 58 -168 58 -168 38 -163 c 128,-1,8
 18 -158 18 -158 9 -153 c 1,9,-1
 28 -83 l 1,10,11
 51 -96 51 -96 86 -96 c 0,12,13
 126 -96 126 -96 148 -65 c 128,-1,14
 170 -34 170 -34 181 17 c 2,15,-1
 261 395 l 1,16,-1
 161 395 l 1,17,-1
 178 464 l 1,18,-1
 276 464 l 1,19,-1
 285 506 l 2,20,21
 304 596 304 596 352.5 644.5 c 128,-1,22
 401 693 401 693 497 693 c 0,23,24
 528 693 528 693 556 687 c 128,-1,25
 584 681 584 681 598 673 c 1,26,-1
 565 607 l 1,27,28
 557 611 557 611 540.5 616.5 c 128,-1,29
 524 622 524 622 489 622 c 0,30,31
 460 622 460 622 439.5 613.5 c 128,-1,32
 419 605 419 605 404.5 589.5 c 128,-1,33
 390 574 390 574 381.5 552.5 c 128,-1,34
 373 531 373 531 367 505 c 2,35,-1
 358 464 l 1,36,-1
 546 464 l 1,37,-1
 529 395 l 1,38,-1
 344 395 l 1,0,-1
EndSplineSet
EndChar

StartChar: quotedblbase
Encoding: 8222 8222 101
Width: 500
Flags: W
LayerCount: 2
Fore
SplineSet
31 -74 m 1,0,1
 65 -67 65 -67 93 -56 c 128,-1,2
 121 -45 121 -45 134 -10 c 1,3,4
 106 -8 106 -8 92 12 c 128,-1,5
 78 32 78 32 78 55 c 0,6,7
 78 80 78 80 94 100.5 c 128,-1,8
 110 121 110 121 144 121 c 0,9,10
 173 121 173 121 194 101.5 c 128,-1,11
 215 82 215 82 215 38 c 0,12,13
 215 13 215 13 204.5 -14 c 128,-1,14
 194 -41 194 -41 172.5 -65 c 128,-1,15
 151 -89 151 -89 119.5 -107 c 128,-1,16
 88 -125 88 -125 46 -132 c 1,17,-1
 31 -74 l 1,0,1
263 -74 m 1,18,19
 297 -67 297 -67 325 -56 c 128,-1,20
 353 -45 353 -45 366 -10 c 1,21,22
 339 -8 339 -8 324.5 12 c 128,-1,23
 310 32 310 32 310 55 c 0,24,25
 310 80 310 80 326 100.5 c 128,-1,26
 342 121 342 121 376 121 c 0,27,28
 405 121 405 121 426 101.5 c 128,-1,29
 447 82 447 82 447 38 c 0,30,31
 447 13 447 13 436.5 -14 c 128,-1,32
 426 -41 426 -41 404.5 -65 c 128,-1,33
 383 -89 383 -89 351.5 -107 c 128,-1,34
 320 -125 320 -125 278 -132 c 1,35,-1
 263 -74 l 1,18,19
EndSplineSet
EndChar

StartChar: ellipsis
Encoding: 8230 8230 102
Width: 500
Flags: W
LayerCount: 2
Fore
SplineSet
237 -12 m 0,0,1
 217 -12 217 -12 203.5 0 c 128,-1,2
 190 12 190 12 190 35 c 0,3,4
 190 64 190 64 206.5 80 c 128,-1,5
 223 96 223 96 246 96 c 0,6,7
 266 96 266 96 280 83.5 c 128,-1,8
 294 71 294 71 294 47 c 0,9,10
 294 20 294 20 276 4 c 128,-1,11
 258 -12 258 -12 237 -12 c 0,0,1
405 -12 m 0,12,13
 385 -12 385 -12 371.5 0 c 128,-1,14
 358 12 358 12 358 35 c 0,15,16
 358 64 358 64 374.5 80 c 128,-1,17
 391 96 391 96 414 96 c 0,18,19
 434 96 434 96 448 83.5 c 128,-1,20
 462 71 462 71 462 47 c 0,21,22
 462 20 462 20 444 4 c 128,-1,23
 426 -12 426 -12 405 -12 c 0,12,13
71 -12 m 0,24,25
 51 -12 51 -12 37.5 0 c 128,-1,26
 24 12 24 12 24 35 c 0,27,28
 24 64 24 64 40.5 80 c 128,-1,29
 57 96 57 96 80 96 c 0,30,31
 100 96 100 96 114 83.5 c 128,-1,32
 128 71 128 71 128 47 c 0,33,34
 128 20 128 20 110 4 c 128,-1,35
 92 -12 92 -12 71 -12 c 0,24,25
EndSplineSet
EndChar

StartChar: dagger
Encoding: 8224 8224 103
Width: 500
Flags: W
LayerCount: 2
Fore
SplineSet
351 356 m 1,0,-1
 296 129 l 2,1,2
 277 54 277 54 259.5 -7 c 128,-1,3
 242 -68 242 -68 219 -129 c 1,4,-1
 178 -129 l 1,5,6
 185 -68 185 -68 195.5 -7 c 128,-1,7
 206 54 206 54 224 129 c 2,8,-1
 280 356 l 1,9,-1
 138 356 l 1,10,-1
 154 425 l 1,11,-1
 296 425 l 1,12,-1
 342 619 l 1,13,-1
 413 619 l 1,14,-1
 367 425 l 1,15,-1
 509 425 l 1,16,-1
 493 356 l 1,17,-1
 351 356 l 1,0,-1
EndSplineSet
EndChar

StartChar: daggerdbl
Encoding: 8225 8225 104
Width: 500
Flags: W
LayerCount: 2
Fore
SplineSet
294 120 m 1,0,1
 277 47 277 47 259 -11.5 c 128,-1,2
 241 -70 241 -70 219 -129 c 1,3,-1
 178 -129 l 1,4,5
 184 -70 184 -70 194.5 -11.5 c 128,-1,6
 205 47 205 47 223 120 c 1,7,-1
 81 120 l 1,8,-1
 97 188 l 1,9,-1
 239 188 l 1,10,-1
 280 356 l 1,11,-1
 138 356 l 1,12,-1
 154 425 l 1,13,-1
 296 425 l 1,14,-1
 342 619 l 1,15,-1
 414 619 l 1,16,-1
 367 425 l 1,17,-1
 509 425 l 1,18,-1
 493 356 l 1,19,-1
 351 356 l 1,20,-1
 310 188 l 1,21,-1
 452 188 l 1,22,-1
 436 120 l 1,23,-1
 294 120 l 1,0,1
EndSplineSet
EndChar

StartChar: circumflex
Encoding: 710 710 105
Width: 500
Flags: W
LayerCount: 2
Fore
SplineSet
372 596 m 1,0,-1
 272 522 l 1,1,-1
 243 563 l 1,2,-1
 388 687 l 1,3,-1
 482 555 l 1,4,-1
 443 518 l 1,5,-1
 372 596 l 1,0,-1
EndSplineSet
EndChar

StartChar: perthousand
Encoding: 8240 8240 106
Width: 500
Flags: W
LayerCount: 2
Fore
SplineSet
180 405 m 0,0,1
 191 405 191 405 201.5 420.5 c 128,-1,2
 212 436 212 436 220 459 c 128,-1,3
 228 482 228 482 233 507 c 128,-1,4
 238 532 238 532 238 552 c 0,5,6
 238 566 238 566 234.5 575 c 128,-1,7
 231 584 231 584 223 584 c 0,8,9
 212 584 212 584 201.5 568.5 c 128,-1,10
 191 553 191 553 183 530.5 c 128,-1,11
 175 508 175 508 170 482.5 c 128,-1,12
 165 457 165 457 165 438 c 0,13,14
 165 424 165 424 169 414.5 c 128,-1,15
 173 405 173 405 180 405 c 0,0,1
76 205 m 1,16,-1
 58 250 l 1,17,-1
 580 546 l 1,18,-1
 599 501 l 1,19,-1
 76 205 l 1,16,-1
171 357 m 0,20,21
 138 357 138 357 126 380.5 c 128,-1,22
 114 404 114 404 114 439 c 0,23,24
 114 470 114 470 121.5 504 c 128,-1,25
 129 538 129 538 144.5 566.5 c 128,-1,26
 160 595 160 595 183 613.5 c 128,-1,27
 206 632 206 632 236 632 c 0,28,29
 268 632 268 632 280 608.5 c 128,-1,30
 292 585 292 585 292 550 c 0,31,32
 292 520 292 520 284 486 c 128,-1,33
 276 452 276 452 261 423.5 c 128,-1,34
 246 395 246 395 223.5 376 c 128,-1,35
 201 357 201 357 171 357 c 0,20,21
202 35 m 0,36,37
 213 35 213 35 223.5 50.5 c 128,-1,38
 234 66 234 66 242 88.5 c 128,-1,39
 250 111 250 111 255 136 c 128,-1,40
 260 161 260 161 260 181 c 0,41,42
 260 195 260 195 256.5 204 c 128,-1,43
 253 213 253 213 245 213 c 0,44,45
 234 213 234 213 223.5 197.5 c 128,-1,46
 213 182 213 182 205 159.5 c 128,-1,47
 197 137 197 137 192 111.5 c 128,-1,48
 187 86 187 86 187 67 c 0,49,50
 187 53 187 53 190.5 44 c 128,-1,51
 194 35 194 35 202 35 c 0,36,37
192 -13 m 0,52,53
 159 -13 159 -13 147.5 10.5 c 128,-1,54
 136 34 136 34 136 69 c 0,55,56
 136 99 136 99 143.5 133 c 128,-1,57
 151 167 151 167 166.5 195.5 c 128,-1,58
 182 224 182 224 204.5 243 c 128,-1,59
 227 262 227 262 257 262 c 0,60,61
 289 262 289 262 301 238 c 128,-1,62
 313 214 313 214 313 179 c 0,63,64
 313 149 313 149 305 115 c 128,-1,65
 297 81 297 81 282 52.5 c 128,-1,66
 267 24 267 24 244.5 5.5 c 128,-1,67
 222 -13 222 -13 192 -13 c 0,52,53
399 35 m 0,68,69
 410 35 410 35 420.5 50.5 c 128,-1,70
 431 66 431 66 439 88.5 c 128,-1,71
 447 111 447 111 452 136 c 128,-1,72
 457 161 457 161 457 181 c 0,73,74
 457 195 457 195 453.5 204 c 128,-1,75
 450 213 450 213 442 213 c 0,76,77
 431 213 431 213 420.5 197.5 c 128,-1,78
 410 182 410 182 402 159.5 c 128,-1,79
 394 137 394 137 389 111.5 c 128,-1,80
 384 86 384 86 384 67 c 0,81,82
 384 53 384 53 387.5 44 c 128,-1,83
 391 35 391 35 399 35 c 0,68,69
389 -13 m 0,84,85
 357 -13 357 -13 345 10.5 c 128,-1,86
 333 34 333 34 333 69 c 0,87,88
 333 99 333 99 340.5 133 c 128,-1,89
 348 167 348 167 363.5 195.5 c 128,-1,90
 379 224 379 224 402 243 c 128,-1,91
 425 262 425 262 455 262 c 0,92,93
 487 262 487 262 499 238 c 128,-1,94
 511 214 511 214 511 179 c 0,95,96
 511 149 511 149 503 115 c 128,-1,97
 495 81 495 81 480 52.5 c 128,-1,98
 465 24 465 24 442 5.5 c 128,-1,99
 419 -13 419 -13 389 -13 c 0,84,85
EndSplineSet
EndChar

StartChar: guilsinglleft
Encoding: 8249 8249 108
Width: 500
Flags: W
LayerCount: 2
Fore
SplineSet
346 82 m 1,0,-1
 291 56 l 1,1,-1
 186 259 l 1,2,-1
 367 451 l 1,3,-1
 419 420 l 1,4,-1
 279 250 l 1,5,-1
 346 82 l 1,0,-1
EndSplineSet
Substitution2: "'case' Case-Sensitive Forms lookup 17 subtable" Guilsinglleft
EndChar

StartChar: OE
Encoding: 338 338 109
Width: 500
Flags: W
LayerCount: 2
Fore
SplineSet
377 547 m 1,0,1
 366 550 366 550 356 552 c 128,-1,2
 346 554 346 554 336 554 c 0,3,4
 305 554 305 554 278.5 537.5 c 128,-1,5
 252 521 252 521 230.5 493.5 c 128,-1,6
 209 466 209 466 193 429.5 c 128,-1,7
 177 393 177 393 166 352.5 c 128,-1,8
 155 312 155 312 149.5 270 c 128,-1,9
 144 228 144 228 144 190 c 0,10,11
 144 134 144 134 162 99.5 c 128,-1,12
 180 65 180 65 219 65 c 0,13,14
 239 65 239 65 250 68 c 128,-1,15
 261 71 261 71 263 72 c 2,16,-1
 377 547 l 1,0,1
202 -6 m 0,17,18
 165 -6 165 -6 138.5 8 c 128,-1,19
 112 22 112 22 94.5 47.5 c 128,-1,20
 77 73 77 73 69 108 c 128,-1,21
 61 143 61 143 61 185 c 0,22,23
 61 251 61 251 78 328 c 128,-1,24
 95 405 95 405 130.5 471 c 128,-1,25
 166 537 166 537 221.5 581 c 128,-1,26
 277 625 277 625 354 625 c 0,27,28
 366 625 366 625 380 623 c 128,-1,29
 394 621 394 621 408 619 c 2,30,-1
 601 619 l 1,31,-1
 584 549 l 1,32,-1
 456 549 l 1,33,-1
 411 359 l 1,34,-1
 515 359 l 1,35,-1
 498 289 l 1,36,-1
 394 289 l 1,37,-1
 341 70 l 1,38,-1
 482 70 l 1,39,-1
 465 0 l 1,40,-1
 259 0 l 1,41,42
 229 -6 229 -6 202 -6 c 0,17,18
EndSplineSet
EndChar

StartChar: quoteleft
Encoding: 8216 8216 110
Width: 500
Flags: W
LayerCount: 2
Fore
SplineSet
363 573 m 1,0,1
 388 569 388 569 401 550 c 128,-1,2
 414 531 414 531 414 507 c 0,3,4
 414 473 414 473 392.5 450 c 128,-1,5
 371 427 371 427 334 427 c 0,6,7
 300 427 300 427 282.5 450.5 c 128,-1,8
 265 474 265 474 265 509 c 0,9,10
 265 537 265 537 277.5 569.5 c 128,-1,11
 290 602 290 602 315.5 631 c 128,-1,12
 341 660 341 660 381 681.5 c 128,-1,13
 421 703 421 703 476 710 c 1,14,-1
 483 646 l 1,15,16
 466 644 466 644 447.5 639 c 128,-1,17
 429 634 429 634 412.5 625.5 c 128,-1,18
 396 617 396 617 382.5 604 c 128,-1,19
 369 591 369 591 363 573 c 1,0,1
EndSplineSet
EndChar

StartChar: quoteright
Encoding: 8217 8217 111
Width: 500
Flags: W
LayerCount: 2
Fore
SplineSet
357 561 m 1,0,1
 333 565 333 565 319.5 584 c 128,-1,2
 306 603 306 603 306 627 c 0,3,4
 306 661 306 661 328 684 c 128,-1,5
 350 707 350 707 387 707 c 0,6,7
 420 707 420 707 437.5 683.5 c 128,-1,8
 455 660 455 660 455 625 c 0,9,10
 455 596 455 596 443 564 c 128,-1,11
 431 532 431 532 405.5 503 c 128,-1,12
 380 474 380 474 340 452.5 c 128,-1,13
 300 431 300 431 245 424 c 1,14,-1
 238 488 l 1,15,16
 255 490 255 490 273 495 c 128,-1,17
 291 500 291 500 307.5 508.5 c 128,-1,18
 324 517 324 517 337.5 530 c 128,-1,19
 351 543 351 543 357 561 c 1,0,1
EndSplineSet
EndChar

StartChar: quotedblleft
Encoding: 8220 8220 112
Width: 500
Flags: W
LayerCount: 2
Fore
SplineSet
572 635 m 1,0,1
 555 631 555 631 539 627.5 c 128,-1,2
 523 624 523 624 509.5 617 c 128,-1,3
 496 610 496 610 485.5 599.5 c 128,-1,4
 475 589 475 589 469 571 c 1,5,6
 496 569 496 569 510.5 549 c 128,-1,7
 525 529 525 529 525 505 c 0,8,9
 525 480 525 480 509 459.5 c 128,-1,10
 493 439 493 439 459 439 c 0,11,12
 430 439 430 439 409 459 c 128,-1,13
 388 479 388 479 388 523 c 0,14,15
 388 548 388 548 398.5 575 c 128,-1,16
 409 602 409 602 430.5 626 c 128,-1,17
 452 650 452 650 483.5 668 c 128,-1,18
 515 686 515 686 557 693 c 1,19,-1
 572 635 l 1,0,1
339 635 m 1,20,21
 322 631 322 631 306.5 627.5 c 128,-1,22
 291 624 291 624 277.5 617 c 128,-1,23
 264 610 264 610 253.5 599.5 c 128,-1,24
 243 589 243 589 237 571 c 1,25,26
 264 569 264 569 278.5 549 c 128,-1,27
 293 529 293 529 293 505 c 0,28,29
 293 480 293 480 276.5 459.5 c 128,-1,30
 260 439 260 439 227 439 c 0,31,32
 198 439 198 439 176.5 459 c 128,-1,33
 155 479 155 479 155 523 c 0,34,35
 155 548 155 548 166 575 c 128,-1,36
 177 602 177 602 198 626 c 128,-1,37
 219 650 219 650 251 668 c 128,-1,38
 283 686 283 686 325 693 c 1,39,-1
 339 635 l 1,20,21
EndSplineSet
EndChar

StartChar: quotedblright
Encoding: 8221 8221 113
Width: 500
Flags: W
LayerCount: 2
Fore
SplineSet
142 497 m 1,0,1
 159 500 159 500 174.5 504 c 128,-1,2
 190 508 190 508 203.5 514.5 c 128,-1,3
 217 521 217 521 228 532 c 128,-1,4
 239 543 239 543 245 561 c 1,5,6
 217 563 217 563 202.5 583 c 128,-1,7
 188 603 188 603 188 626 c 0,8,9
 188 651 188 651 204.5 671.5 c 128,-1,10
 221 692 221 692 255 692 c 0,11,12
 284 692 284 692 305 672 c 128,-1,13
 326 652 326 652 326 608 c 0,14,15
 326 583 326 583 315.5 556 c 128,-1,16
 305 529 305 529 283.5 505 c 128,-1,17
 262 481 262 481 230 463 c 128,-1,18
 198 445 198 445 156 438 c 1,19,-1
 142 497 l 1,0,1
374 497 m 1,20,21
 391 500 391 500 406.5 504 c 128,-1,22
 422 508 422 508 435.5 514.5 c 128,-1,23
 449 521 449 521 460 532 c 128,-1,24
 471 543 471 543 477 561 c 1,25,26
 449 563 449 563 435 583 c 128,-1,27
 421 603 421 603 421 626 c 0,28,29
 421 651 421 651 437 671.5 c 128,-1,30
 453 692 453 692 487 692 c 0,31,32
 516 692 516 692 537 672 c 128,-1,33
 558 652 558 652 558 608 c 0,34,35
 558 583 558 583 547.5 556 c 128,-1,36
 537 529 537 529 515.5 505 c 128,-1,37
 494 481 494 481 462 463 c 128,-1,38
 430 445 430 445 388 438 c 1,39,-1
 374 497 l 1,20,21
EndSplineSet
EndChar

StartChar: bullet
Encoding: 8226 8226 114
Width: 500
Flags: W
LayerCount: 2
Fore
SplineSet
437 286 m 0,0,1
 437 257 437 257 427.5 231 c 128,-1,2
 418 205 418 205 400.5 185.5 c 128,-1,3
 383 166 383 166 357.5 154.5 c 128,-1,4
 332 143 332 143 301 143 c 0,5,6
 269 143 269 143 244 154.5 c 128,-1,7
 219 166 219 166 201.5 185.5 c 128,-1,8
 184 205 184 205 174.5 231 c 128,-1,9
 165 257 165 257 165 286 c 0,10,11
 165 314 165 314 174.5 340 c 128,-1,12
 184 366 184 366 201.5 386 c 128,-1,13
 219 406 219 406 244 417.5 c 128,-1,14
 269 429 269 429 301 429 c 0,15,16
 332 429 332 429 357.5 417.5 c 128,-1,17
 383 406 383 406 400.5 386 c 128,-1,18
 418 366 418 366 427.5 340 c 128,-1,19
 437 314 437 314 437 286 c 0,0,1
EndSplineSet
Substitution2: "'case' Case-Sensitive Forms lookup 17 subtable" Bullet
EndChar

StartChar: endash
Encoding: 8211 8211 115
Width: 500
Flags: W
LayerCount: 2
Fore
SplineSet
117 306 m 1,0,-1
 480 306 l 1,1,-1
 463 236 l 1,2,-1
 100 236 l 1,3,-1
 117 306 l 1,0,-1
EndSplineSet
Substitution2: "'case' Case-Sensitive Forms lookup 17 subtable" Endash
EndChar

StartChar: emdash
Encoding: 8212 8212 116
Width: 500
Flags: W
LayerCount: 2
Fore
SplineSet
52 306 m 1,0,-1
 552 306 l 1,1,-1
 535 236 l 1,2,-1
 36 236 l 1,3,-1
 52 306 l 1,0,-1
EndSplineSet
Substitution2: "'case' Case-Sensitive Forms lookup 17 subtable" Emdash
EndChar

StartChar: tilde
Encoding: 732 732 117
Width: 500
Flags: W
LayerCount: 2
Fore
SplineSet
377 631 m 0,0,1
 391 624 391 624 401 619.5 c 128,-1,2
 411 615 411 615 422 615 c 0,3,4
 441 615 441 615 453.5 629 c 128,-1,5
 466 643 466 643 476 658 c 1,6,-1
 518 632 l 1,7,8
 500 595 500 595 475 575 c 128,-1,9
 450 555 450 555 411 555 c 0,10,11
 393 555 393 555 379.5 560.5 c 128,-1,12
 366 566 366 566 353 574 c 0,13,14
 339 582 339 582 328.5 586 c 128,-1,15
 318 590 318 590 307 590 c 0,16,17
 288 590 288 590 276 576.5 c 128,-1,18
 264 563 264 563 254 547 c 1,19,-1
 212 573 l 1,20,21
 230 610 230 610 254.5 630.5 c 128,-1,22
 279 651 279 651 319 651 c 0,23,24
 337 651 337 651 350.5 645 c 128,-1,25
 364 639 364 639 377 631 c 0,0,1
EndSplineSet
EndChar

StartChar: trademark
Encoding: 8482 8482 118
Width: 500
Flags: W
LayerCount: 2
Fore
SplineSet
304 619 m 1,0,-1
 304 569 l 1,1,-1
 239 569 l 1,2,-1
 239 357 l 1,3,-1
 181 357 l 1,4,-1
 181 569 l 1,5,-1
 117 569 l 1,6,-1
 117 619 l 1,7,-1
 304 619 l 1,0,-1
425 426 m 1,8,-1
 386 542 l 1,9,10
 384 522 384 522 383 492 c 128,-1,11
 382 462 382 462 381.5 433.5 c 128,-1,12
 381 405 381 405 380.5 383 c 128,-1,13
 380 361 380 361 380 357 c 1,14,-1
 322 357 l 1,15,16
 325 407 325 407 328 444 c 128,-1,17
 331 481 331 481 334.5 511 c 128,-1,18
 338 541 338 541 341.5 566.5 c 128,-1,19
 345 592 345 592 350 619 c 1,20,-1
 404 619 l 1,21,-1
 448 483 l 1,22,-1
 496 619 l 1,23,-1
 549 619 l 1,24,25
 554 592 554 592 557.5 566 c 128,-1,26
 561 540 561 540 564 510 c 128,-1,27
 567 480 567 480 569.5 443 c 128,-1,28
 572 406 572 406 575 357 c 1,29,-1
 517 357 l 1,30,31
 517 361 517 361 516.5 383 c 128,-1,32
 516 405 516 405 515.5 433.5 c 128,-1,33
 515 462 515 462 514.5 492 c 128,-1,34
 514 522 514 522 513 542 c 1,35,-1
 470 426 l 1,36,-1
 425 426 l 1,8,-1
EndSplineSet
EndChar

StartChar: guilsinglright
Encoding: 8250 8250 120
Width: 500
Flags: W
LayerCount: 2
Fore
SplineSet
235 427 m 1,0,-1
 290 453 l 1,1,-1
 396 250 l 1,2,-1
 214 58 l 1,3,-1
 163 89 l 1,4,-1
 303 259 l 1,5,-1
 235 427 l 1,0,-1
EndSplineSet
Substitution2: "'case' Case-Sensitive Forms lookup 17 subtable" Guilsinglright
EndChar

StartChar: oe
Encoding: 339 339 121
Width: 500
Flags: W
LayerCount: 2
Fore
SplineSet
374 -12 m 0,0,1
 342 -12 342 -12 315.5 11.5 c 128,-1,2
 289 35 289 35 284 69 c 1,3,4
 263 29 263 29 231.5 8.5 c 128,-1,5
 200 -12 200 -12 162 -12 c 0,6,7
 105 -12 105 -12 80 32 c 128,-1,8
 55 76 55 76 55 150 c 0,9,10
 55 206 55 206 68 264 c 128,-1,11
 81 322 81 322 106.5 369 c 128,-1,12
 132 416 132 416 169 445.5 c 128,-1,13
 206 475 206 475 254 475 c 0,14,15
 276 475 276 475 291 468.5 c 128,-1,16
 306 462 306 462 316.5 451.5 c 128,-1,17
 327 441 327 441 333.5 428.5 c 128,-1,18
 340 416 340 416 345 405 c 1,19,20
 368 438 368 438 397 456.5 c 128,-1,21
 426 475 426 475 468 475 c 0,22,23
 503 475 503 475 528.5 450 c 128,-1,24
 554 425 554 425 554 371 c 0,25,26
 554 340 554 340 542.5 308.5 c 128,-1,27
 531 277 531 277 506 250.5 c 128,-1,28
 481 224 481 224 441.5 205 c 128,-1,29
 402 186 402 186 346 180 c 0,30,31
 345 176 345 176 344.5 170.5 c 128,-1,32
 344 165 344 165 344 154 c 0,33,34
 344 106 344 106 355 84 c 128,-1,35
 366 62 366 62 394 62 c 0,36,37
 425 62 425 62 466 85 c 1,38,-1
 474 21 l 1,39,40
 454 6 454 6 426.5 -3 c 128,-1,41
 399 -12 399 -12 374 -12 c 0,0,1
475 356 m 0,42,43
 475 381 475 381 466.5 393 c 128,-1,44
 458 405 458 405 444 405 c 0,45,46
 421 405 421 405 394.5 366.5 c 128,-1,47
 368 328 368 328 354 249 c 1,48,49
 387 250 387 250 410.5 260.5 c 128,-1,50
 434 271 434 271 448 286 c 128,-1,51
 462 301 462 301 468.5 319.5 c 128,-1,52
 475 338 475 338 475 356 c 0,42,43
138 129 m 0,53,54
 138 98 138 98 147.5 78.5 c 128,-1,55
 157 59 157 59 172 59 c 0,56,57
 188 59 188 59 206.5 76.5 c 128,-1,58
 225 94 225 94 241 129 c 128,-1,59
 257 164 257 164 268 216 c 128,-1,60
 279 268 279 268 279 337 c 0,61,62
 279 367 279 367 269 386.5 c 128,-1,63
 259 406 259 406 244 406 c 0,64,65
 228 406 228 406 209.5 388.5 c 128,-1,66
 191 371 191 371 175 336.5 c 128,-1,67
 159 302 159 302 148.5 250 c 128,-1,68
 138 198 138 198 138 129 c 0,53,54
EndSplineSet
Substitution2: "'case' Case-Sensitive Forms lookup 18 subtable" OE
EndChar

StartChar: exclamdown
Encoding: 161 161 124
Width: 500
Flags: W
LayerCount: 2
Fore
SplineSet
185 3 m 2,0,1
 194 40 194 40 202.5 71 c 128,-1,2
 211 102 211 102 220 130 c 128,-1,3
 229 158 229 158 238 185.5 c 128,-1,4
 247 213 247 213 258 243 c 1,5,-1
 315 243 l 1,6,7
 311 213 311 213 307.5 185.5 c 128,-1,8
 304 158 304 158 299.5 130 c 128,-1,9
 295 102 295 102 289 71 c 128,-1,10
 283 40 283 40 274 3 c 2,11,-1
 234 -165 l 1,12,-1
 145 -165 l 1,13,-1
 185 3 l 2,0,1
327 465 m 0,14,15
 353 465 353 465 369.5 450.5 c 128,-1,16
 386 436 386 436 386 405 c 0,17,18
 386 369 386 369 365.5 349.5 c 128,-1,19
 345 330 345 330 316 330 c 0,20,21
 290 330 290 330 272.5 345.5 c 128,-1,22
 255 361 255 361 255 391 c 0,23,24
 255 426 255 426 277.5 445.5 c 128,-1,25
 300 465 300 465 327 465 c 0,14,15
EndSplineSet
Substitution2: "'case' Case-Sensitive Forms lookup 17 subtable" Exclamdown
EndChar

StartChar: cent
Encoding: 162 162 125
Width: 500
Flags: W
LayerCount: 2
Fore
SplineSet
390 424 m 0,0,1
 342 424 342 424 302.5 405 c 128,-1,2
 263 386 263 386 235 355 c 128,-1,3
 207 324 207 324 191.5 284.5 c 128,-1,4
 176 245 176 245 176 204 c 0,5,6
 176 182 176 182 182 163 c 128,-1,7
 188 144 188 144 203.5 129.5 c 128,-1,8
 219 115 219 115 245 106.5 c 128,-1,9
 271 98 271 98 310 98 c 0,10,11
 327 98 327 98 345.5 101 c 128,-1,12
 364 104 364 104 380.5 108 c 128,-1,13
 397 112 397 112 409.5 117 c 128,-1,14
 422 122 422 122 427 127 c 1,15,-1
 433 58 l 1,16,17
 417 48 417 48 380.5 39 c 128,-1,18
 344 30 344 30 297 28 c 1,19,-1
 268 -97 l 1,20,-1
 196 -97 l 1,21,-1
 226 32 l 1,22,23
 160 48 160 48 127.5 88.5 c 128,-1,24
 95 129 95 129 95 201 c 0,25,26
 95 249 95 249 110.5 296.5 c 128,-1,27
 126 344 126 344 157 383.5 c 128,-1,28
 188 423 188 423 233 451.5 c 128,-1,29
 278 480 278 480 338 490 c 1,30,-1
 368 619 l 1,31,-1
 440 619 l 1,32,-1
 411 495 l 1,33,34
 437 493 437 493 462 488.5 c 128,-1,35
 487 484 487 484 510 473 c 1,36,-1
 480 407 l 1,37,38
 464 415 464 415 443 419.5 c 128,-1,39
 422 424 422 424 390 424 c 0,0,1
EndSplineSet
EndChar

StartChar: sterling
Encoding: 163 163 126
Width: 500
Flags: W
LayerCount: 2
Fore
SplineSet
276 333 m 1,0,-1
 445 333 l 1,1,-1
 429 266 l 1,2,-1
 260 266 l 1,3,-1
 258 259 l 2,4,5
 247 214 247 214 231.5 165 c 128,-1,6
 216 116 216 116 198 71 c 1,7,-1
 457 71 l 1,8,-1
 440 0 l 1,9,-1
 88 0 l 1,10,11
 113 64 113 64 135.5 126.5 c 128,-1,12
 158 189 158 189 173 253 c 1,13,-1
 177 266 l 1,14,-1
 94 266 l 1,15,-1
 110 333 l 1,16,-1
 193 333 l 1,17,-1
 211 407 l 2,18,19
 227 474 227 474 248.5 517.5 c 128,-1,20
 270 561 270 561 299 586 c 128,-1,21
 328 611 328 611 364.5 620.5 c 128,-1,22
 401 630 401 630 447 630 c 256,23,24
 493 630 493 630 519 621.5 c 128,-1,25
 545 613 545 613 565 602 c 1,26,-1
 528 535 l 1,27,28
 507 546 507 546 485 552 c 128,-1,29
 463 558 463 558 436 558 c 0,30,31
 410 558 410 558 388.5 550.5 c 128,-1,32
 367 543 367 543 349.5 526 c 128,-1,33
 332 509 332 509 318 480.5 c 128,-1,34
 304 452 304 452 294 409 c 2,35,-1
 276 333 l 1,0,-1
EndSplineSet
EndChar

StartChar: currency
Encoding: 164 164 127
Width: 500
Flags: W
LayerCount: 2
Fore
SplineSet
131 310 m 0,0,1
 131 365 131 365 156 405 c 1,2,-1
 91 471 l 1,3,-1
 143 522 l 1,4,-1
 209 455 l 1,5,6
 252 481 252 481 304 481 c 256,7,8
 356 481 356 481 397 455 c 1,9,-1
 464 522 l 1,10,-1
 516 471 l 1,11,-1
 450 405 l 1,12,13
 476 365 476 365 476 310 c 0,14,15
 476 281 476 281 469.5 258 c 128,-1,16
 463 235 463 235 450 215 c 1,17,-1
 516 149 l 1,18,-1
 464 97 l 1,19,-1
 397 163 l 1,20,21
 356 138 356 138 304 138 c 0,22,23
 250 138 250 138 209 163 c 1,24,-1
 143 97 l 1,25,-1
 91 149 l 1,26,-1
 156 214 l 1,27,28
 131 254 131 254 131 310 c 0,0,1
409 310 m 256,29,30
 409 361 409 361 378 391 c 128,-1,31
 347 421 347 421 304 421 c 0,32,33
 282 421 282 421 263 413 c 128,-1,34
 244 405 244 405 229.5 391 c 128,-1,35
 215 377 215 377 206.5 356 c 128,-1,36
 198 335 198 335 198 310 c 0,37,38
 198 284 198 284 206.5 263.5 c 128,-1,39
 215 243 215 243 229.5 229 c 128,-1,40
 244 215 244 215 263 207 c 128,-1,41
 282 199 282 199 304 199 c 0,42,43
 347 199 347 199 378 229 c 128,-1,44
 409 259 409 259 409 310 c 256,29,30
EndSplineSet
EndChar

StartChar: yen
Encoding: 165 165 128
Width: 500
Flags: W
LayerCount: 2
Fore
SplineSet
196 0 m 1,0,-1
 219 95 l 1,1,-1
 74 95 l 1,2,-1
 89 158 l 1,3,-1
 234 158 l 1,4,-1
 255 249 l 1,5,-1
 111 249 l 1,6,-1
 126 313 l 1,7,-1
 247 313 l 1,8,9
 215 393 215 393 192 465.5 c 128,-1,10
 169 538 169 538 147 619 c 1,11,-1
 234 619 l 1,12,13
 248 546 248 546 270.5 475 c 128,-1,14
 293 404 293 404 316 344 c 1,15,16
 368 406 368 406 422.5 478 c 128,-1,17
 477 550 477 550 522 619 c 1,18,-1
 616 619 l 1,19,20
 559 539 559 539 500 465 c 128,-1,21
 441 391 441 391 374 313 c 1,22,-1
 497 313 l 1,23,-1
 481 249 l 1,24,-1
 338 249 l 1,25,-1
 316 158 l 1,26,-1
 460 158 l 1,27,-1
 445 95 l 1,28,-1
 301 95 l 1,29,-1
 278 0 l 1,30,-1
 196 0 l 1,0,-1
EndSplineSet
EndChar

StartChar: brokenbar
Encoding: 166 166 129
Width: 500
Flags: W
LayerCount: 2
Fore
SplineSet
235 177 m 1,0,-1
 313 177 l 1,1,-1
 231 -165 l 1,2,-1
 153 -165 l 1,3,-1
 235 177 l 1,0,-1
361 699 m 1,4,-1
 439 699 l 1,5,-1
 356 357 l 1,6,-1
 279 357 l 1,7,-1
 361 699 l 1,4,-1
EndSplineSet
EndChar

StartChar: section
Encoding: 167 167 130
Width: 500
Flags: W
LayerCount: 2
Fore
SplineSet
238 121 m 0,0,1
 213 130 213 130 191 139.5 c 128,-1,2
 169 149 169 149 152.5 164 c 128,-1,3
 136 179 136 179 126.5 200.5 c 128,-1,4
 117 222 117 222 117 255 c 0,5,6
 117 303 117 303 148.5 342.5 c 128,-1,7
 180 382 180 382 226 407 c 1,8,9
 200 433 200 433 200 480 c 0,10,11
 200 516 200 516 214.5 544.5 c 128,-1,12
 229 573 229 573 254.5 592.5 c 128,-1,13
 280 612 280 612 316 622.5 c 128,-1,14
 352 633 352 633 396 633 c 0,15,16
 441 633 441 633 473.5 624 c 128,-1,17
 506 615 506 615 527 605 c 1,18,-1
 496 540 l 1,19,20
 480 548 480 548 455 557 c 128,-1,21
 430 566 430 566 389 566 c 0,22,23
 341 566 341 566 311 549 c 128,-1,24
 281 532 281 532 281 492 c 0,25,26
 281 466 281 466 298.5 451.5 c 128,-1,27
 316 437 316 437 355 423 c 0,28,29
 380 413 380 413 402 403.5 c 128,-1,30
 424 394 424 394 440 379.5 c 128,-1,31
 456 365 456 365 465.5 343.5 c 128,-1,32
 475 322 475 322 475 289 c 0,33,34
 475 238 475 238 444 200.5 c 128,-1,35
 413 163 413 163 366 137 c 1,36,37
 379 125 379 125 390 106 c 128,-1,38
 401 87 401 87 401 53 c 0,39,40
 401 20 401 20 387.5 -7.5 c 128,-1,41
 374 -35 374 -35 348 -55 c 128,-1,42
 322 -75 322 -75 283.5 -86 c 128,-1,43
 245 -97 245 -97 195 -97 c 0,44,45
 146 -97 146 -97 108.5 -88.5 c 128,-1,46
 71 -80 71 -80 45 -66 c 1,47,-1
 77 -1 l 1,48,49
 94 -11 94 -11 126 -20.5 c 128,-1,50
 158 -30 158 -30 201 -30 c 0,51,52
 260 -30 260 -30 290 -10 c 128,-1,53
 320 10 320 10 320 45 c 0,54,55
 320 62 320 62 314 73 c 128,-1,56
 308 84 308 84 297.5 92.5 c 128,-1,57
 287 101 287 101 272 107.5 c 128,-1,58
 257 114 257 114 238 121 c 0,0,1
315 171 m 0,59,60
 345 185 345 185 371 213.5 c 128,-1,61
 397 242 397 242 397 280 c 0,62,63
 397 297 397 297 389 310 c 128,-1,64
 381 323 381 323 367 332.5 c 128,-1,65
 353 342 353 342 334.5 350 c 128,-1,66
 316 358 316 358 294 366 c 0,67,68
 281 371 281 371 279 373 c 0,69,70
 264 366 264 366 249 355 c 128,-1,71
 234 344 234 344 222 330 c 128,-1,72
 210 316 210 316 202.5 299 c 128,-1,73
 195 282 195 282 195 264 c 0,74,75
 195 247 195 247 203 234 c 128,-1,76
 211 221 211 221 225.5 211.5 c 128,-1,77
 240 202 240 202 258.5 194 c 128,-1,78
 277 186 277 186 298 178 c 0,79,80
 303 176 303 176 307.5 174.5 c 128,-1,81
 312 173 312 173 315 171 c 0,59,60
EndSplineSet
EndChar

StartChar: dieresis
Encoding: 168 168 131
Width: 500
Flags: W
LayerCount: 2
Fore
SplineSet
287 550 m 256,0,1
 267 550 267 550 253.5 562.5 c 128,-1,2
 240 575 240 575 240 596 c 0,3,4
 240 622 240 622 258 638.5 c 128,-1,5
 276 655 276 655 296 655 c 256,6,7
 316 655 316 655 330 642.5 c 128,-1,8
 344 630 344 630 344 608 c 0,9,10
 344 582 344 582 325.5 566 c 128,-1,11
 307 550 307 550 287 550 c 256,0,1
456 550 m 0,12,13
 436 550 436 550 423 562.5 c 128,-1,14
 410 575 410 575 410 596 c 0,15,16
 410 622 410 622 427.5 638.5 c 128,-1,17
 445 655 445 655 466 655 c 0,18,19
 486 655 486 655 499.5 642.5 c 128,-1,20
 513 630 513 630 513 608 c 0,21,22
 513 582 513 582 495 566 c 128,-1,23
 477 550 477 550 456 550 c 0,12,13
EndSplineSet
EndChar

StartChar: copyright
Encoding: 169 169 132
Width: 500
Flags: W
LayerCount: 2
Fore
SplineSet
446 231 m 0,0,1
 446 279 446 279 432.5 314.5 c 128,-1,2
 419 350 419 350 396.5 373.5 c 128,-1,3
 374 397 374 397 345.5 409 c 128,-1,4
 317 421 317 421 288 421 c 0,5,6
 258 421 258 421 229.5 409 c 128,-1,7
 201 397 201 397 178.5 373.5 c 128,-1,8
 156 350 156 350 142.5 314.5 c 128,-1,9
 129 279 129 279 129 233 c 0,10,11
 129 185 129 185 142.5 149.5 c 128,-1,12
 156 114 156 114 178.5 90.5 c 128,-1,13
 201 67 201 67 229.5 55 c 128,-1,14
 258 43 258 43 288 43 c 256,15,16
 318 43 318 43 346 55 c 128,-1,17
 374 67 374 67 396.5 90.5 c 128,-1,18
 419 114 419 114 432.5 149 c 128,-1,19
 446 184 446 184 446 231 c 0,0,1
364 120 m 1,20,21
 347 112 347 112 328.5 108 c 128,-1,22
 310 104 310 104 294 104 c 0,23,24
 265 104 265 104 243.5 114.5 c 128,-1,25
 222 125 222 125 207.5 142.5 c 128,-1,26
 193 160 193 160 186 182.5 c 128,-1,27
 179 205 179 205 179 229 c 256,28,29
 179 253 179 253 186 276 c 128,-1,30
 193 299 193 299 207 317 c 128,-1,31
 221 335 221 335 243 346 c 128,-1,32
 265 357 265 357 295 357 c 0,33,34
 310 357 310 357 327.5 354.5 c 128,-1,35
 345 352 345 352 363 344 c 1,36,-1
 342 290 l 1,37,38
 331 295 331 295 320.5 296.5 c 128,-1,39
 310 298 310 298 300 298 c 0,40,41
 269 298 269 298 255.5 278 c 128,-1,42
 242 258 242 258 242 233 c 0,43,44
 242 201 242 201 258 182.5 c 128,-1,45
 274 164 274 164 305 164 c 0,46,47
 313 164 313 164 325 166 c 128,-1,48
 337 168 337 168 347 173 c 1,49,-1
 364 120 l 1,20,21
71 231 m 0,50,51
 71 292 71 292 90 338 c 128,-1,52
 109 384 109 384 139.5 414.5 c 128,-1,53
 170 445 170 445 209 460 c 128,-1,54
 248 475 248 475 288 475 c 256,55,56
 328 475 328 475 367 460 c 128,-1,57
 406 445 406 445 436.5 414.5 c 128,-1,58
 467 384 467 384 485.5 338.5 c 128,-1,59
 504 293 504 293 504 233 c 0,60,61
 504 172 504 172 485 126.5 c 128,-1,62
 466 81 466 81 435.5 50.5 c 128,-1,63
 405 20 405 20 366 4.5 c 128,-1,64
 327 -11 327 -11 287 -11 c 0,65,66
 246 -11 246 -11 207.5 4.5 c 128,-1,67
 169 20 169 20 138.5 50 c 128,-1,68
 108 80 108 80 89.5 125.5 c 128,-1,69
 71 171 71 171 71 231 c 0,50,51
EndSplineSet
EndChar

StartChar: ordfeminine
Encoding: 170 170 133
Width: 500
Flags: W
LayerCount: 2
Fore
SplineSet
288 295 m 0,0,1
 230 295 230 295 204.5 327 c 128,-1,2
 179 359 179 359 179 413 c 0,3,4
 179 454 179 454 193.5 493.5 c 128,-1,5
 208 533 208 533 236.5 563.5 c 128,-1,6
 265 594 265 594 308 613 c 128,-1,7
 351 632 351 632 408 632 c 0,8,9
 425 632 425 632 448 628 c 128,-1,10
 471 624 471 624 491 616 c 1,11,-1
 442 435 l 2,12,13
 434 405 434 405 434 380 c 0,14,15
 434 357 434 357 438 341.5 c 128,-1,16
 442 326 442 326 450 307 c 1,17,-1
 388 296 l 1,18,19
 385 301 385 301 381 310 c 128,-1,20
 377 319 377 319 375 328 c 1,21,22
 362 315 362 315 340.5 305 c 128,-1,23
 319 295 319 295 288 295 c 0,0,1
414 575 m 2,24,25
 412 576 412 576 407.5 577 c 128,-1,26
 403 578 403 578 396 578 c 0,27,28
 362 578 362 578 334 565 c 128,-1,29
 306 552 306 552 286 530 c 128,-1,30
 266 508 266 508 255 479 c 128,-1,31
 244 450 244 450 244 419 c 0,32,33
 244 392 244 392 255.5 370.5 c 128,-1,34
 267 349 267 349 303 349 c 0,35,36
 323 349 323 349 339.5 359 c 128,-1,37
 356 369 356 369 370 383 c 1,38,39
 370 397 370 397 373 412.5 c 128,-1,40
 376 428 376 428 379 439 c 2,41,-1
 414 575 l 2,24,25
EndSplineSet
EndChar

StartChar: guillemotleft
Encoding: 171 171 134
Width: 500
Flags: W
LayerCount: 2
Fore
SplineSet
107 254 m 1,0,-1
 268 438 l 1,1,-1
 314 403 l 1,2,-1
 191 249 l 1,3,-1
 241 110 l 1,4,-1
 188 81 l 1,5,-1
 107 254 l 1,0,-1
287 254 m 1,6,-1
 447 438 l 1,7,-1
 494 403 l 1,8,-1
 371 249 l 1,9,-1
 421 110 l 1,10,-1
 368 81 l 1,11,-1
 287 254 l 1,6,-1
EndSplineSet
Substitution2: "'case' Case-Sensitive Forms lookup 17 subtable" Guillemotleft
EndChar

StartChar: logicalnot
Encoding: 172 172 135
Width: 500
Flags: W
LayerCount: 2
Fore
SplineSet
518 347 m 1,0,-1
 446 43 l 1,1,-1
 374 43 l 1,2,-1
 430 277 l 1,3,-1
 92 277 l 1,4,-1
 109 347 l 1,5,-1
 518 347 l 1,0,-1
EndSplineSet
EndChar

StartChar: registered
Encoding: 174 174 137
Width: 500
Flags: W
LayerCount: 2
Fore
SplineSet
446 231 m 0,0,1
 446 279 446 279 432.5 314.5 c 128,-1,2
 419 350 419 350 396.5 373.5 c 128,-1,3
 374 397 374 397 345.5 409 c 128,-1,4
 317 421 317 421 288 421 c 0,5,6
 258 421 258 421 229.5 409 c 128,-1,7
 201 397 201 397 178.5 373.5 c 128,-1,8
 156 350 156 350 142.5 314.5 c 128,-1,9
 129 279 129 279 129 233 c 0,10,11
 129 185 129 185 142.5 149.5 c 128,-1,12
 156 114 156 114 178.5 90.5 c 128,-1,13
 201 67 201 67 229.5 55 c 128,-1,14
 258 43 258 43 288 43 c 256,15,16
 318 43 318 43 346 55 c 128,-1,17
 374 67 374 67 396.5 90.5 c 128,-1,18
 419 114 419 114 432.5 149 c 128,-1,19
 446 184 446 184 446 231 c 0,0,1
71 231 m 0,20,21
 71 292 71 292 90 338 c 128,-1,22
 109 384 109 384 139.5 414.5 c 128,-1,23
 170 445 170 445 209 460 c 128,-1,24
 248 475 248 475 288 475 c 256,25,26
 328 475 328 475 367 460 c 128,-1,27
 406 445 406 445 436.5 414.5 c 128,-1,28
 467 384 467 384 485.5 338.5 c 128,-1,29
 504 293 504 293 504 233 c 0,30,31
 504 172 504 172 485 126.5 c 128,-1,32
 466 81 466 81 435.5 50.5 c 128,-1,33
 405 20 405 20 366 4.5 c 128,-1,34
 327 -11 327 -11 287 -11 c 0,35,36
 246 -11 246 -11 207.5 4.5 c 128,-1,37
 169 20 169 20 138.5 50 c 128,-1,38
 108 80 108 80 89.5 125.5 c 128,-1,39
 71 171 71 171 71 231 c 0,20,21
257 187 m 1,40,-1
 257 110 l 1,41,-1
 204 110 l 1,42,-1
 204 348 l 1,43,44
 217 352 217 352 234.5 354.5 c 128,-1,45
 252 357 252 357 271 357 c 0,46,47
 328 357 328 357 355 335 c 128,-1,48
 382 313 382 313 382 271 c 0,49,50
 382 222 382 222 343 200 c 1,51,52
 354 183 354 183 367.5 159.5 c 128,-1,53
 381 136 381 136 394 110 c 1,54,-1
 337 110 l 1,55,56
 324 134 324 134 313.5 152.5 c 128,-1,57
 303 171 303 171 294 187 c 1,58,-1
 257 187 l 1,40,-1
257 237 m 1,59,-1
 276 237 l 2,60,61
 303 237 303 237 316 244 c 128,-1,62
 329 251 329 251 329 274 c 0,63,64
 329 294 329 294 313 300.5 c 128,-1,65
 297 307 297 307 280 307 c 0,66,67
 273 307 273 307 267.5 306.5 c 128,-1,68
 262 306 262 306 257 305 c 1,69,-1
 257 237 l 1,59,-1
EndSplineSet
EndChar

StartChar: macron
Encoding: 175 175 138
Width: 500
Flags: W
LayerCount: 2
Fore
SplineSet
250 635 m 1,0,-1
 500 635 l 1,1,-1
 485 571 l 1,2,-1
 235 571 l 1,3,-1
 250 635 l 1,0,-1
EndSplineSet
EndChar

StartChar: degree
Encoding: 176 176 139
Width: 500
Flags: W
LayerCount: 2
Fore
SplineSet
473 569 m 256,0,1
 473 540 473 540 463 517 c 128,-1,2
 453 494 453 494 435.5 478 c 128,-1,3
 418 462 418 462 395.5 453.5 c 128,-1,4
 373 445 373 445 348 445 c 256,5,6
 323 445 323 445 300.5 453.5 c 128,-1,7
 278 462 278 462 260.5 478 c 128,-1,8
 243 494 243 494 233 517 c 128,-1,9
 223 540 223 540 223 569 c 256,10,11
 223 598 223 598 233 621 c 128,-1,12
 243 644 243 644 260.5 660 c 128,-1,13
 278 676 278 676 300.5 684.5 c 128,-1,14
 323 693 323 693 348 693 c 256,15,16
 373 693 373 693 395.5 684.5 c 128,-1,17
 418 676 418 676 435.5 660 c 128,-1,18
 453 644 453 644 463 621 c 128,-1,19
 473 598 473 598 473 569 c 256,0,1
413 569 m 256,20,21
 413 601 413 601 394 619 c 128,-1,22
 375 637 375 637 348 637 c 0,23,24
 322 637 322 637 302.5 619 c 128,-1,25
 283 601 283 601 283 569 c 256,26,27
 283 537 283 537 302.5 519 c 128,-1,28
 322 501 322 501 348 501 c 0,29,30
 375 501 375 501 394 519 c 128,-1,31
 413 537 413 537 413 569 c 256,20,21
EndSplineSet
EndChar

StartChar: plusminus
Encoding: 177 177 140
Width: 500
Flags: W
LayerCount: 2
Fore
SplineSet
405 554 m 1,0,-1
 363 374 l 1,1,-1
 525 374 l 1,2,-1
 508 304 l 1,3,-1
 346 304 l 1,4,-1
 302 124 l 1,5,-1
 227 124 l 1,6,-1
 270 304 l 1,7,-1
 107 304 l 1,8,-1
 124 374 l 1,9,-1
 287 374 l 1,10,-1
 330 554 l 1,11,-1
 405 554 l 1,0,-1
451 71 m 1,12,-1
 434 0 l 1,13,-1
 33 0 l 1,14,-1
 50 71 l 1,15,-1
 451 71 l 1,12,-1
EndSplineSet
EndChar

StartChar: twosuperior
Encoding: 178 178 141
Width: 500
Flags: W
LayerCount: 2
Fore
SplineSet
432 338 m 1,0,-1
 419 281 l 1,1,-1
 184 281 l 1,2,3
 188 313 188 313 198.5 337 c 128,-1,4
 209 361 209 361 225 379.5 c 128,-1,5
 241 398 241 398 261.5 413.5 c 128,-1,6
 282 429 282 429 305 443 c 256,7,8
 328 457 328 457 345.5 468.5 c 128,-1,9
 363 480 363 480 374.5 491 c 128,-1,10
 386 502 386 502 392 514 c 128,-1,11
 398 526 398 526 398 541 c 0,12,13
 398 560 398 560 385.5 569 c 128,-1,14
 373 578 373 578 355 578 c 0,15,16
 317 578 317 578 295 565 c 128,-1,17
 273 552 273 552 262 542 c 1,18,-1
 240 586 l 1,19,20
 258 603 258 603 289 618 c 128,-1,21
 320 633 320 633 362 633 c 0,22,23
 413 633 413 633 437.5 609.5 c 128,-1,24
 462 586 462 586 462 546 c 0,25,26
 462 520 462 520 449.5 498.5 c 128,-1,27
 437 477 437 477 418.5 459 c 128,-1,28
 400 441 400 441 377.5 426 c 128,-1,29
 355 411 355 411 335 399 c 0,30,31
 316 386 316 386 293.5 372 c 128,-1,32
 271 358 271 358 263 338 c 1,33,-1
 432 338 l 1,0,-1
EndSplineSet
Substitution2: "Single Substitution lookup 22 subtable" twoinferior
Substitution2: "'sinf' Scientific Inferiors lookup 11 subtable" two.sinf
Substitution2: "'subs' Subscript lookup 10 subtable" two.sinf
Substitution2: "'sups' Superscript lookup 9 subtable" two.sups
Substitution2: "'dnom' Denominators lookup 8 subtable" twoinferior
EndChar

StartChar: threesuperior
Encoding: 179 179 142
Width: 500
Flags: W
LayerCount: 2
Fore
SplineSet
289 329 m 0,0,1
 307 329 307 329 325 332 c 128,-1,2
 343 335 343 335 356.5 342 c 128,-1,3
 370 349 370 349 378.5 361.5 c 128,-1,4
 387 374 387 374 387 393 c 0,5,6
 387 418 387 418 363.5 428.5 c 128,-1,7
 340 439 340 439 302 439 c 2,8,-1
 283 439 l 1,9,-1
 296 489 l 1,10,-1
 318 489 l 2,11,12
 330 489 330 489 345.5 492 c 128,-1,13
 361 495 361 495 374.5 501 c 128,-1,14
 388 507 388 507 397.5 517 c 128,-1,15
 407 527 407 527 407 542 c 0,16,17
 407 563 407 563 395 571 c 128,-1,18
 383 579 383 579 357 579 c 0,19,20
 333 579 333 579 310 572 c 128,-1,21
 287 565 287 565 273 557 c 1,22,-1
 261 604 l 1,23,24
 268 609 268 609 281.5 614 c 128,-1,25
 295 619 295 619 310.5 623.5 c 128,-1,26
 326 628 326 628 342 630.5 c 128,-1,27
 358 633 358 633 372 633 c 0,28,29
 426 633 426 633 447.5 611.5 c 128,-1,30
 469 590 469 590 469 560 c 0,31,32
 469 525 469 525 450.5 503.5 c 128,-1,33
 432 482 432 482 400 466 c 1,34,35
 422 458 422 458 435.5 441 c 128,-1,36
 449 424 449 424 449 395 c 0,37,38
 449 335 449 335 404.5 304.5 c 128,-1,39
 360 274 360 274 288 274 c 0,40,41
 252 274 252 274 226.5 281 c 128,-1,42
 201 288 201 288 183 298 c 1,43,-1
 207 348 l 1,44,45
 223 340 223 340 244.5 334.5 c 128,-1,46
 266 329 266 329 289 329 c 0,0,1
EndSplineSet
Substitution2: "Single Substitution lookup 22 subtable" threeinferior
Substitution2: "'sinf' Scientific Inferiors lookup 11 subtable" three.sinf
Substitution2: "'subs' Subscript lookup 10 subtable" three.sinf
Substitution2: "'sups' Superscript lookup 9 subtable" three.sups
Substitution2: "'dnom' Denominators lookup 8 subtable" threeinferior
EndChar

StartChar: acute
Encoding: 180 180 143
Width: 500
Flags: W
LayerCount: 2
Fore
SplineSet
491 626 m 1,0,-1
 340 512 l 1,1,-1
 305 556 l 1,2,-1
 446 691 l 1,3,-1
 491 626 l 1,0,-1
EndSplineSet
EndChar

StartChar: mu
Encoding: 181 181 144
Width: 500
Flags: W
LayerCount: 2
Fore
SplineSet
354 103 m 1,0,1
 354 126 354 126 356 148.5 c 128,-1,2
 358 171 358 171 364 196 c 2,3,-1
 430 464 l 1,4,-1
 512 464 l 1,5,-1
 446 188 l 2,6,7
 441 168 441 168 437.5 150.5 c 128,-1,8
 434 133 434 133 434 117 c 0,9,10
 434 94 434 94 445 79 c 128,-1,11
 456 64 456 64 485 59 c 1,12,-1
 466 -8 l 1,13,14
 429 -7 429 -7 406.5 5 c 128,-1,15
 384 17 384 17 371 39 c 1,16,17
 306 -11 306 -11 218 -11 c 0,18,19
 190 -11 190 -11 166 1 c 128,-1,20
 142 13 142 13 129 34 c 1,21,22
 125 11 125 11 120 -17.5 c 128,-1,23
 115 -46 115 -46 108 -73 c 2,24,-1
 86 -165 l 1,25,-1
 4 -165 l 1,26,-1
 154 464 l 1,27,-1
 237 464 l 1,28,-1
 184 245 l 2,29,30
 179 224 179 224 172.5 196.5 c 128,-1,31
 166 169 166 169 166 141 c 0,32,33
 166 125 166 125 169 110.5 c 128,-1,34
 172 96 172 96 180.5 85.5 c 128,-1,35
 189 75 189 75 203.5 69 c 128,-1,36
 218 63 218 63 241 63 c 0,37,38
 276 63 276 63 302.5 72.5 c 128,-1,39
 329 82 329 82 354 103 c 1,0,1
EndSplineSet
EndChar

StartChar: paragraph
Encoding: 182 182 145
Width: 500
Flags: W
LayerCount: 2
Fore
SplineSet
420 556 m 0,0,1
 415 556 415 556 409.5 556 c 128,-1,2
 404 556 404 556 399 555 c 1,3,-1
 226 -165 l 1,4,-1
 156 -165 l 1,5,-1
 252 234 l 1,6,7
 207 237 207 237 176.5 249 c 128,-1,8
 146 261 146 261 127.5 280.5 c 128,-1,9
 109 300 109 300 101.5 325 c 128,-1,10
 94 350 94 350 94 379 c 0,11,12
 94 444 94 444 122 490.5 c 128,-1,13
 150 537 150 537 196 567 c 128,-1,14
 242 597 242 597 299.5 611 c 128,-1,15
 357 625 357 625 416 625 c 0,16,17
 451 625 451 625 491 622 c 128,-1,18
 531 619 531 619 563 610 c 1,19,-1
 377 -165 l 1,20,-1
 307 -165 l 1,21,-1
 480 552 l 1,22,23
 471 554 471 554 455.5 555 c 128,-1,24
 440 556 440 556 420 556 c 0,0,1
EndSplineSet
EndChar

StartChar: cedilla
Encoding: 184 184 147
Width: 500
Flags: W
LayerCount: 2
Fore
SplineSet
260 -34 m 1,0,1
 278 -44 278 -44 287 -55.5 c 128,-1,2
 296 -67 296 -67 296 -88 c 0,3,4
 296 -127 296 -127 268 -148 c 128,-1,5
 240 -169 240 -169 192 -169 c 0,6,7
 166 -169 166 -169 148.5 -165 c 128,-1,8
 131 -161 131 -161 120 -155 c 1,9,-1
 140 -106 l 1,10,11
 148 -110 148 -110 159.5 -113 c 128,-1,12
 171 -116 171 -116 188 -116 c 0,13,14
 203 -116 203 -116 212.5 -111.5 c 128,-1,15
 222 -107 222 -107 222 -94 c 0,16,17
 222 -79 222 -79 210.5 -72 c 128,-1,18
 199 -65 199 -65 186 -62 c 1,19,20
 191 -53 191 -53 199 -41 c 128,-1,21
 207 -29 207 -29 215 -17.5 c 128,-1,22
 223 -6 223 -6 230 3.5 c 128,-1,23
 237 13 237 13 241 18 c 1,24,-1
 298 18 l 1,25,26
 290 7 290 7 279 -8 c 128,-1,27
 268 -23 268 -23 260 -34 c 1,0,1
EndSplineSet
EndChar

StartChar: onesuperior
Encoding: 185 185 148
Width: 500
Flags: W
LayerCount: 2
Fore
SplineSet
242 556 m 1,0,1
 321 584 321 584 375 626 c 1,2,-1
 419 626 l 1,3,-1
 349 338 l 1,4,-1
 430 338 l 1,5,-1
 416 281 l 1,6,-1
 183 281 l 1,7,-1
 196 338 l 1,8,-1
 286 338 l 1,9,-1
 336 539 l 1,10,11
 313 526 313 526 290.5 518.5 c 128,-1,12
 268 511 268 511 250 505 c 1,13,-1
 242 556 l 1,0,1
EndSplineSet
Substitution2: "Single Substitution lookup 22 subtable" oneinferior
Substitution2: "'sinf' Scientific Inferiors lookup 11 subtable" one.sinf
Substitution2: "'subs' Subscript lookup 10 subtable" one.sinf
Substitution2: "'sups' Superscript lookup 9 subtable" one.sups
Substitution2: "'dnom' Denominators lookup 8 subtable" oneinferior
EndChar

StartChar: ordmasculine
Encoding: 186 186 149
Width: 500
Flags: W
LayerCount: 2
Fore
SplineSet
385 633 m 0,0,1
 439 633 439 633 469.5 603 c 128,-1,2
 500 573 500 573 500 519 c 0,3,4
 500 483 500 483 489.5 443 c 128,-1,5
 479 403 479 403 455.5 370 c 128,-1,6
 432 337 432 337 394 315 c 128,-1,7
 356 293 356 293 301 293 c 0,8,9
 247 293 247 293 216.5 323 c 128,-1,10
 186 353 186 353 186 407 c 0,11,12
 186 443 186 443 196.5 483 c 128,-1,13
 207 523 207 523 230.5 556 c 128,-1,14
 254 589 254 589 292 611 c 128,-1,15
 330 633 330 633 385 633 c 0,0,1
313 348 m 0,16,17
 341 348 341 348 363.5 363.5 c 128,-1,18
 386 379 386 379 401.5 403.5 c 128,-1,19
 417 428 417 428 425 457 c 128,-1,20
 433 486 433 486 433 513 c 0,21,22
 433 542 433 542 419 560 c 128,-1,23
 405 578 405 578 373 578 c 0,24,25
 344 578 344 578 322 562.5 c 128,-1,26
 300 547 300 547 284.5 522.5 c 128,-1,27
 269 498 269 498 261 469 c 128,-1,28
 253 440 253 440 253 413 c 0,29,30
 253 384 253 384 267 366 c 128,-1,31
 281 348 281 348 313 348 c 0,16,17
EndSplineSet
EndChar

StartChar: guillemotright
Encoding: 187 187 150
Width: 500
Flags: W
LayerCount: 2
Fore
SplineSet
481 255 m 1,0,-1
 321 71 l 1,1,-1
 274 106 l 1,2,-1
 397 260 l 1,3,-1
 347 399 l 1,4,-1
 400 428 l 1,5,-1
 481 255 l 1,0,-1
302 255 m 1,6,-1
 141 71 l 1,7,-1
 95 106 l 1,8,-1
 218 260 l 1,9,-1
 168 399 l 1,10,-1
 221 428 l 1,11,-1
 302 255 l 1,6,-1
EndSplineSet
Substitution2: "'case' Case-Sensitive Forms lookup 17 subtable" Guillemotright
EndChar

StartChar: onequarter
Encoding: 188 188 151
Width: 500
Flags: W
LayerCount: 2
Fore
SplineSet
138 561 m 1,0,1
 176 575 176 575 203.5 589 c 128,-1,2
 231 603 231 603 261 626 c 1,3,-1
 301 626 l 1,4,-1
 240 376 l 1,5,-1
 181 376 l 1,6,-1
 223 547 l 1,7,8
 200 536 200 536 182.5 529 c 128,-1,9
 165 522 165 522 145 516 c 1,10,-1
 138 561 l 1,0,1
496 250 m 1,11,-1
 459 98 l 1,12,-1
 495 98 l 1,13,-1
 483 48 l 1,14,-1
 447 48 l 1,15,-1
 436 0 l 1,16,-1
 377 0 l 1,17,-1
 388 48 l 1,18,-1
 259 48 l 1,19,-1
 269 89 l 1,20,21
 307 135 307 135 347.5 174.5 c 128,-1,22
 388 214 388 214 438 250 c 1,23,-1
 496 250 l 1,11,-1
421 185 m 1,24,25
 406 173 406 173 394.5 162.5 c 128,-1,26
 383 152 383 152 373.5 142 c 128,-1,27
 364 132 364 132 354.5 121.5 c 128,-1,28
 345 111 345 111 335 98 c 1,29,-1
 400 98 l 1,30,-1
 421 185 l 1,24,25
104 0 m 1,31,-1
 28 0 l 1,32,-1
 510 619 l 1,33,-1
 588 619 l 1,34,-1
 104 0 l 1,31,-1
EndSplineSet
Ligature2: "'frac' Diagonal Fractions lookup 13 subtable" one.sinf fraction four.sinf
Ligature2: "'frac' Diagonal Fractions lookup 13 subtable" one.sinf fraction four.sups
Ligature2: "'frac' Diagonal Fractions lookup 13 subtable" one.sinf fraction fourinferior
Ligature2: "'frac' Diagonal Fractions lookup 13 subtable" one.sinf fraction foursuperior
Ligature2: "'frac' Diagonal Fractions lookup 13 subtable" one.sinf fraction four
Ligature2: "'frac' Diagonal Fractions lookup 13 subtable" one.sups fraction four.sinf
Ligature2: "'frac' Diagonal Fractions lookup 13 subtable" one.sups fraction four.sups
Ligature2: "'frac' Diagonal Fractions lookup 13 subtable" one.sups fraction fourinferior
Ligature2: "'frac' Diagonal Fractions lookup 13 subtable" one.sups fraction foursuperior
Ligature2: "'frac' Diagonal Fractions lookup 13 subtable" one.sups fraction four
Ligature2: "'frac' Diagonal Fractions lookup 13 subtable" oneinferior fraction four.sinf
Ligature2: "'frac' Diagonal Fractions lookup 13 subtable" oneinferior fraction four.sups
Ligature2: "'frac' Diagonal Fractions lookup 13 subtable" oneinferior fraction fourinferior
Ligature2: "'frac' Diagonal Fractions lookup 13 subtable" oneinferior fraction foursuperior
Ligature2: "'frac' Diagonal Fractions lookup 13 subtable" oneinferior fraction four
Ligature2: "'frac' Diagonal Fractions lookup 13 subtable" onesuperior fraction four.sinf
Ligature2: "'frac' Diagonal Fractions lookup 13 subtable" onesuperior fraction four.sups
Ligature2: "'frac' Diagonal Fractions lookup 13 subtable" onesuperior fraction fourinferior
Ligature2: "'frac' Diagonal Fractions lookup 13 subtable" onesuperior fraction foursuperior
Ligature2: "'frac' Diagonal Fractions lookup 13 subtable" onesuperior fraction four
Ligature2: "'frac' Diagonal Fractions lookup 13 subtable" one fraction four.sinf
Ligature2: "'frac' Diagonal Fractions lookup 13 subtable" one fraction four.sups
Ligature2: "'frac' Diagonal Fractions lookup 13 subtable" one fraction fourinferior
Ligature2: "'frac' Diagonal Fractions lookup 13 subtable" one fraction foursuperior
Ligature2: "'frac' Diagonal Fractions lookup 13 subtable" one fraction four
EndChar

StartChar: onehalf
Encoding: 189 189 152
Width: 500
Flags: W
LayerCount: 2
Fore
SplineSet
138 561 m 1,0,1
 176 575 176 575 203.5 589 c 128,-1,2
 231 603 231 603 261 626 c 1,3,-1
 301 626 l 1,4,-1
 240 376 l 1,5,-1
 181 376 l 1,6,-1
 223 547 l 1,7,8
 200 536 200 536 182.5 529 c 128,-1,9
 165 522 165 522 145 516 c 1,10,-1
 138 561 l 1,0,1
474 50 m 1,11,-1
 463 0 l 1,12,-1
 274 0 l 1,13,14
 278 22 278 22 283 37 c 128,-1,15
 288 52 288 52 297 64 c 128,-1,16
 306 76 306 76 320 86 c 128,-1,17
 334 96 334 96 355 108 c 2,18,-1
 380 122 l 2,19,20
 410 139 410 139 423.5 150.5 c 128,-1,21
 437 162 437 162 437 179 c 0,22,23
 437 193 437 193 428 198.5 c 128,-1,24
 419 204 419 204 405 204 c 0,25,26
 388 204 388 204 370 197 c 128,-1,27
 352 190 352 190 339 179 c 1,28,-1
 316 218 l 1,29,30
 334 235 334 235 362 245.5 c 128,-1,31
 390 256 390 256 418 256 c 0,32,33
 448 256 448 256 470 241 c 128,-1,34
 492 226 492 226 492 188 c 0,35,36
 492 167 492 167 481.5 150 c 128,-1,37
 471 133 471 133 455.5 119 c 128,-1,38
 440 105 440 105 422 94 c 128,-1,39
 404 83 404 83 388 75 c 128,-1,40
 372 67 372 67 360.5 60.5 c 128,-1,41
 349 54 349 54 347 50 c 1,42,-1
 474 50 l 1,11,-1
95 0 m 1,43,-1
 19 0 l 1,44,-1
 501 619 l 1,45,-1
 579 619 l 1,46,-1
 95 0 l 1,43,-1
EndSplineSet
Ligature2: "'frac' Diagonal Fractions lookup 13 subtable" one.sinf fraction two.sinf
Ligature2: "'frac' Diagonal Fractions lookup 13 subtable" one.sinf fraction two.sups
Ligature2: "'frac' Diagonal Fractions lookup 13 subtable" one.sinf fraction twoinferior
Ligature2: "'frac' Diagonal Fractions lookup 13 subtable" one.sinf fraction twosuperior
Ligature2: "'frac' Diagonal Fractions lookup 13 subtable" one.sinf fraction two
Ligature2: "'frac' Diagonal Fractions lookup 13 subtable" one.sups fraction two.sinf
Ligature2: "'frac' Diagonal Fractions lookup 13 subtable" one.sups fraction two.sups
Ligature2: "'frac' Diagonal Fractions lookup 13 subtable" one.sups fraction twoinferior
Ligature2: "'frac' Diagonal Fractions lookup 13 subtable" one.sups fraction twosuperior
Ligature2: "'frac' Diagonal Fractions lookup 13 subtable" one.sups fraction two
Ligature2: "'frac' Diagonal Fractions lookup 13 subtable" oneinferior fraction two.sinf
Ligature2: "'frac' Diagonal Fractions lookup 13 subtable" oneinferior fraction two.sups
Ligature2: "'frac' Diagonal Fractions lookup 13 subtable" oneinferior fraction twoinferior
Ligature2: "'frac' Diagonal Fractions lookup 13 subtable" oneinferior fraction twosuperior
Ligature2: "'frac' Diagonal Fractions lookup 13 subtable" oneinferior fraction two
Ligature2: "'frac' Diagonal Fractions lookup 13 subtable" onesuperior fraction two.sinf
Ligature2: "'frac' Diagonal Fractions lookup 13 subtable" onesuperior fraction two.sups
Ligature2: "'frac' Diagonal Fractions lookup 13 subtable" onesuperior fraction twoinferior
Ligature2: "'frac' Diagonal Fractions lookup 13 subtable" onesuperior fraction twosuperior
Ligature2: "'frac' Diagonal Fractions lookup 13 subtable" onesuperior fraction two
Ligature2: "'frac' Diagonal Fractions lookup 13 subtable" one fraction two.sinf
Ligature2: "'frac' Diagonal Fractions lookup 13 subtable" one fraction two.sups
Ligature2: "'frac' Diagonal Fractions lookup 13 subtable" one fraction twoinferior
Ligature2: "'frac' Diagonal Fractions lookup 13 subtable" one fraction twosuperior
Ligature2: "'frac' Diagonal Fractions lookup 13 subtable" one fraction two
EndChar

StartChar: threequarters
Encoding: 190 190 153
Width: 500
Flags: W
LayerCount: 2
Fore
SplineSet
105 430 m 1,0,1
 115 425 115 425 131 421 c 128,-1,2
 147 417 147 417 167 417 c 0,3,4
 193 417 193 417 211.5 425.5 c 128,-1,5
 230 434 230 434 230 455 c 0,6,7
 230 471 230 471 212 475.5 c 128,-1,8
 194 480 194 480 161 480 c 2,9,-1
 149 480 l 1,10,-1
 161 530 l 1,11,-1
 196 530 l 2,12,13
 219 530 219 530 232 539 c 128,-1,14
 245 548 245 548 245 562 c 0,15,16
 245 583 245 583 210 583 c 0,17,18
 196 583 196 583 177.5 578 c 128,-1,19
 159 573 159 573 145 568 c 1,20,-1
 137 611 l 1,21,22
 152 619 152 619 177.5 626 c 128,-1,23
 203 633 203 633 229 633 c 0,24,25
 258 633 258 633 280.5 620.5 c 128,-1,26
 303 608 303 608 303 575 c 0,27,28
 303 558 303 558 291.5 540 c 128,-1,29
 280 522 280 522 257 510 c 1,30,31
 287 491 287 491 287 458 c 0,32,33
 287 442 287 442 279 425.5 c 128,-1,34
 271 409 271 409 255 396 c 128,-1,35
 239 383 239 383 215 375 c 128,-1,36
 191 367 191 367 159 367 c 0,37,38
 114 367 114 367 80 384 c 1,39,-1
 105 430 l 1,0,1
496 250 m 1,40,-1
 459 98 l 1,41,-1
 495 98 l 1,42,-1
 483 48 l 1,43,-1
 447 48 l 1,44,-1
 436 0 l 1,45,-1
 377 0 l 1,46,-1
 388 48 l 1,47,-1
 259 48 l 1,48,-1
 269 89 l 1,49,50
 307 135 307 135 347.5 174.5 c 128,-1,51
 388 214 388 214 438 250 c 1,52,-1
 496 250 l 1,40,-1
421 185 m 1,53,54
 406 173 406 173 394.5 162.5 c 128,-1,55
 383 152 383 152 373.5 142 c 128,-1,56
 364 132 364 132 354.5 121.5 c 128,-1,57
 345 111 345 111 335 98 c 1,58,-1
 400 98 l 1,59,-1
 421 185 l 1,53,54
104 0 m 1,60,-1
 28 0 l 1,61,-1
 510 619 l 1,62,-1
 588 619 l 1,63,-1
 104 0 l 1,60,-1
EndSplineSet
Ligature2: "'frac' Diagonal Fractions lookup 13 subtable" three.sinf fraction four.sinf
Ligature2: "'frac' Diagonal Fractions lookup 13 subtable" three.sinf fraction four.sups
Ligature2: "'frac' Diagonal Fractions lookup 13 subtable" three.sinf fraction fourinferior
Ligature2: "'frac' Diagonal Fractions lookup 13 subtable" three.sinf fraction foursuperior
Ligature2: "'frac' Diagonal Fractions lookup 13 subtable" three.sinf fraction four
Ligature2: "'frac' Diagonal Fractions lookup 13 subtable" three.sups fraction four.sinf
Ligature2: "'frac' Diagonal Fractions lookup 13 subtable" three.sups fraction four.sups
Ligature2: "'frac' Diagonal Fractions lookup 13 subtable" three.sups fraction fourinferior
Ligature2: "'frac' Diagonal Fractions lookup 13 subtable" three.sups fraction foursuperior
Ligature2: "'frac' Diagonal Fractions lookup 13 subtable" three.sups fraction four
Ligature2: "'frac' Diagonal Fractions lookup 13 subtable" threeinferior fraction four.sinf
Ligature2: "'frac' Diagonal Fractions lookup 13 subtable" threeinferior fraction four.sups
Ligature2: "'frac' Diagonal Fractions lookup 13 subtable" threeinferior fraction fourinferior
Ligature2: "'frac' Diagonal Fractions lookup 13 subtable" threeinferior fraction foursuperior
Ligature2: "'frac' Diagonal Fractions lookup 13 subtable" threeinferior fraction four
Ligature2: "'frac' Diagonal Fractions lookup 13 subtable" threesuperior fraction four.sinf
Ligature2: "'frac' Diagonal Fractions lookup 13 subtable" threesuperior fraction four.sups
Ligature2: "'frac' Diagonal Fractions lookup 13 subtable" threesuperior fraction fourinferior
Ligature2: "'frac' Diagonal Fractions lookup 13 subtable" threesuperior fraction foursuperior
Ligature2: "'frac' Diagonal Fractions lookup 13 subtable" threesuperior fraction four
Ligature2: "'frac' Diagonal Fractions lookup 13 subtable" three fraction four.sinf
Ligature2: "'frac' Diagonal Fractions lookup 13 subtable" three fraction four.sups
Ligature2: "'frac' Diagonal Fractions lookup 13 subtable" three fraction fourinferior
Ligature2: "'frac' Diagonal Fractions lookup 13 subtable" three fraction foursuperior
Ligature2: "'frac' Diagonal Fractions lookup 13 subtable" three fraction four
EndChar

StartChar: questiondown
Encoding: 191 191 154
Width: 500
Flags: W
LayerCount: 2
Fore
SplineSet
369 243 m 1,0,-1
 366 223 l 2,1,2
 362 193 362 193 344.5 170 c 128,-1,3
 327 147 327 147 304 126.5 c 128,-1,4
 281 106 281 106 255.5 88 c 128,-1,5
 230 70 230 70 208.5 50.5 c 128,-1,6
 187 31 187 31 173 9.5 c 128,-1,7
 159 -12 159 -12 159 -38 c 0,8,9
 159 -67 159 -67 177.5 -84.5 c 128,-1,10
 196 -102 196 -102 238 -102 c 0,11,12
 267 -102 267 -102 294.5 -96 c 128,-1,13
 322 -90 322 -90 354 -74 c 1,14,-1
 363 -138 l 1,15,16
 338 -151 338 -151 301.5 -160.5 c 128,-1,17
 265 -170 265 -170 226 -170 c 0,18,19
 197 -170 197 -170 170.5 -164 c 128,-1,20
 144 -158 144 -158 123 -144 c 128,-1,21
 102 -130 102 -130 89.5 -107 c 128,-1,22
 77 -84 77 -84 77 -49 c 0,23,24
 77 -12 77 -12 91.5 15.5 c 128,-1,25
 106 43 106 43 128.5 65.5 c 128,-1,26
 151 88 151 88 178 107 c 128,-1,27
 205 126 205 126 229 146 c 128,-1,28
 253 166 253 166 271.5 189 c 128,-1,29
 290 212 290 212 296 243 c 1,30,-1
 369 243 l 1,0,-1
372 465 m 256,31,32
 398 465 398 465 414.5 450.5 c 128,-1,33
 431 436 431 436 431 405 c 0,34,35
 431 369 431 369 410.5 349.5 c 128,-1,36
 390 330 390 330 362 330 c 0,37,38
 336 330 336 330 318.5 345.5 c 128,-1,39
 301 361 301 361 301 391 c 0,40,41
 301 426 301 426 323.5 445.5 c 128,-1,42
 346 465 346 465 372 465 c 256,31,32
EndSplineSet
Substitution2: "'case' Case-Sensitive Forms lookup 17 subtable" Questiondown
EndChar

StartChar: Aring
Encoding: 197 197 160
Width: 500
Flags: W
LayerCount: 2
Fore
SplineSet
383 0 m 1,0,-1
 384 162 l 1,1,-1
 146 162 l 1,2,-1
 70 0 l 1,3,-1
 -13 0 l 1,4,5
 17 61 17 61 55 134.5 c 128,-1,6
 93 208 93 208 135.5 286.5 c 128,-1,7
 178 365 178 365 222.5 443.5 c 128,-1,8
 267 522 267 522 311 593 c 1,9,10
 300 605 300 605 293 621.5 c 128,-1,11
 286 638 286 638 286 658 c 0,12,13
 286 700 286 700 313.5 724.5 c 128,-1,14
 341 749 341 749 378 749 c 256,15,16
 415 749 415 749 442.5 724.5 c 128,-1,17
 470 700 470 700 470 658 c 0,18,19
 470 635 470 635 459.5 613.5 c 128,-1,20
 449 592 449 592 430 580 c 1,21,22
 438 511 438 511 444.5 433.5 c 128,-1,23
 451 356 451 356 456 279 c 128,-1,24
 461 202 461 202 464 130 c 128,-1,25
 467 58 467 58 469 0 c 1,26,-1
 383 0 l 1,0,-1
357 547 m 1,27,28
 319 484 319 484 273 401 c 128,-1,29
 227 318 227 318 181 230 c 1,30,-1
 381 230 l 1,31,32
 379 320 379 320 372 403.5 c 128,-1,33
 365 487 365 487 357 547 c 1,27,28
425 658 m 256,34,35
 425 681 425 681 411.5 694 c 128,-1,36
 398 707 398 707 378 707 c 256,37,38
 358 707 358 707 344.5 694 c 128,-1,39
 331 681 331 681 331 658 c 256,40,41
 331 635 331 635 344.5 622 c 128,-1,42
 358 609 358 609 378 609 c 256,43,44
 398 609 398 609 411.5 622 c 128,-1,45
 425 635 425 635 425 658 c 256,34,35
EndSplineSet
EndChar

StartChar: AE
Encoding: 198 198 161
Width: 500
Flags: W
LayerCount: 2
Fore
SplineSet
245 0 m 1,0,-1
 285 162 l 1,1,-1
 164 162 l 1,2,-1
 88 0 l 1,3,-1
 8 0 l 1,4,5
 93 174 93 174 176 326.5 c 128,-1,6
 259 479 259 479 348 619 c 1,7,-1
 601 619 l 1,8,-1
 584 549 l 1,9,-1
 456 549 l 1,10,-1
 411 359 l 1,11,-1
 515 359 l 1,12,-1
 498 289 l 1,13,-1
 394 289 l 1,14,-1
 341 70 l 1,15,-1
 482 70 l 1,16,-1
 465 0 l 1,17,-1
 245 0 l 1,0,-1
382 566 m 1,18,19
 332 478 332 478 284.5 391 c 128,-1,20
 237 304 237 304 199 230 c 1,21,-1
 301 230 l 1,22,-1
 382 566 l 1,18,19
EndSplineSet
EndChar

StartChar: Ccedilla
Encoding: 199 199 162
Width: 500
Flags: W
LayerCount: 2
Fore
SplineSet
280 -34 m 1,0,1
 298 -44 298 -44 307 -55.5 c 128,-1,2
 316 -67 316 -67 316 -88 c 0,3,4
 316 -127 316 -127 288 -148 c 128,-1,5
 260 -169 260 -169 212 -169 c 0,6,7
 186 -169 186 -169 168.5 -165 c 128,-1,8
 151 -161 151 -161 140 -155 c 1,9,-1
 160 -106 l 1,10,11
 168 -110 168 -110 179.5 -113 c 128,-1,12
 191 -116 191 -116 208 -116 c 0,13,14
 223 -116 223 -116 232.5 -111.5 c 128,-1,15
 242 -107 242 -107 242 -94 c 0,16,17
 242 -79 242 -79 230.5 -72 c 128,-1,18
 219 -65 219 -65 206 -62 c 1,19,20
 212 -51 212 -51 221.5 -37 c 128,-1,21
 231 -23 231 -23 240 -9 c 1,22,23
 170 3 170 3 129.5 58.5 c 128,-1,24
 89 114 89 114 89 202 c 0,25,26
 89 281 89 281 112 358.5 c 128,-1,27
 135 436 135 436 178.5 497 c 128,-1,28
 222 558 222 558 284 595.5 c 128,-1,29
 346 633 346 633 424 633 c 0,30,31
 484 633 484 633 520.5 617 c 128,-1,32
 557 601 557 601 574 587 c 1,33,-1
 535 521 l 1,34,35
 518 536 518 536 485.5 548 c 128,-1,36
 453 560 453 560 418 560 c 0,37,38
 360 560 360 560 314.5 530 c 128,-1,39
 269 500 269 500 237.5 451 c 128,-1,40
 206 402 206 402 189 340.5 c 128,-1,41
 172 279 172 279 172 215 c 0,42,43
 172 143 172 143 204 101.5 c 128,-1,44
 236 60 236 60 297 60 c 0,45,46
 345 60 345 60 382 72.5 c 128,-1,47
 419 85 419 85 437 96 c 1,48,-1
 446 26 l 1,49,50
 440 21 440 21 426.5 15 c 128,-1,51
 413 9 413 9 393 3 c 128,-1,52
 373 -3 373 -3 348 -7.5 c 128,-1,53
 323 -12 323 -12 295 -13 c 1,54,-1
 280 -34 l 1,0,1
EndSplineSet
EndChar

StartChar: Eth
Encoding: 208 208 171
Width: 500
Flags: W
LayerCount: 2
Fore
SplineSet
522 405 m 0,0,1
 522 326 522 326 502.5 252 c 128,-1,2
 483 178 483 178 442 121 c 128,-1,3
 401 64 401 64 337.5 29.5 c 128,-1,4
 274 -5 274 -5 187 -5 c 0,5,6
 158 -5 158 -5 127 -2 c 128,-1,7
 96 1 96 1 70 9 c 1,8,-1
 136 289 l 1,9,-1
 65 289 l 1,10,-1
 82 356 l 1,11,-1
 153 356 l 1,12,-1
 213 610 l 1,13,14
 274 625 274 625 330 625 c 0,15,16
 420 625 420 625 471 567.5 c 128,-1,17
 522 510 522 510 522 405 c 0,0,1
167 71 m 1,18,19
 173 69 173 69 184 67.5 c 128,-1,20
 195 66 195 66 204 66 c 0,21,22
 254 66 254 66 297 90 c 128,-1,23
 340 114 340 114 371.5 157.5 c 128,-1,24
 403 201 403 201 421 262 c 128,-1,25
 439 323 439 323 439 396 c 0,26,27
 439 472 439 472 410 513 c 128,-1,28
 381 554 381 554 319 554 c 0,29,30
 297 554 297 554 281 551 c 1,31,-1
 235 356 l 1,32,-1
 315 356 l 1,33,-1
 298 289 l 1,34,-1
 219 289 l 1,35,-1
 167 71 l 1,18,19
EndSplineSet
EndChar

StartChar: multiply
Encoding: 215 215 178
Width: 500
Flags: W
LayerCount: 2
Fore
SplineSet
290 213 m 1,0,-1
 129 82 l 1,1,-1
 88 136 l 1,2,-1
 250 267 l 1,3,-1
 153 396 l 1,4,-1
 209 441 l 1,5,-1
 306 313 l 1,6,-1
 467 444 l 1,7,-1
 509 390 l 1,8,-1
 346 259 l 1,9,-1
 444 130 l 1,10,-1
 388 85 l 1,11,-1
 290 213 l 1,0,-1
EndSplineSet
EndChar

StartChar: Oslash
Encoding: 216 216 179
Width: 500
Flags: W
LayerCount: 2
Fore
SplineSet
370 633 m 0,0,1
 432 633 432 633 472 599 c 1,2,-1
 510 651 l 1,3,-1
 561 614 l 1,4,-1
 512 547 l 1,5,6
 532 502 532 502 532 436 c 0,7,8
 532 399 532 399 525 351.5 c 128,-1,9
 518 304 518 304 503 254 c 128,-1,10
 488 204 488 204 464.5 156 c 128,-1,11
 441 108 441 108 408 70.5 c 128,-1,12
 375 33 375 33 332 10 c 128,-1,13
 289 -13 289 -13 235 -13 c 0,14,15
 171 -13 171 -13 130 21 c 1,16,-1
 91 -33 l 1,17,-1
 41 3 l 1,18,-1
 92 73 l 1,19,20
 82 95 82 95 76.5 122.5 c 128,-1,21
 71 150 71 150 71 184 c 0,22,23
 71 221 71 221 78 268.5 c 128,-1,24
 85 316 85 316 100 366 c 128,-1,25
 115 416 115 416 139 464 c 128,-1,26
 163 512 163 512 196 549.5 c 128,-1,27
 229 587 229 587 272.5 610 c 128,-1,28
 316 633 316 633 370 633 c 0,0,1
453 430 m 0,29,30
 453 438 453 438 452.5 446.5 c 128,-1,31
 452 455 452 455 451 463 c 1,32,-1
 177 86 l 1,33,34
 201 58 201 58 245 58 c 0,35,36
 294 58 294 58 332.5 94.5 c 128,-1,37
 371 131 371 131 398 186.5 c 128,-1,38
 425 242 425 242 439 307.5 c 128,-1,39
 453 373 453 373 453 430 c 0,29,30
360 562 m 0,40,41
 311 562 311 562 272.5 525.5 c 128,-1,42
 234 489 234 489 207 433.5 c 128,-1,43
 180 378 180 378 166 312.5 c 128,-1,44
 152 247 152 247 152 190 c 0,45,46
 152 182 152 182 152 173.5 c 128,-1,47
 152 165 152 165 153 157 c 1,48,-1
 426 535 l 1,49,50
 402 562 402 562 360 562 c 0,40,41
EndSplineSet
EndChar

StartChar: Thorn
Encoding: 222 222 185
Width: 500
Flags: W
LayerCount: 2
Fore
SplineSet
202 619 m 1,0,-1
 284 619 l 1,1,-1
 260 517 l 1,2,3
 291 520 291 520 321 520 c 0,4,5
 420 520 420 520 469 476.5 c 128,-1,6
 518 433 518 433 518 363 c 0,7,8
 518 294 518 294 490.5 248.5 c 128,-1,9
 463 203 463 203 418.5 176 c 128,-1,10
 374 149 374 149 317.5 138 c 128,-1,11
 261 127 261 127 203 127 c 2,12,-1
 166 127 l 1,13,-1
 135 0 l 1,14,-1
 53 0 l 1,15,-1
 202 619 l 1,0,-1
183 199 m 1,16,-1
 222 199 l 2,17,18
 263 199 263 199 300.5 207 c 128,-1,19
 338 215 338 215 367 233.5 c 128,-1,20
 396 252 396 252 413 281.5 c 128,-1,21
 430 311 430 311 430 355 c 0,22,23
 430 392 430 392 409.5 411 c 128,-1,24
 389 430 389 430 360 438 c 128,-1,25
 331 446 331 446 298 445.5 c 128,-1,26
 265 445 265 445 241 443 c 1,27,-1
 183 199 l 1,16,-1
EndSplineSet
EndChar

StartChar: germandbls
Encoding: 223 223 186
Width: 500
Flags: W
LayerCount: 2
Fore
SplineSet
175 463 m 2,0,1
 188 518 188 518 204 560.5 c 128,-1,2
 220 603 220 603 243.5 632.5 c 128,-1,3
 267 662 267 662 299.5 677.5 c 128,-1,4
 332 693 332 693 378 693 c 0,5,6
 449 693 449 693 482 659 c 128,-1,7
 515 625 515 625 515 572 c 0,8,9
 515 546 515 546 509.5 527 c 128,-1,10
 504 508 504 508 492.5 491 c 128,-1,11
 481 474 481 474 463.5 457.5 c 128,-1,12
 446 441 446 441 422 420 c 0,13,14
 407 406 407 406 396 396.5 c 128,-1,15
 385 387 385 387 377.5 377.5 c 128,-1,16
 370 368 370 368 366.5 358 c 128,-1,17
 363 348 363 348 363 335 c 0,18,19
 363 321 363 321 373 310 c 128,-1,20
 383 299 383 299 398 288 c 128,-1,21
 413 277 413 277 430 265.5 c 128,-1,22
 447 254 447 254 462 238 c 128,-1,23
 477 222 477 222 487 200.5 c 128,-1,24
 497 179 497 179 497 150 c 0,25,26
 497 108 497 108 481 77.5 c 128,-1,27
 465 47 465 47 438.5 27 c 128,-1,28
 412 7 412 7 378 -2.5 c 128,-1,29
 344 -12 344 -12 308 -12 c 0,30,31
 277 -12 277 -12 252.5 -6.5 c 128,-1,32
 228 -1 228 -1 202 12 c 1,33,-1
 233 84 l 1,34,35
 253 71 253 71 271.5 65.5 c 128,-1,36
 290 60 290 60 316 60 c 0,37,38
 335 60 335 60 353 64.5 c 128,-1,39
 371 69 371 69 385 79.5 c 128,-1,40
 399 90 399 90 407 106 c 128,-1,41
 415 122 415 122 415 145 c 256,42,43
 415 168 415 168 405 183 c 128,-1,44
 395 198 395 198 380 209.5 c 128,-1,45
 365 221 365 221 347.5 231 c 128,-1,46
 330 241 330 241 315 254 c 128,-1,47
 300 267 300 267 290 285 c 128,-1,48
 280 303 280 303 280 330 c 0,49,50
 280 370 280 370 304 398 c 128,-1,51
 328 426 328 426 357 450.5 c 128,-1,52
 386 475 386 475 410 500.5 c 128,-1,53
 434 526 434 526 434 563 c 0,54,55
 434 622 434 622 373 622 c 0,56,57
 326 622 326 622 299.5 577.5 c 128,-1,58
 273 533 273 533 257 461 c 2,59,-1
 162 18 l 2,60,61
 151 -32 151 -32 136.5 -67.5 c 128,-1,62
 122 -103 122 -103 99.5 -125.5 c 128,-1,63
 77 -148 77 -148 46 -158 c 128,-1,64
 15 -168 15 -168 -29 -168 c 0,65,66
 -44 -168 -44 -168 -63 -164 c 128,-1,67
 -82 -160 -82 -160 -93 -152 c 1,68,-1
 -74 -83 l 1,69,70
 -53 -96 -53 -96 -16 -96 c 0,71,72
 25 -96 25 -96 46.5 -65 c 128,-1,73
 68 -34 68 -34 79 17 c 2,74,-1
 175 463 l 2,0,1
EndSplineSet
EndChar

StartChar: ae
Encoding: 230 230 193
Width: 500
Flags: W
LayerCount: 2
Fore
SplineSet
266 79 m 1,0,1
 255 58 255 58 239.5 41 c 128,-1,2
 224 24 224 24 206 12.5 c 128,-1,3
 188 1 188 1 169 -5 c 128,-1,4
 150 -11 150 -11 132 -11 c 0,5,6
 97 -11 97 -11 71.5 14 c 128,-1,7
 46 39 46 39 46 93 c 0,8,9
 46 124 46 124 59 156.5 c 128,-1,10
 72 189 72 189 98.5 217 c 128,-1,11
 125 245 125 245 166 263.5 c 128,-1,12
 207 282 207 282 263 284 c 1,13,14
 264 291 264 291 264 297 c 128,-1,15
 264 303 264 303 264 311 c 0,16,17
 264 358 264 358 246 380.5 c 128,-1,18
 228 403 228 403 197 403 c 256,19,20
 166 403 166 403 125 380 c 1,21,-1
 130 449 l 1,22,23
 152 463 152 463 174 469 c 128,-1,24
 196 475 196 475 217 475 c 0,25,26
 235 475 235 475 253 470 c 128,-1,27
 271 465 271 465 287 454.5 c 128,-1,28
 303 444 303 444 314.5 427 c 128,-1,29
 326 410 326 410 330 385 c 1,30,31
 351 428 351 428 387.5 451.5 c 128,-1,32
 424 475 424 475 459 475 c 256,33,34
 494 475 494 475 519.5 450 c 128,-1,35
 545 425 545 425 545 371 c 0,36,37
 545 340 545 340 532.5 307.5 c 128,-1,38
 520 275 520 275 493 247.5 c 128,-1,39
 466 220 466 220 425 201.5 c 128,-1,40
 384 183 384 183 327 180 c 1,41,-1
 327 154 l 2,42,43
 327 106 327 106 345 84 c 128,-1,44
 363 62 363 62 394 62 c 256,45,46
 425 62 425 62 466 85 c 1,47,-1
 461 15 l 1,48,49
 439 1 439 1 417 -5 c 128,-1,50
 395 -11 395 -11 374 -11 c 0,51,52
 356 -11 356 -11 339 -6 c 128,-1,53
 322 -1 322 -1 307 9.5 c 128,-1,54
 292 20 292 20 281 37 c 128,-1,55
 270 54 270 54 266 79 c 1,0,1
156 59 m 0,56,57
 168 59 168 59 182.5 69 c 128,-1,58
 197 79 197 79 211 98.5 c 128,-1,59
 225 118 225 118 237 147 c 128,-1,60
 249 176 249 176 256 215 c 1,61,62
 219 213 219 213 194 203 c 128,-1,63
 169 193 169 193 153.5 178 c 128,-1,64
 138 163 138 163 131.5 145 c 128,-1,65
 125 127 125 127 125 111 c 0,66,67
 125 85 125 85 133.5 72 c 128,-1,68
 142 59 142 59 156 59 c 0,56,57
435 405 m 0,69,70
 423 405 423 405 408.5 395 c 128,-1,71
 394 385 394 385 380 365.5 c 128,-1,72
 366 346 366 346 354 317 c 128,-1,73
 342 288 342 288 335 249 c 1,74,75
 372 250 372 250 397 260.5 c 128,-1,76
 422 271 422 271 437.5 286.5 c 128,-1,77
 453 302 453 302 459.5 319.5 c 128,-1,78
 466 337 466 337 466 354 c 0,79,80
 466 380 466 380 457.5 392.5 c 128,-1,81
 449 405 449 405 435 405 c 0,69,70
EndSplineSet
Substitution2: "'case' Case-Sensitive Forms lookup 18 subtable" AE
EndChar

StartChar: ccedilla
Encoding: 231 231 194
Width: 500
Flags: W
LayerCount: 2
Fore
SplineSet
260 -34 m 1,0,1
 278 -44 278 -44 287 -55.5 c 128,-1,2
 296 -67 296 -67 296 -88 c 0,3,4
 296 -127 296 -127 268 -148 c 128,-1,5
 240 -169 240 -169 192 -169 c 0,6,7
 166 -169 166 -169 148.5 -165 c 128,-1,8
 131 -161 131 -161 120 -155 c 1,9,-1
 140 -106 l 1,10,11
 148 -110 148 -110 159.5 -113 c 128,-1,12
 171 -116 171 -116 188 -116 c 0,13,14
 203 -116 203 -116 212.5 -111.5 c 128,-1,15
 222 -107 222 -107 222 -94 c 0,16,17
 222 -79 222 -79 210.5 -72 c 128,-1,18
 199 -65 199 -65 186 -62 c 1,19,20
 192 -51 192 -51 202.5 -36 c 128,-1,21
 213 -21 213 -21 222 -7 c 1,22,23
 146 7 146 7 108.5 53 c 128,-1,24
 71 99 71 99 71 166 c 0,25,26
 71 227 71 227 91.5 283 c 128,-1,27
 112 339 112 339 151.5 382 c 128,-1,28
 191 425 191 425 248.5 450.5 c 128,-1,29
 306 476 306 476 381 476 c 0,30,31
 422 476 422 476 453 470.5 c 128,-1,32
 484 465 484 465 511 454 c 1,33,-1
 480 384 l 1,34,35
 463 392 463 392 439.5 399 c 128,-1,36
 416 406 416 406 374 406 c 0,37,38
 323 406 323 406 282 386.5 c 128,-1,39
 241 367 241 367 212.5 334.5 c 128,-1,40
 184 302 184 302 169 260.5 c 128,-1,41
 154 219 154 219 154 174 c 0,42,43
 154 151 154 151 160 130.5 c 128,-1,44
 166 110 166 110 182 94 c 128,-1,45
 198 78 198 78 225.5 69 c 128,-1,46
 253 60 253 60 295 60 c 0,47,48
 317 60 317 60 338 63 c 128,-1,49
 359 66 359 66 377 71 c 128,-1,50
 395 76 395 76 408.5 81 c 128,-1,51
 422 86 422 86 429 91 c 1,52,-1
 436 21 l 1,53,54
 418 10 418 10 377.5 -1 c 128,-1,55
 337 -12 337 -12 280 -12 c 2,56,-1
 276 -12 l 1,57,-1
 260 -34 l 1,0,1
EndSplineSet
Substitution2: "'case' Case-Sensitive Forms lookup 18 subtable" Ccedilla
EndChar

StartChar: eth
Encoding: 240 240 203
Width: 500
Flags: W
LayerCount: 2
Fore
SplineSet
499 381 m 0,0,1
 499 354 499 354 495.5 314.5 c 128,-1,2
 492 275 492 275 481.5 231.5 c 128,-1,3
 471 188 471 188 452.5 144.5 c 128,-1,4
 434 101 434 101 404.5 66 c 128,-1,5
 375 31 375 31 333 9.5 c 128,-1,6
 291 -12 291 -12 233 -12 c 0,7,8
 200 -12 200 -12 172 1 c 128,-1,9
 144 14 144 14 123.5 37 c 128,-1,10
 103 60 103 60 91.5 91 c 128,-1,11
 80 122 80 122 80 157 c 0,12,13
 80 216 80 216 96 267.5 c 128,-1,14
 112 319 112 319 143 357 c 128,-1,15
 174 395 174 395 220 416.5 c 128,-1,16
 266 438 266 438 326 438 c 0,17,18
 355 438 355 438 378 429.5 c 128,-1,19
 401 421 401 421 416 411 c 1,20,21
 414 440 414 440 408 469.5 c 128,-1,22
 402 499 402 499 389 529 c 1,23,-1
 273 492 l 1,24,-1
 266 548 l 1,25,-1
 364 580 l 1,26,27
 350 603 350 603 334.5 618.5 c 128,-1,28
 319 634 319 634 301 651 c 1,29,-1
 363 693 l 1,30,31
 380 680 380 680 400.5 658 c 128,-1,32
 421 636 421 636 441 604 c 1,33,-1
 558 641 l 1,34,-1
 565 585 l 1,35,-1
 467 554 l 1,36,37
 481 519 481 519 490 476 c 128,-1,38
 499 433 499 433 499 381 c 0,0,1
245 58 m 256,39,40
 284 58 284 58 314 82 c 128,-1,41
 344 106 344 106 365 144.5 c 128,-1,42
 386 183 386 183 398 231.5 c 128,-1,43
 410 280 410 280 414 330 c 1,44,45
 393 350 393 350 368.5 359 c 128,-1,46
 344 368 344 368 320 368 c 0,47,48
 244 368 244 368 203.5 311.5 c 128,-1,49
 163 255 163 255 163 158 c 0,50,51
 163 114 163 114 184.5 86 c 128,-1,52
 206 58 206 58 245 58 c 256,39,40
EndSplineSet
Substitution2: "'case' Case-Sensitive Forms lookup 18 subtable" Eth
EndChar

StartChar: divide
Encoding: 247 247 210
Width: 500
Flags: W
LayerCount: 2
Fore
SplineSet
328 108 m 0,0,1
 328 96 328 96 323 83 c 128,-1,2
 318 70 318 70 308.5 59.5 c 128,-1,3
 299 49 299 49 286 42.5 c 128,-1,4
 273 36 273 36 258 36 c 0,5,6
 235 36 235 36 221.5 50.5 c 128,-1,7
 208 65 208 65 208 85 c 0,8,9
 208 113 208 113 228.5 135.5 c 128,-1,10
 249 158 249 158 280 158 c 0,11,12
 303 158 303 158 315.5 143.5 c 128,-1,13
 328 129 328 129 328 108 c 0,0,1
386 440 m 0,14,15
 386 427 386 427 381 414 c 128,-1,16
 376 401 376 401 367 390.5 c 128,-1,17
 358 380 358 380 345 373.5 c 128,-1,18
 332 367 332 367 316 367 c 0,19,20
 292 367 292 367 279 381.5 c 128,-1,21
 266 396 266 396 266 417 c 0,22,23
 266 446 266 446 287 467.5 c 128,-1,24
 308 489 308 489 338 489 c 0,25,26
 361 489 361 489 373.5 475 c 128,-1,27
 386 461 386 461 386 440 c 0,14,15
505 298 m 1,28,-1
 488 228 l 1,29,-1
 88 228 l 1,30,-1
 104 298 l 1,31,-1
 505 298 l 1,28,-1
EndSplineSet
EndChar

StartChar: oslash
Encoding: 248 248 211
Width: 500
Flags: W
LayerCount: 2
Fore
SplineSet
556 457 m 1,0,-1
 490 390 l 1,1,2
 497 374 497 374 501 355 c 128,-1,3
 505 336 505 336 505 313 c 0,4,5
 505 261 505 261 490.5 204 c 128,-1,6
 476 147 476 147 443.5 99 c 128,-1,7
 411 51 411 51 360 20 c 128,-1,8
 309 -11 309 -11 237 -11 c 0,9,10
 168 -11 168 -11 128 26 c 1,11,-1
 71 -32 l 1,12,-1
 29 7 l 1,13,-1
 95 73 l 1,14,15
 80 107 80 107 80 151 c 0,16,17
 80 203 80 203 94.5 260 c 128,-1,18
 109 317 109 317 141.5 365 c 128,-1,19
 174 413 174 413 225 444 c 128,-1,20
 276 475 276 475 348 475 c 0,21,22
 416 475 416 475 456 438 c 1,23,-1
 513 496 l 1,24,-1
 556 457 l 1,0,-1
159 158 m 0,25,26
 159 153 159 153 159 148.5 c 128,-1,27
 159 144 159 144 160 139 c 1,28,-1
 400 381 l 1,29,30
 379 402 379 402 334 402 c 0,31,32
 294 402 294 402 261.5 379.5 c 128,-1,33
 229 357 229 357 206.5 321.5 c 128,-1,34
 184 286 184 286 171.5 242.5 c 128,-1,35
 159 199 159 199 159 158 c 0,25,26
251 63 m 0,36,37
 291 63 291 63 323.5 85.5 c 128,-1,38
 356 108 356 108 378.5 143 c 128,-1,39
 401 178 401 178 413.5 221.5 c 128,-1,40
 426 265 426 265 426 306 c 0,41,42
 426 311 426 311 425.5 315.5 c 128,-1,43
 425 320 425 320 425 325 c 1,44,-1
 184 82 l 1,45,46
 208 63 208 63 251 63 c 0,36,37
EndSplineSet
Substitution2: "'case' Case-Sensitive Forms lookup 18 subtable" Oslash
EndChar

StartChar: thorn
Encoding: 254 254 217
Width: 500
Flags: W
LayerCount: 2
Fore
SplineSet
248 446 m 1,0,1
 280 466 280 466 310 470.5 c 128,-1,2
 340 475 340 475 359 475 c 0,3,4
 394 475 394 475 421.5 462.5 c 128,-1,5
 449 450 449 450 467.5 428.5 c 128,-1,6
 486 407 486 407 495.5 377 c 128,-1,7
 505 347 505 347 505 312 c 0,8,9
 505 250 505 250 485 192 c 128,-1,10
 465 134 465 134 425.5 89 c 128,-1,11
 386 44 386 44 327 17 c 128,-1,12
 268 -10 268 -10 189 -10 c 0,13,14
 179 -10 179 -10 163 -9 c 128,-1,15
 147 -8 147 -8 138 -6 c 1,16,-1
 100 -165 l 1,17,-1
 18 -165 l 1,18,-1
 221 679 l 1,19,-1
 306 693 l 1,20,-1
 248 446 l 1,0,1
155 67 m 1,21,22
 164 65 164 65 179 63.5 c 128,-1,23
 194 62 194 62 204 62 c 0,24,25
 252 62 252 62 292 82 c 128,-1,26
 332 102 332 102 361 135 c 128,-1,27
 390 168 390 168 406.5 211.5 c 128,-1,28
 423 255 423 255 423 302 c 0,29,30
 423 322 423 322 418.5 340.5 c 128,-1,31
 414 359 414 359 403.5 373.5 c 128,-1,32
 393 388 393 388 376 396.5 c 128,-1,33
 359 405 359 405 334 405 c 0,34,35
 312 405 312 405 283.5 397.5 c 128,-1,36
 255 390 255 390 228 370 c 1,37,-1
 155 67 l 1,21,22
EndSplineSet
Substitution2: "'case' Case-Sensitive Forms lookup 18 subtable" Thorn
EndChar

StartChar: Aogonek
Encoding: 260 260 223
Width: 500
Flags: W
LayerCount: 2
Fore
SplineSet
391 -167 m 0,0,1
 341 -167 341 -167 321.5 -151.5 c 128,-1,2
 302 -136 302 -136 302 -111 c 0,3,4
 302 -87 302 -87 318 -64.5 c 128,-1,5
 334 -42 334 -42 356 -24 c 0,6,7
 365 -16 365 -16 372.5 -10.5 c 128,-1,8
 380 -5 380 -5 387 0 c 1,9,-1
 383 0 l 1,10,-1
 384 162 l 1,11,-1
 146 162 l 1,12,-1
 70 0 l 1,13,-1
 -13 0 l 1,14,15
 20 66 20 66 60 143 c 128,-1,16
 100 220 100 220 143.5 301 c 128,-1,17
 187 382 187 382 233.5 463.5 c 128,-1,18
 280 545 280 545 327 619 c 1,19,-1
 425 619 l 1,20,21
 436 545 436 545 443.5 463.5 c 128,-1,22
 451 382 451 382 456 301 c 128,-1,23
 461 220 461 220 464 143 c 128,-1,24
 467 66 467 66 469 0 c 1,25,26
 458 -7 458 -7 446.5 -15.5 c 128,-1,27
 435 -24 435 -24 422 -35 c 0,28,29
 411 -43 411 -43 396 -57.5 c 128,-1,30
 381 -72 381 -72 381 -90 c 0,31,32
 381 -99 381 -99 388.5 -104.5 c 128,-1,33
 396 -110 396 -110 414 -110 c 0,34,35
 422 -110 422 -110 431.5 -108 c 128,-1,36
 441 -106 441 -106 449 -104 c 1,37,-1
 442 -157 l 1,38,39
 420 -167 420 -167 391 -167 c 0,0,1
357 547 m 1,40,41
 319 484 319 484 273 401 c 128,-1,42
 227 318 227 318 181 230 c 1,43,-1
 381 230 l 1,44,45
 379 320 379 320 372 403.5 c 128,-1,46
 365 487 365 487 357 547 c 1,40,41
EndSplineSet
EndChar

StartChar: aogonek
Encoding: 261 261 224
Width: 500
Flags: W
LayerCount: 2
Fore
SplineSet
363 -167 m 0,0,1
 313 -167 313 -167 293.5 -151.5 c 128,-1,2
 274 -136 274 -136 274 -111 c 0,3,4
 274 -87 274 -87 290 -64.5 c 128,-1,5
 306 -42 306 -42 328 -24 c 0,6,7
 341 -13 341 -13 352 -6 c 128,-1,8
 363 1 363 1 371 6 c 1,9,10
 368 14 368 14 365.5 23 c 128,-1,11
 363 32 363 32 361 42 c 1,12,13
 341 24 341 24 305.5 6.5 c 128,-1,14
 270 -11 270 -11 222 -11 c 0,15,16
 144 -11 144 -11 107.5 36 c 128,-1,17
 71 83 71 83 71 155 c 0,18,19
 71 215 71 215 91 272 c 128,-1,20
 111 329 111 329 151.5 374 c 128,-1,21
 192 419 192 419 253 446.5 c 128,-1,22
 314 474 314 474 395 474 c 0,23,24
 407 474 407 474 422.5 473 c 128,-1,25
 438 472 438 472 454 469 c 128,-1,26
 470 466 470 466 485.5 461.5 c 128,-1,27
 501 457 501 457 513 451 c 1,28,-1
 445 171 l 2,29,30
 440 150 440 150 436.5 131.5 c 128,-1,31
 433 113 433 113 433 92 c 256,32,33
 433 71 433 71 437 50.5 c 128,-1,34
 441 30 441 30 449 5 c 1,35,36
 438 -3 438 -3 424 -12 c 128,-1,37
 410 -21 410 -21 394 -35 c 0,38,39
 383 -43 383 -43 368 -57.5 c 128,-1,40
 353 -72 353 -72 353 -90 c 0,41,42
 353 -99 353 -99 360.5 -104.5 c 128,-1,43
 368 -110 368 -110 386 -110 c 0,44,45
 394 -110 394 -110 403.5 -108 c 128,-1,46
 413 -106 413 -106 421 -104 c 1,47,-1
 414 -157 l 1,48,49
 392 -167 392 -167 363 -167 c 0,0,1
239 57 m 0,50,51
 277 57 277 57 306.5 73 c 128,-1,52
 336 89 336 89 356 111 c 1,53,54
 357 126 357 126 359.5 145 c 128,-1,55
 362 164 362 164 366 181 c 2,56,-1
 421 400 l 1,57,58
 416 402 416 402 402 403.5 c 128,-1,59
 388 405 388 405 380 405 c 0,60,61
 329 405 329 405 287.5 385 c 128,-1,62
 246 365 246 365 216 331.5 c 128,-1,63
 186 298 186 298 170 254.5 c 128,-1,64
 154 211 154 211 154 164 c 0,65,66
 154 141 154 141 158 121.5 c 128,-1,67
 162 102 162 102 171.5 88 c 128,-1,68
 181 74 181 74 197.5 65.5 c 128,-1,69
 214 57 214 57 239 57 c 0,50,51
EndSplineSet
Substitution2: "'case' Case-Sensitive Forms lookup 18 subtable" Aogonek
EndChar

StartChar: dcaron
Encoding: 271 271 234
Width: 500
Flags: W
LayerCount: 2
Fore
SplineSet
371 92 m 256,0,1
 371 71 371 71 374.5 50.5 c 128,-1,2
 378 30 378 30 387 5 c 1,3,-1
 313 -5 l 1,4,5
 304 13 304 13 298 42 c 1,6,7
 280 24 280 24 251 6.5 c 128,-1,8
 222 -11 222 -11 175 -11 c 0,9,10
 142 -11 142 -11 118.5 2 c 128,-1,11
 95 15 95 15 79 36.5 c 128,-1,12
 63 58 63 58 55.5 85.5 c 128,-1,13
 48 113 48 113 48 142 c 0,14,15
 48 203 48 203 66 263 c 128,-1,16
 84 323 84 323 120 369.5 c 128,-1,17
 156 416 156 416 210.5 445 c 128,-1,18
 265 474 265 474 338 474 c 0,19,20
 346 474 346 474 355.5 473.5 c 128,-1,21
 365 473 365 473 373 471 c 1,22,-1
 423 679 l 1,23,-1
 508 693 l 1,24,-1
 382 171 l 2,25,26
 377 150 377 150 374 131.5 c 128,-1,27
 371 113 371 113 371 92 c 256,0,1
191 57 m 0,28,29
 226 57 226 57 251.5 73 c 128,-1,30
 277 89 277 89 294 111 c 1,31,32
 295 126 295 126 297 145 c 128,-1,33
 299 164 299 164 304 181 c 2,34,-1
 358 400 l 2,35,36
 355 402 355 402 344.5 403.5 c 128,-1,37
 334 405 334 405 328 405 c 0,38,39
 283 405 283 405 246 384 c 128,-1,40
 209 363 209 363 183.5 328 c 128,-1,41
 158 293 158 293 144 247.5 c 128,-1,42
 130 202 130 202 130 153 c 0,43,44
 130 137 130 137 133 120 c 128,-1,45
 136 103 136 103 143 89 c 128,-1,46
 150 75 150 75 162 66 c 128,-1,47
 174 57 174 57 191 57 c 0,28,29
646 693 m 1,48,-1
 573 495 l 1,49,-1
 519 495 l 1,50,-1
 566 693 l 1,51,-1
 646 693 l 1,48,-1
EndSplineSet
Substitution2: "'case' Case-Sensitive Forms lookup 18 subtable" Dcaron
EndChar

StartChar: dcroat
Encoding: 273 273 236
Width: 500
Flags: W
LayerCount: 2
Fore
SplineSet
292 610 m 1,0,-1
 460 610 l 1,1,-1
 477 679 l 1,2,-1
 562 693 l 1,3,-1
 541 610 l 1,4,-1
 608 610 l 1,5,-1
 593 548 l 1,6,-1
 527 548 l 1,7,-1
 436 171 l 2,8,9
 431 150 431 150 427.5 131.5 c 128,-1,10
 424 113 424 113 424 92 c 256,11,12
 424 71 424 71 428 50.5 c 128,-1,13
 432 30 432 30 440 5 c 1,14,-1
 367 -5 l 1,15,16
 362 4 362 4 358 16 c 128,-1,17
 354 28 354 28 352 42 c 1,18,19
 333 24 333 24 301 6.5 c 128,-1,20
 269 -11 269 -11 220 -11 c 0,21,22
 148 -11 148 -11 114 35 c 128,-1,23
 80 81 80 81 80 155 c 0,24,25
 80 215 80 215 99.5 272.5 c 128,-1,26
 119 330 119 330 157 374.5 c 128,-1,27
 195 419 195 419 252.5 446.5 c 128,-1,28
 310 474 310 474 387 474 c 0,29,30
 395 474 395 474 406 473.5 c 128,-1,31
 417 473 417 473 427 471 c 1,32,-1
 446 548 l 1,33,-1
 277 548 l 1,34,-1
 292 610 l 1,0,-1
236 57 m 0,35,36
 271 57 271 57 299.5 73 c 128,-1,37
 328 89 328 89 347 111 c 1,38,39
 348 126 348 126 350.5 145 c 128,-1,40
 353 164 353 164 357 181 c 2,41,-1
 412 400 l 1,42,43
 407 402 407 402 395 403.5 c 128,-1,44
 383 405 383 405 376 405 c 0,45,46
 328 405 328 405 288.5 385 c 128,-1,47
 249 365 249 365 221 331.5 c 128,-1,48
 193 298 193 298 178 254.5 c 128,-1,49
 163 211 163 211 163 164 c 0,50,51
 163 141 163 141 166.5 121.5 c 128,-1,52
 170 102 170 102 178 88 c 128,-1,53
 186 74 186 74 200.5 65.5 c 128,-1,54
 215 57 215 57 236 57 c 0,35,36
EndSplineSet
Substitution2: "'case' Case-Sensitive Forms lookup 18 subtable" Dcroat
EndChar

StartChar: Eogonek
Encoding: 280 280 243
Width: 500
Flags: W
LayerCount: 2
Fore
SplineSet
356 -167 m 0,0,1
 306 -167 306 -167 286.5 -151.5 c 128,-1,2
 267 -136 267 -136 267 -111 c 0,3,4
 267 -87 267 -87 283 -64.5 c 128,-1,5
 299 -42 299 -42 321 -24 c 0,6,7
 330 -16 330 -16 337.5 -10.5 c 128,-1,8
 345 -5 345 -5 352 0 c 1,9,-1
 71 0 l 1,10,-1
 221 619 l 1,11,-1
 567 619 l 1,12,-1
 550 549 l 1,13,-1
 286 549 l 1,14,-1
 240 359 l 1,15,-1
 472 359 l 1,16,-1
 455 289 l 1,17,-1
 223 289 l 1,18,-1
 171 70 l 1,19,-1
 457 70 l 1,20,-1
 440 0 l 1,21,22
 428 -6 428 -6 414.5 -14.5 c 128,-1,23
 401 -23 401 -23 387 -34 c 0,24,25
 376 -42 376 -42 361 -57 c 128,-1,26
 346 -72 346 -72 346 -90 c 0,27,28
 346 -99 346 -99 353.5 -104.5 c 128,-1,29
 361 -110 361 -110 379 -110 c 0,30,31
 387 -110 387 -110 396.5 -108 c 128,-1,32
 406 -106 406 -106 414 -104 c 1,33,-1
 407 -157 l 1,34,35
 385 -167 385 -167 356 -167 c 0,0,1
EndSplineSet
EndChar

StartChar: eogonek
Encoding: 281 281 244
Width: 500
Flags: W
LayerCount: 2
Fore
SplineSet
326 -167 m 0,0,1
 276 -167 276 -167 256.5 -151.5 c 128,-1,2
 237 -136 237 -136 237 -111 c 0,3,4
 237 -87 237 -87 253 -64.5 c 128,-1,5
 269 -42 269 -42 291 -24 c 2,6,-1
 307 -10 l 1,7,8
 296 -11 296 -11 285 -11.5 c 128,-1,9
 274 -12 274 -12 263 -12 c 0,10,11
 214 -12 214 -12 178 2.5 c 128,-1,12
 142 17 142 17 118 41 c 128,-1,13
 94 65 94 65 82.5 96.5 c 128,-1,14
 71 128 71 128 71 162 c 0,15,16
 71 225 71 225 90.5 282 c 128,-1,17
 110 339 110 339 147 381.5 c 128,-1,18
 184 424 184 424 236.5 449.5 c 128,-1,19
 289 475 289 475 355 475 c 0,20,21
 394 475 394 475 422 465.5 c 128,-1,22
 450 456 450 456 468 440.5 c 128,-1,23
 486 425 486 425 494.5 404 c 128,-1,24
 503 383 503 383 503 360 c 0,25,26
 503 297 503 297 471 262 c 128,-1,27
 439 227 439 227 388 209.5 c 128,-1,28
 337 192 337 192 274.5 187 c 128,-1,29
 212 182 212 182 152 180 c 1,30,31
 146 117 146 117 185 88.5 c 128,-1,32
 224 60 224 60 288 60 c 0,33,34
 309 60 309 60 331.5 63.5 c 128,-1,35
 354 67 354 67 373.5 71.5 c 128,-1,36
 393 76 393 76 408 81.5 c 128,-1,37
 423 87 423 87 429 91 c 1,38,-1
 436 21 l 1,39,40
 430 17 430 17 420 10.5 c 128,-1,41
 410 4 410 4 399 -3.5 c 128,-1,42
 388 -11 388 -11 376.5 -19 c 128,-1,43
 365 -27 365 -27 357 -34 c 0,44,45
 346 -42 346 -42 331 -57 c 128,-1,46
 316 -72 316 -72 316 -90 c 0,47,48
 316 -99 316 -99 323.5 -104.5 c 128,-1,49
 331 -110 331 -110 349 -110 c 0,50,51
 357 -110 357 -110 366.5 -108 c 128,-1,52
 376 -106 376 -106 384 -104 c 1,53,-1
 377 -157 l 1,54,55
 355 -167 355 -167 326 -167 c 0,0,1
162 244 m 1,56,57
 222 245 222 245 270 249.5 c 128,-1,58
 318 254 318 254 351.5 266 c 128,-1,59
 385 278 385 278 403 299.5 c 128,-1,60
 421 321 421 321 421 354 c 0,61,62
 421 362 421 362 417.5 371 c 128,-1,63
 414 380 414 380 405.5 388 c 128,-1,64
 397 396 397 396 382 401 c 128,-1,65
 367 406 367 406 345 406 c 0,66,67
 311 406 311 406 281.5 392.5 c 128,-1,68
 252 379 252 379 228 356.5 c 128,-1,69
 204 334 204 334 187.5 305 c 128,-1,70
 171 276 171 276 162 244 c 1,56,57
EndSplineSet
Substitution2: "'case' Case-Sensitive Forms lookup 18 subtable" Eogonek
EndChar

StartChar: hcircumflex
Encoding: 293 293 256
Width: 500
Flags: W
LayerCount: 2
Fore
SplineSet
45 0 m 1,0,-1
 205 669 l 1,1,-1
 291 683 l 1,2,-1
 236 457 l 1,3,4
 256 465 256 465 279 469.5 c 128,-1,5
 302 474 302 474 325 474 c 0,6,7
 365 474 365 474 394 463 c 128,-1,8
 423 452 423 452 441 432.5 c 128,-1,9
 459 413 459 413 467.5 386 c 128,-1,10
 476 359 476 359 476 327 c 0,11,12
 476 306 476 306 472 283 c 128,-1,13
 468 260 468 260 462 236 c 2,14,-1
 405 0 l 1,15,-1
 323 0 l 1,16,-1
 375 218 l 2,17,18
 381 243 381 243 387.5 269.5 c 128,-1,19
 394 296 394 296 394 320 c 0,20,21
 394 355 394 355 374 378.5 c 128,-1,22
 354 402 354 402 301 402 c 0,23,24
 256 402 256 402 221 388 c 1,25,-1
 126 0 l 1,26,-1
 45 0 l 1,0,-1
410 735 m 1,27,-1
 377 699 l 1,28,-1
 313 757 l 1,29,-1
 225 700 l 1,30,-1
 201 742 l 1,31,-1
 323 830 l 1,32,-1
 410 735 l 1,27,-1
EndSplineSet
Substitution2: "'case' Case-Sensitive Forms lookup 18 subtable" Hcircumflex
EndChar

StartChar: Hbar
Encoding: 294 294 257
Width: 500
Flags: W
LayerCount: 2
Fore
SplineSet
125 530 m 1,0,-1
 189 530 l 1,1,-1
 211 619 l 1,2,-1
 293 619 l 1,3,-1
 271 530 l 1,4,-1
 447 530 l 1,5,-1
 468 619 l 1,6,-1
 550 619 l 1,7,-1
 529 530 l 1,8,-1
 593 530 l 1,9,-1
 578 467 l 1,10,-1
 513 467 l 1,11,-1
 401 0 l 1,12,-1
 319 0 l 1,13,-1
 388 288 l 1,14,-1
 213 288 l 1,15,-1
 144 0 l 1,16,-1
 63 0 l 1,17,-1
 174 467 l 1,18,-1
 109 467 l 1,19,-1
 125 530 l 1,0,-1
431 467 m 1,20,-1
 256 467 l 1,21,-1
 230 358 l 1,22,-1
 405 358 l 1,23,-1
 431 467 l 1,20,-1
EndSplineSet
EndChar

StartChar: hbar
Encoding: 295 295 258
Width: 500
Flags: W
LayerCount: 2
Fore
SplineSet
80 0 m 1,0,-1
 212 548 l 1,1,-1
 146 548 l 1,2,-1
 160 610 l 1,3,-1
 226 610 l 1,4,-1
 243 679 l 1,5,-1
 329 693 l 1,6,-1
 308 610 l 1,7,-1
 453 610 l 1,8,-1
 438 548 l 1,9,-1
 293 548 l 1,10,-1
 271 457 l 1,11,12
 291 465 291 465 311.5 469.5 c 128,-1,13
 332 474 332 474 354 474 c 0,14,15
 429 474 429 474 461.5 433 c 128,-1,16
 494 392 494 392 494 327 c 0,17,18
 494 306 494 306 490 283 c 128,-1,19
 486 260 486 260 480 236 c 2,20,-1
 423 0 l 1,21,-1
 341 0 l 1,22,-1
 393 218 l 2,23,24
 399 243 399 243 405.5 269.5 c 128,-1,25
 412 296 412 296 412 320 c 0,26,27
 412 355 412 355 394.5 378.5 c 128,-1,28
 377 402 377 402 330 402 c 0,29,30
 290 402 290 402 256 388 c 1,31,-1
 162 0 l 1,32,-1
 80 0 l 1,0,-1
EndSplineSet
Substitution2: "'case' Case-Sensitive Forms lookup 18 subtable" Hbar
EndChar

StartChar: Iogonek
Encoding: 302 302 265
Width: 500
Flags: W
LayerCount: 2
Fore
SplineSet
193 -167 m 0,0,1
 143 -167 143 -167 123.5 -151.5 c 128,-1,2
 104 -136 104 -136 104 -111 c 0,3,4
 104 -87 104 -87 120 -64.5 c 128,-1,5
 136 -42 136 -42 158 -24 c 0,6,7
 167 -16 167 -16 174.5 -10.5 c 128,-1,8
 182 -5 182 -5 189 0 c 1,9,-1
 71 0 l 1,10,-1
 88 70 l 1,11,-1
 207 70 l 1,12,-1
 322 549 l 1,13,-1
 203 549 l 1,14,-1
 220 619 l 1,15,-1
 541 619 l 1,16,-1
 524 549 l 1,17,-1
 405 549 l 1,18,-1
 289 70 l 1,19,-1
 409 70 l 1,20,-1
 392 0 l 1,21,-1
 271 0 l 1,22,23
 260 -7 260 -7 248.5 -15.5 c 128,-1,24
 237 -24 237 -24 224 -35 c 0,25,26
 213 -43 213 -43 198 -57.5 c 128,-1,27
 183 -72 183 -72 183 -90 c 0,28,29
 183 -99 183 -99 190.5 -104.5 c 128,-1,30
 198 -110 198 -110 216 -110 c 0,31,32
 224 -110 224 -110 233.5 -108 c 128,-1,33
 243 -106 243 -106 251 -104 c 1,34,-1
 244 -157 l 1,35,36
 222 -167 222 -167 193 -167 c 0,0,1
EndSplineSet
EndChar

StartChar: iogonek
Encoding: 303 303 266
Width: 500
Flags: W
LayerCount: 2
Fore
SplineSet
334 -167 m 0,0,1
 284 -167 284 -167 264.5 -151.5 c 128,-1,2
 245 -136 245 -136 245 -111 c 0,3,4
 245 -87 245 -87 261 -64.5 c 128,-1,5
 277 -42 277 -42 299 -24 c 0,6,7
 307 -17 307 -17 313.5 -12 c 128,-1,8
 320 -7 320 -7 326 -2 c 1,9,10
 294 0 294 0 272 10.5 c 128,-1,11
 250 21 250 21 236.5 38 c 128,-1,12
 223 55 223 55 217 77 c 128,-1,13
 211 99 211 99 211 124 c 0,14,15
 211 145 211 145 214.5 167 c 128,-1,16
 218 189 218 189 223 212 c 2,17,-1
 268 395 l 1,18,-1
 134 395 l 1,19,-1
 150 464 l 1,20,-1
 366 464 l 1,21,-1
 305 205 l 2,22,23
 300 185 300 185 296.5 167 c 128,-1,24
 293 149 293 149 293 132 c 0,25,26
 293 104 293 104 307.5 85.5 c 128,-1,27
 322 67 322 67 363 67 c 0,28,29
 380 67 380 67 396 69.5 c 128,-1,30
 412 72 412 72 426 76 c 1,31,-1
 421 6 l 1,32,33
 410 -2 410 -2 395.5 -11 c 128,-1,34
 381 -20 381 -20 365 -34 c 0,35,36
 354 -42 354 -42 339 -57 c 128,-1,37
 324 -72 324 -72 324 -90 c 0,38,39
 324 -99 324 -99 331.5 -104.5 c 128,-1,40
 339 -110 339 -110 357 -110 c 0,41,42
 365 -110 365 -110 374.5 -108 c 128,-1,43
 384 -106 384 -106 392 -104 c 1,44,-1
 385 -157 l 1,45,46
 363 -167 363 -167 334 -167 c 0,0,1
330 536 m 0,47,48
 304 536 304 536 287 551 c 128,-1,49
 270 566 270 566 270 595 c 0,50,51
 270 630 270 630 292 650 c 128,-1,52
 314 670 314 670 341 670 c 0,53,54
 367 670 367 670 384.5 654 c 128,-1,55
 402 638 402 638 402 609 c 0,56,57
 402 592 402 592 395.5 579 c 128,-1,58
 389 566 389 566 378.5 556 c 128,-1,59
 368 546 368 546 355.5 541 c 128,-1,60
 343 536 343 536 330 536 c 0,47,48
EndSplineSet
Substitution2: "'case' Case-Sensitive Forms lookup 18 subtable" Iogonek
EndChar

StartChar: dotlessi
Encoding: 305 305 268
Width: 500
Flags: W
LayerCount: 2
Fore
SplineSet
305 205 m 2,0,1
 300 185 300 185 296.5 167 c 128,-1,2
 293 149 293 149 293 132 c 0,3,4
 293 104 293 104 307.5 85.5 c 128,-1,5
 322 67 322 67 363 67 c 0,6,7
 380 67 380 67 396 69.5 c 128,-1,8
 412 72 412 72 426 76 c 1,9,-1
 421 6 l 1,10,11
 414 4 414 4 395.5 0.5 c 128,-1,12
 377 -3 377 -3 343 -3 c 0,13,14
 306 -3 306 -3 280.5 7 c 128,-1,15
 255 17 255 17 239.5 34 c 128,-1,16
 224 51 224 51 217.5 74 c 128,-1,17
 211 97 211 97 211 124 c 0,18,19
 211 145 211 145 214.5 167 c 128,-1,20
 218 189 218 189 223 212 c 2,21,-1
 268 395 l 1,22,-1
 134 395 l 1,23,-1
 150 464 l 1,24,-1
 366 464 l 1,25,-1
 305 205 l 2,0,1
EndSplineSet
EndChar

StartChar: IJ
Encoding: 306 306 270
Width: 500
Flags: W
LayerCount: 2
Fore
SplineSet
102 0 m 1,0,-1
 21 0 l 1,1,-1
 168 619 l 1,2,-1
 250 619 l 1,3,-1
 102 0 l 1,0,-1
597 619 m 1,4,-1
 489 171 l 2,5,6
 466 73 466 73 418.5 30 c 128,-1,7
 371 -13 371 -13 284 -13 c 0,8,9
 249 -13 249 -13 217 -0.5 c 128,-1,10
 185 12 185 12 163 37 c 1,11,-1
 213 104 l 1,12,13
 226 85 226 85 246 71.5 c 128,-1,14
 266 58 266 58 300 58 c 0,15,16
 339 58 339 58 366 85 c 128,-1,17
 393 112 393 112 407 172 c 2,18,-1
 514 619 l 1,19,-1
 597 619 l 1,4,-1
EndSplineSet
EndChar

StartChar: ij
Encoding: 307 307 271
Width: 500
Flags: W
LayerCount: 2
Fore
SplineSet
179 0 m 1,0,-1
 96 0 l 1,1,-1
 208 464 l 1,2,-1
 290 464 l 1,3,-1
 179 0 l 1,0,-1
274 542 m 0,4,5
 251 542 251 542 236 556 c 128,-1,6
 221 570 221 570 221 595 c 0,7,8
 221 627 221 627 241 645 c 128,-1,9
 261 663 261 663 286 663 c 0,10,11
 309 663 309 663 324.5 649 c 128,-1,12
 340 635 340 635 340 609 c 0,13,14
 340 579 340 579 319 560.5 c 128,-1,15
 298 542 298 542 274 542 c 0,4,5
387 18 m 2,16,17
 375 -32 375 -32 360 -67 c 128,-1,18
 345 -102 345 -102 323.5 -124.5 c 128,-1,19
 302 -147 302 -147 271 -157.5 c 128,-1,20
 240 -168 240 -168 196 -168 c 0,21,22
 181 -168 181 -168 162 -164 c 128,-1,23
 143 -160 143 -160 132 -152 c 1,24,-1
 151 -83 l 1,25,26
 172 -96 172 -96 209 -96 c 0,27,28
 250 -96 250 -96 271 -65 c 128,-1,29
 292 -34 292 -34 305 17 c 2,30,-1
 412 464 l 1,31,-1
 494 464 l 1,32,-1
 387 18 l 2,16,17
478 542 m 0,33,34
 455 542 455 542 439.5 556 c 128,-1,35
 424 570 424 570 424 595 c 0,36,37
 424 627 424 627 444 645 c 128,-1,38
 464 663 464 663 489 663 c 0,39,40
 513 663 513 663 528.5 649 c 128,-1,41
 544 635 544 635 544 609 c 0,42,43
 544 579 544 579 523 560.5 c 128,-1,44
 502 542 502 542 478 542 c 0,33,34
EndSplineSet
Substitution2: "'case' Case-Sensitive Forms lookup 18 subtable" IJ
EndChar

StartChar: kgreenlandic.case
Encoding: 65538 -1 276
Width: 500
Flags: W
LayerCount: 2
Fore
SplineSet
481 464 m 1,0,1
 484 475 484 475 486.5 484 c 128,-1,2
 489 493 489 493 491 502 c 0,3,4
 506 548 506 548 534 593.5 c 128,-1,5
 562 639 562 639 596 679 c 1,6,-1
 655 658 l 1,7,8
 626 618 626 618 607 578.5 c 128,-1,9
 588 539 588 539 580 504 c 0,10,11
 578 495 578 495 576 485 c 128,-1,12
 574 475 574 475 572 464 c 1,13,-1
 481 464 l 1,0,1
517 619 m 1,14,15
 488 579 488 579 460 542.5 c 128,-1,16
 432 506 432 506 403 469.5 c 128,-1,17
 374 433 374 433 343 396 c 128,-1,18
 312 359 312 359 278 317 c 1,19,20
 301 285 301 285 318 252 c 128,-1,21
 335 219 335 219 348 181.5 c 128,-1,22
 361 144 361 144 370.5 99.5 c 128,-1,23
 380 55 380 55 388 0 c 1,24,-1
 297 0 l 1,25,26
 286 93 286 93 261.5 172 c 128,-1,27
 237 251 237 251 197 296 c 1,28,-1
 126 0 l 1,29,-1
 45 0 l 1,30,-1
 193 619 l 1,31,-1
 275 619 l 1,32,-1
 208 343 l 1,33,34
 265 409 265 409 320 479.5 c 128,-1,35
 375 550 375 550 423 619 c 1,36,-1
 517 619 l 1,14,15
EndSplineSet
EndChar

StartChar: kgreenlandic
Encoding: 312 312 277
Width: 500
Flags: W
LayerCount: 2
Fore
SplineSet
63 0 m 1,0,-1
 174 464 l 1,1,-1
 256 464 l 1,2,-1
 211 275 l 1,3,4
 241 297 241 297 273.5 321.5 c 128,-1,5
 306 346 306 346 337.5 370.5 c 128,-1,6
 369 395 369 395 397 419 c 128,-1,7
 425 443 425 443 447 464 c 1,8,-1
 545 464 l 1,9,10
 524 441 524 441 490.5 412 c 128,-1,11
 457 383 457 383 420.5 353.5 c 128,-1,12
 384 324 384 324 348 297.5 c 128,-1,13
 312 271 312 271 286 252 c 1,14,15
 310 231 310 231 335.5 202 c 128,-1,16
 361 173 361 173 384.5 139.5 c 128,-1,17
 408 106 408 106 428 70 c 128,-1,18
 448 34 448 34 460 0 c 1,19,-1
 363 0 l 1,20,21
 335 72 335 72 292 133 c 128,-1,22
 249 194 249 194 201 232 c 1,23,-1
 145 0 l 1,24,-1
 63 0 l 1,0,-1
EndSplineSet
Substitution2: "'case' Case-Sensitive Forms lookup 18 subtable" kgreenlandic.case
EndChar

StartChar: lacute
Encoding: 314 314 279
Width: 500
Flags: W
LayerCount: 2
Fore
SplineSet
311 608 m 1,0,-1
 177 608 l 1,1,-1
 194 678 l 1,2,-1
 410 678 l 1,3,-1
 292 189 l 2,4,5
 287 169 287 169 284 150.5 c 128,-1,6
 281 132 281 132 281 116 c 0,7,8
 281 87 281 87 295 73 c 128,-1,9
 309 59 309 59 347 59 c 0,10,11
 373 59 373 59 398 68 c 128,-1,12
 423 77 423 77 437 85 c 1,13,-1
 443 15 l 1,14,15
 429 7 429 7 397.5 -2 c 128,-1,16
 366 -11 366 -11 324 -11 c 0,17,18
 258 -11 258 -11 228.5 17.5 c 128,-1,19
 199 46 199 46 199 103 c 0,20,21
 199 144 199 144 212 196 c 2,22,-1
 311 608 l 1,0,-1
461 766 m 1,23,-1
 307 711 l 1,24,-1
 292 756 l 1,25,-1
 442 830 l 1,26,-1
 461 766 l 1,23,-1
EndSplineSet
Substitution2: "'case' Case-Sensitive Forms lookup 18 subtable" Lacute
EndChar

StartChar: Lslash
Encoding: 321 321 286
Width: 500
Flags: W
LayerCount: 2
Fore
SplineSet
421 70 m 1,0,-1
 404 0 l 1,1,-1
 65 0 l 1,2,-1
 125 251 l 1,3,-1
 59 220 l 1,4,-1
 45 281 l 1,5,-1
 144 329 l 1,6,-1
 214 619 l 1,7,-1
 296 619 l 1,8,-1
 235 365 l 1,9,-1
 354 421 l 1,10,-1
 368 360 l 1,11,-1
 217 288 l 1,12,-1
 164 70 l 1,13,-1
 421 70 l 1,0,-1
EndSplineSet
EndChar

StartChar: lslash
Encoding: 322 322 287
Width: 500
Flags: W
LayerCount: 2
Fore
SplineSet
238 305 m 1,0,-1
 174 275 l 1,1,-1
 160 337 l 1,2,-1
 256 382 l 1,3,-1
 313 618 l 1,4,-1
 179 618 l 1,5,-1
 196 688 l 1,6,-1
 412 688 l 1,7,-1
 346 418 l 1,8,-1
 415 450 l 1,9,-1
 430 388 l 1,10,-1
 328 340 l 1,11,-1
 292 189 l 2,12,13
 287 169 287 169 284 150.5 c 128,-1,14
 281 132 281 132 281 116 c 0,15,16
 281 87 281 87 295 73 c 128,-1,17
 309 59 309 59 347 59 c 0,18,19
 373 59 373 59 398 68 c 128,-1,20
 423 77 423 77 437 85 c 1,21,-1
 443 15 l 1,22,23
 429 7 429 7 397.5 -2 c 128,-1,24
 366 -11 366 -11 324 -11 c 0,25,26
 258 -11 258 -11 228.5 17.5 c 128,-1,27
 199 46 199 46 199 103 c 0,28,29
 199 144 199 144 212 196 c 2,30,-1
 238 305 l 1,0,-1
EndSplineSet
Substitution2: "'case' Case-Sensitive Forms lookup 18 subtable" Lslash
EndChar

StartChar: napostrophe.case
Encoding: 65539 -1 294
Width: 500
Flags: W
LayerCount: 2
Fore
SplineSet
292 693 m 1,0,1
 286 665 286 665 274.5 638 c 128,-1,2
 263 611 263 611 249.5 586.5 c 128,-1,3
 236 562 236 562 220.5 541 c 128,-1,4
 205 520 205 520 190 505 c 1,5,-1
 138 525 l 1,6,7
 164 567 164 567 182 608.5 c 128,-1,8
 200 650 200 650 206 693 c 1,9,-1
 292 693 l 1,0,1
354 0 m 1,10,11
 355 96 355 96 354 201.5 c 128,-1,12
 353 307 353 307 353 421 c 1,13,-1
 251 0 l 1,14,-1
 181 0 l 1,15,-1
 330 619 l 1,16,-1
 405 619 l 1,17,18
 409 519 409 519 413 415 c 128,-1,19
 417 311 417 311 413 223 c 1,20,-1
 508 619 l 1,21,-1
 578 619 l 1,22,-1
 429 0 l 1,23,-1
 354 0 l 1,10,11
EndSplineSet
EndChar

StartChar: Eng
Encoding: 330 330 296
Width: 500
Flags: W
LayerCount: 2
Fore
SplineSet
359 19 m 1,0,1
 342 102 342 102 325.5 168 c 128,-1,2
 309 234 309 234 293.5 291 c 128,-1,3
 278 348 278 348 263.5 399 c 128,-1,4
 249 450 249 450 234 503 c 1,5,-1
 115 0 l 1,6,-1
 40 0 l 1,7,-1
 189 619 l 1,8,-1
 273 619 l 1,9,10
 296 544 296 544 313 489 c 128,-1,11
 330 434 330 434 343.5 384 c 128,-1,12
 357 334 357 334 369 282 c 128,-1,13
 381 230 381 230 394 163 c 1,14,-1
 504 619 l 1,15,-1
 579 619 l 1,16,-1
 430 0 l 2,17,18
 420 -41 420 -41 407.5 -72.5 c 128,-1,19
 395 -104 395 -104 376.5 -125 c 128,-1,20
 358 -146 358 -146 330.5 -156.5 c 128,-1,21
 303 -167 303 -167 262 -167 c 0,22,23
 249 -167 249 -167 235.5 -164.5 c 128,-1,24
 222 -162 222 -162 214 -160 c 1,25,-1
 238 -95 l 1,26,27
 243 -97 243 -97 252.5 -98 c 128,-1,28
 262 -99 262 -99 275 -99 c 0,29,30
 309 -99 309 -99 325 -77.5 c 128,-1,31
 341 -56 341 -56 351 -15 c 2,32,-1
 359 19 l 1,0,1
EndSplineSet
EndChar

StartChar: eng
Encoding: 331 331 297
Width: 500
Flags: W
LayerCount: 2
Fore
SplineSet
145 0 m 1,0,-1
 63 0 l 1,1,-1
 170 447 l 1,2,3
 211 459 211 459 256 466.5 c 128,-1,4
 301 474 301 474 339 474 c 0,5,6
 421 474 421 474 457.5 434.5 c 128,-1,7
 494 395 494 395 494 331 c 0,8,9
 494 310 494 310 490 286.5 c 128,-1,10
 486 263 486 263 480 238 c 2,11,-1
 422 -5 l 2,12,13
 403 -85 403 -85 367 -126 c 128,-1,14
 331 -167 331 -167 262 -167 c 0,15,16
 231 -167 231 -167 197 -160 c 1,17,-1
 221 -95 l 1,18,19
 240 -99 240 -99 258 -99 c 0,20,21
 279 -99 279 -99 292.5 -92 c 128,-1,22
 306 -85 306 -85 315 -72 c 128,-1,23
 324 -59 324 -59 329.5 -41.5 c 128,-1,24
 335 -24 335 -24 340 -4 c 2,25,-1
 394 220 l 2,26,27
 399 242 399 242 405.5 267 c 128,-1,28
 412 292 412 292 412 315 c 0,29,30
 412 333 412 333 408 349 c 128,-1,31
 404 365 404 365 393.5 376.5 c 128,-1,32
 383 388 383 388 365 395 c 128,-1,33
 347 402 347 402 319 402 c 0,34,35
 296 402 296 402 274.5 399.5 c 128,-1,36
 253 397 253 397 239 392 c 1,37,-1
 145 0 l 1,0,-1
EndSplineSet
Substitution2: "'case' Case-Sensitive Forms lookup 18 subtable" Eng
EndChar

StartChar: Scedilla
Encoding: 350 350 314
Width: 500
Flags: W
LayerCount: 2
Fore
SplineSet
240 -34 m 1,0,1
 258 -44 258 -44 267 -55.5 c 128,-1,2
 276 -67 276 -67 276 -88 c 0,3,4
 276 -127 276 -127 248 -148 c 128,-1,5
 220 -169 220 -169 172 -169 c 0,6,7
 146 -169 146 -169 128.5 -165 c 128,-1,8
 111 -161 111 -161 100 -155 c 1,9,-1
 120 -106 l 1,10,11
 128 -110 128 -110 139.5 -113 c 128,-1,12
 151 -116 151 -116 168 -116 c 0,13,14
 183 -116 183 -116 192.5 -111.5 c 128,-1,15
 202 -107 202 -107 202 -94 c 0,16,17
 202 -79 202 -79 190.5 -72 c 128,-1,18
 179 -65 179 -65 166 -62 c 1,19,20
 172 -51 172 -51 180.5 -38 c 128,-1,21
 189 -25 189 -25 198 -12 c 1,22,23
 142 -8 142 -8 105 6 c 128,-1,24
 68 20 68 20 54 31 c 1,25,-1
 92 99 l 1,26,27
 109 88 109 88 145 73.5 c 128,-1,28
 181 59 181 59 238 59 c 0,29,30
 265 59 265 59 291.5 65 c 128,-1,31
 318 71 318 71 339 84.5 c 128,-1,32
 360 98 360 98 372.5 120.5 c 128,-1,33
 385 143 385 143 385 176 c 0,34,35
 385 198 385 198 376.5 214.5 c 128,-1,36
 368 231 368 231 353.5 244.5 c 128,-1,37
 339 258 339 258 319.5 269.5 c 128,-1,38
 300 281 300 281 277 293 c 0,39,40
 256 304 256 304 236 317 c 128,-1,41
 216 330 216 330 201 347.5 c 128,-1,42
 186 365 186 365 176.5 389.5 c 128,-1,43
 167 414 167 414 167 449 c 0,44,45
 167 530 167 530 223.5 581.5 c 128,-1,46
 280 633 280 633 395 633 c 0,47,48
 420 633 420 633 444 629 c 128,-1,49
 468 625 468 625 487.5 619 c 128,-1,50
 507 613 507 613 522 606.5 c 128,-1,51
 537 600 537 600 545 595 c 1,52,-1
 506 529 l 1,53,54
 491 542 491 542 458 551.5 c 128,-1,55
 425 561 425 561 380 561 c 0,56,57
 352 561 352 561 328.5 555 c 128,-1,58
 305 549 305 549 287.5 536.5 c 128,-1,59
 270 524 270 524 260 504 c 128,-1,60
 250 484 250 484 250 457 c 0,61,62
 250 434 250 434 257 418 c 128,-1,63
 264 402 264 402 276 390 c 128,-1,64
 288 378 288 378 305.5 368 c 128,-1,65
 323 358 323 358 344 347 c 0,66,67
 370 333 370 333 393 319.5 c 128,-1,68
 416 306 416 306 432.5 287.5 c 128,-1,69
 449 269 449 269 458.5 244 c 128,-1,70
 468 219 468 219 468 184 c 0,71,72
 468 138 468 138 452.5 102.5 c 128,-1,73
 437 67 437 67 409.5 42.5 c 128,-1,74
 382 18 382 18 343 4.5 c 128,-1,75
 304 -9 304 -9 256 -12 c 1,76,-1
 240 -34 l 1,0,1
EndSplineSet
EndChar

StartChar: scedilla
Encoding: 351 351 315
Width: 500
Flags: W
LayerCount: 2
Fore
SplineSet
250 -34 m 1,0,1
 268 -44 268 -44 277 -55.5 c 128,-1,2
 286 -67 286 -67 286 -88 c 0,3,4
 286 -127 286 -127 258 -148 c 128,-1,5
 230 -169 230 -169 182 -169 c 0,6,7
 156 -169 156 -169 138.5 -165 c 128,-1,8
 121 -161 121 -161 110 -155 c 1,9,-1
 130 -106 l 1,10,11
 138 -110 138 -110 149.5 -113 c 128,-1,12
 161 -116 161 -116 178 -116 c 0,13,14
 193 -116 193 -116 202.5 -111.5 c 128,-1,15
 212 -107 212 -107 212 -94 c 0,16,17
 212 -79 212 -79 200.5 -72 c 128,-1,18
 189 -65 189 -65 176 -62 c 1,19,20
 182 -51 182 -51 191 -37.5 c 128,-1,21
 200 -24 200 -24 209 -11 c 1,22,23
 162 -7 162 -7 129 4.5 c 128,-1,24
 96 16 96 16 79 25 c 1,25,-1
 112 95 l 1,26,27
 128 84 128 84 162 71 c 128,-1,28
 196 58 196 58 242 58 c 0,29,30
 264 58 264 58 285.5 61.5 c 128,-1,31
 307 65 307 65 324 73 c 128,-1,32
 341 81 341 81 351.5 95 c 128,-1,33
 362 109 362 109 362 129 c 0,34,35
 362 157 362 157 338.5 173 c 128,-1,36
 315 189 315 189 273 209 c 0,37,38
 253 219 253 219 234 229 c 128,-1,39
 215 239 215 239 200.5 252 c 128,-1,40
 186 265 186 265 177 283.5 c 128,-1,41
 168 302 168 302 168 328 c 0,42,43
 168 395 168 395 220 435 c 128,-1,44
 272 475 272 475 367 475 c 0,45,46
 414 475 414 475 448.5 467 c 128,-1,47
 483 459 483 459 500 450 c 1,48,-1
 469 380 l 1,49,50
 454 389 454 389 423.5 397 c 128,-1,51
 393 405 393 405 355 405 c 0,52,53
 335 405 335 405 315.5 401.5 c 128,-1,54
 296 398 296 398 281 390 c 128,-1,55
 266 382 266 382 257 369 c 128,-1,56
 248 356 248 356 248 336 c 0,57,58
 248 312 248 312 272.5 295.5 c 128,-1,59
 297 279 297 279 334 263 c 0,60,61
 357 254 357 254 377 243 c 128,-1,62
 397 232 397 232 411.5 217.5 c 128,-1,63
 426 203 426 203 434 184 c 128,-1,64
 442 165 442 165 442 139 c 0,65,66
 442 69 442 69 394 32 c 128,-1,67
 346 -5 346 -5 267 -11 c 1,68,-1
 250 -34 l 1,0,1
EndSplineSet
Substitution2: "'case' Case-Sensitive Forms lookup 18 subtable" Scedilla
EndChar

StartChar: uni0162
Encoding: 354 354 316
Width: 500
Flags: W
LayerCount: 2
Fore
SplineSet
228 -34 m 1,0,1
 246 -44 246 -44 255 -55.5 c 128,-1,2
 264 -67 264 -67 264 -88 c 0,3,4
 264 -127 264 -127 236 -148 c 128,-1,5
 208 -169 208 -169 160 -169 c 0,6,7
 134 -169 134 -169 116.5 -165 c 128,-1,8
 99 -161 99 -161 88 -155 c 1,9,-1
 108 -106 l 1,10,11
 116 -110 116 -110 127.5 -113 c 128,-1,12
 139 -116 139 -116 156 -116 c 0,13,14
 171 -116 171 -116 180.5 -111.5 c 128,-1,15
 190 -107 190 -107 190 -94 c 0,16,17
 190 -83 190 -83 182.5 -75.5 c 128,-1,18
 175 -68 175 -68 154 -62 c 1,19,20
 162 -49 162 -49 173 -31.5 c 128,-1,21
 184 -14 184 -14 195 0 c 1,22,-1
 188 0 l 1,23,-1
 321 549 l 1,24,-1
 152 549 l 1,25,-1
 169 619 l 1,26,-1
 589 619 l 1,27,-1
 572 549 l 1,28,-1
 403 549 l 1,29,-1
 271 0 l 1,30,-1
 253 0 l 1,31,-1
 228 -34 l 1,0,1
EndSplineSet
EndChar

StartChar: uni0163
Encoding: 355 355 317
Width: 500
Flags: W
LayerCount: 2
Fore
SplineSet
287 -34 m 1,0,1
 305 -44 305 -44 314 -55.5 c 128,-1,2
 323 -67 323 -67 323 -88 c 0,3,4
 323 -127 323 -127 295 -148 c 128,-1,5
 267 -169 267 -169 219 -169 c 0,6,7
 193 -169 193 -169 175.5 -165 c 128,-1,8
 158 -161 158 -161 147 -155 c 1,9,-1
 167 -106 l 1,10,11
 175 -110 175 -110 186.5 -113 c 128,-1,12
 198 -116 198 -116 215 -116 c 0,13,14
 230 -116 230 -116 239.5 -111.5 c 128,-1,15
 249 -107 249 -107 249 -94 c 0,16,17
 249 -79 249 -79 237.5 -72 c 128,-1,18
 226 -65 226 -65 213 -62 c 1,19,20
 219 -51 219 -51 229.5 -35.5 c 128,-1,21
 240 -20 240 -20 250 -6 c 1,22,23
 211 2 211 2 187 28.5 c 128,-1,24
 163 55 163 55 163 109 c 0,25,26
 163 131 163 131 166.5 155 c 128,-1,27
 170 179 170 179 176 204 c 2,28,-1
 223 395 l 1,29,-1
 125 395 l 1,30,-1
 141 464 l 1,31,-1
 240 464 l 1,32,-1
 271 594 l 1,33,-1
 357 608 l 1,34,-1
 322 464 l 1,35,-1
 500 464 l 1,36,-1
 484 395 l 1,37,-1
 305 395 l 1,38,-1
 258 196 l 2,39,40
 253 177 253 177 249 159 c 128,-1,41
 245 141 245 141 245 124 c 0,42,43
 245 86 245 86 262.5 73.5 c 128,-1,44
 280 61 280 61 312 61 c 0,45,46
 343 61 343 61 372.5 67.5 c 128,-1,47
 402 74 402 74 428 84 c 1,48,-1
 426 13 l 1,49,50
 398 3 398 3 368 -3.5 c 128,-1,51
 338 -10 338 -10 304 -11 c 1,52,-1
 287 -34 l 1,0,1
EndSplineSet
Substitution2: "'case' Case-Sensitive Forms lookup 18 subtable" uni0162
EndChar

StartChar: Tbar
Encoding: 358 358 320
Width: 500
Flags: W
LayerCount: 2
Fore
SplineSet
589 619 m 1,0,-1
 572 549 l 1,1,-1
 403 549 l 1,2,-1
 355 351 l 1,3,-1
 451 351 l 1,4,-1
 435 284 l 1,5,-1
 338 284 l 1,6,-1
 271 0 l 1,7,-1
 188 0 l 1,8,-1
 256 284 l 1,9,-1
 164 284 l 1,10,-1
 180 351 l 1,11,-1
 272 351 l 1,12,-1
 321 549 l 1,13,-1
 152 549 l 1,14,-1
 169 619 l 1,15,-1
 589 619 l 1,0,-1
EndSplineSet
EndChar

StartChar: tbar
Encoding: 359 359 321
Width: 500
Flags: W
LayerCount: 2
Fore
SplineSet
438 13 m 1,0,1
 409 3 409 3 377.5 -4 c 128,-1,2
 346 -11 346 -11 311 -11 c 0,3,4
 282 -11 282 -11 257.5 -5 c 128,-1,5
 233 1 233 1 214.5 14.5 c 128,-1,6
 196 28 196 28 185.5 51 c 128,-1,7
 175 74 175 74 175 109 c 0,8,9
 175 131 175 131 178.5 155 c 128,-1,10
 182 179 182 179 188 204 c 2,11,-1
 190 211 l 1,12,-1
 93 211 l 1,13,-1
 108 273 l 1,14,-1
 205 273 l 1,15,-1
 235 395 l 1,16,-1
 137 395 l 1,17,-1
 154 464 l 1,18,-1
 252 464 l 1,19,-1
 283 594 l 1,20,-1
 369 608 l 1,21,-1
 334 464 l 1,22,-1
 513 464 l 1,23,-1
 496 395 l 1,24,-1
 317 395 l 1,25,-1
 288 273 l 1,26,-1
 466 273 l 1,27,-1
 451 211 l 1,28,-1
 273 211 l 1,29,-1
 270 196 l 2,30,31
 265 177 265 177 261 159 c 128,-1,32
 257 141 257 141 257 124 c 0,33,34
 257 86 257 86 274.5 73.5 c 128,-1,35
 292 61 292 61 324 61 c 0,36,37
 355 61 355 61 384.5 67.5 c 128,-1,38
 414 74 414 74 440 84 c 1,39,-1
 438 13 l 1,0,1
EndSplineSet
Substitution2: "'case' Case-Sensitive Forms lookup 18 subtable" Tbar
EndChar

StartChar: Uogonek
Encoding: 370 370 332
Width: 500
Flags: W
LayerCount: 2
Fore
SplineSet
237 -13 m 2,0,1
 196 -13 196 -13 167 1 c 128,-1,2
 138 15 138 15 118.5 38.5 c 128,-1,3
 99 62 99 62 90 93 c 128,-1,4
 81 124 81 124 81 158 c 0,5,6
 81 188 81 188 89 222 c 2,7,-1
 184 619 l 1,8,-1
 266 619 l 1,9,-1
 171 223 l 2,10,11
 163 189 163 189 163 160 c 0,12,13
 163 139 163 139 167.5 120.5 c 128,-1,14
 172 102 172 102 182 88 c 128,-1,15
 192 74 192 74 208.5 66 c 128,-1,16
 225 58 225 58 249 58 c 0,17,18
 276 58 276 58 298 64.5 c 128,-1,19
 320 71 320 71 338 88 c 128,-1,20
 356 105 356 105 370 135 c 128,-1,21
 384 165 384 165 396 212 c 2,22,-1
 494 619 l 1,23,-1
 576 619 l 1,24,-1
 476 202 l 2,25,26
 462 144 462 144 442 100.5 c 128,-1,27
 422 57 422 57 383 29 c 0,28,29
 360 12 360 12 335.5 -6 c 128,-1,30
 311 -24 311 -24 298 -35 c 0,31,32
 293 -39 293 -39 285.5 -45 c 128,-1,33
 278 -51 278 -51 271.5 -58 c 128,-1,34
 265 -65 265 -65 260.5 -73 c 128,-1,35
 256 -81 256 -81 256 -90 c 256,36,37
 256 -99 256 -99 263.5 -104.5 c 128,-1,38
 271 -110 271 -110 289 -110 c 0,39,40
 297 -110 297 -110 307.5 -108 c 128,-1,41
 318 -106 318 -106 326 -104 c 1,42,-1
 318 -157 l 1,43,44
 296 -167 296 -167 267 -167 c 0,45,46
 217 -167 217 -167 197.5 -151.5 c 128,-1,47
 178 -136 178 -136 178 -111 c 0,48,49
 178 -96 178 -96 184.5 -81 c 128,-1,50
 191 -66 191 -66 201.5 -53.5 c 128,-1,51
 212 -41 212 -41 224 -30.5 c 128,-1,52
 236 -20 236 -20 248 -12 c 1,53,-1
 237 -13 l 2,0,1
EndSplineSet
EndChar

StartChar: uogonek
Encoding: 371 371 333
Width: 500
Flags: W
LayerCount: 2
Fore
SplineSet
222 -10 m 0,0,1
 183 -10 183 -10 157 1.5 c 128,-1,2
 131 13 131 13 114.5 32.5 c 128,-1,3
 98 52 98 52 91 78.5 c 128,-1,4
 84 105 84 105 84 135 c 0,5,6
 84 158 84 158 88 181 c 128,-1,7
 92 204 92 204 97 227 c 2,8,-1
 154 464 l 1,9,-1
 237 464 l 1,10,-1
 184 245 l 2,11,12
 179 224 179 224 172.5 196.5 c 128,-1,13
 166 169 166 169 166 141 c 0,14,15
 166 125 166 125 169 110.5 c 128,-1,16
 172 96 172 96 180 84.5 c 128,-1,17
 188 73 188 73 202 66.5 c 128,-1,18
 216 60 216 60 238 60 c 0,19,20
 276 60 276 60 306 76.5 c 128,-1,21
 336 93 336 93 355 115 c 1,22,23
 356 129 356 129 357.5 144.5 c 128,-1,24
 359 160 359 160 364 178 c 2,25,-1
 433 464 l 1,26,-1
 515 464 l 1,27,-1
 445 171 l 2,28,29
 440 150 440 150 437 131 c 128,-1,30
 434 112 434 112 434 91 c 256,31,32
 434 70 434 70 437.5 50 c 128,-1,33
 441 30 441 30 450 5 c 1,34,35
 439 -3 439 -3 425 -12 c 128,-1,36
 411 -21 411 -21 395 -35 c 0,37,38
 384 -43 384 -43 369 -57.5 c 128,-1,39
 354 -72 354 -72 354 -90 c 0,40,41
 354 -99 354 -99 361.5 -104.5 c 128,-1,42
 369 -110 369 -110 387 -110 c 0,43,44
 395 -110 395 -110 404.5 -108 c 128,-1,45
 414 -106 414 -106 422 -104 c 1,46,-1
 415 -157 l 1,47,48
 393 -167 393 -167 364 -167 c 0,49,50
 314 -167 314 -167 294.5 -151.5 c 128,-1,51
 275 -136 275 -136 275 -111 c 0,52,53
 275 -87 275 -87 291 -64.5 c 128,-1,54
 307 -42 307 -42 329 -24 c 0,55,56
 354 -3 354 -3 371 7 c 1,57,58
 368 15 368 15 365.5 24 c 128,-1,59
 363 33 363 33 361 44 c 1,60,61
 341 26 341 26 307 8 c 128,-1,62
 273 -10 273 -10 222 -10 c 0,0,1
EndSplineSet
Substitution2: "'case' Case-Sensitive Forms lookup 18 subtable" Uogonek
EndChar

StartChar: longs
Encoding: 383 383 344
Width: 500
Flags: W
LayerCount: 2
Fore
SplineSet
263 18 m 2,0,1
 252 -32 252 -32 237.5 -67.5 c 128,-1,2
 223 -103 223 -103 201 -125.5 c 128,-1,3
 179 -148 179 -148 147.5 -158 c 128,-1,4
 116 -168 116 -168 73 -168 c 0,5,6
 58 -168 58 -168 39 -164 c 128,-1,7
 20 -160 20 -160 9 -152 c 1,8,-1
 28 -83 l 1,9,10
 49 -96 49 -96 86 -96 c 0,11,12
 126 -96 126 -96 148 -65 c 128,-1,13
 170 -34 170 -34 181 17 c 2,14,-1
 285 506 l 2,15,16
 304 596 304 596 352.5 644.5 c 128,-1,17
 401 693 401 693 497 693 c 0,18,19
 528 693 528 693 556 687 c 128,-1,20
 584 681 584 681 598 673 c 1,21,-1
 565 607 l 1,22,23
 557 611 557 611 540.5 616.5 c 128,-1,24
 524 622 524 622 489 622 c 0,25,26
 460 622 460 622 439.5 613.5 c 128,-1,27
 419 605 419 605 404.5 589.5 c 128,-1,28
 390 574 390 574 381.5 552.5 c 128,-1,29
 373 531 373 531 367 505 c 2,30,-1
 263 18 l 2,0,1
EndSplineSet
Substitution2: "'case' Case-Sensitive Forms lookup 17 subtable" S
EndChar

